<mxfile host="app.diagrams.net" modified="2022-10-18T12:31:11.575Z" agent="5.0 (Windows NT 10.0; Win64; x64) AppleWebKit/537.36 (KHTML, like Gecko) Chrome/106.0.0.0 Safari/537.36" etag="Bl_FM2A6LjUK-4cn0j3P" version="20.4.0" type="github">
  <diagram id="kpVaoCrSw2o-1bkIynoA" name="Sayfa -1">
    <mxGraphModel dx="862" dy="450" grid="1" gridSize="10" guides="1" tooltips="1" connect="1" arrows="1" fold="1" page="1" pageScale="1" pageWidth="827" pageHeight="1169" math="0" shadow="0">
      <root>
        <mxCell id="0" />
        <mxCell id="1" parent="0" />
        <mxCell id="n99DYxy3qWON-Op06M_Q-1" value="" style="shape=image;verticalLabelPosition=bottom;labelBackgroundColor=default;verticalAlign=top;aspect=fixed;imageAspect=0;image=data:image/png,iVBORw0KGgoAAAANSUhEUgAAAgAAAAIACAYAAAD0eNT6AAAACXBIWXMAAA7DAAAOwwHHb6hkAAAAGXRFWHRTb2Z0d2FyZQB3d3cuaW5rc2NhcGUub3Jnm+48GgAAIABJREFUeJzs3XeUHFeVP/Dvq9RxpicnTVBOVpZtOcjKAclROOCADWtsGctgggMGFlbsjyWzLMsS1ixg5AjCgDHY2JYDOGEbWcmSLVk5jaTJPZ27qt7vDyEQsqSu6a5XVd1zP+dwjg+qeXVnqrvq1gv3AYQQQgghhBBCCCGEEEIIIYQQQgghhBBCCCGEEEIIIYQQQgghhBBCCCGEEEIIIYQQQgghhBBCCCGEEEIIIYQQQgghhBBCCCGEEEIIIYQQQgghhBBCCCGEEEIIIYQQQgghhBBCCCGEEEIIIYQQQgghhBBCSNFgbgdAiEhXXvlLOZ3+a306HW/Qdb3azGYDiqKGTAYZAGRZKzt6pK5kMmmTc8lUGPoNWe5UJSkpy1qPpvk6GxpGdNx77y1ZN38XQgixEyUApOhcOPPWSj3EZui6OYmb5ljTzAzTdbOWc73cNM2gaZp+bhqaaeiKaZqMc3NA7SuKBlXzQ1ZUqKoPiqJCVjVomj+p+gLdmurvYJLUCbAuBt7NGbrB2UHA3Ctxtts0fXsffPD2qKBfnxBCbEEJAPGkpe+/rS0TNRebhj7T0DPjdSPbpOvZiJHV/YaRkQptX1X98PkDULUANN/f/qcFoPr8kCTZjl+hlwF7wbDH5NjDwLeByVvMjPzWww9/8rAdJyCEkEJQAkBctWzZbdWxvuwy3dAvMExjgp7NtOl6uiKbSdvyFJYkGb5AGL5ACAF/6Oh/+0OQZcWO5vPVxYC3AGzhYG8xiW9Ja8a61ffe0+dmUISQwYUSAOKo+fNvPFfXpWtMIzNLzyRHpNOp8EC76E+FMcDnC8EfjiAYLEcgVA5NC4IVy6ec851g7GUGttYA1pb5y16jeQeEEFGK5dZIitDFFy8PJuPsI7qZvTSbTk1MpxO1hp617TPHmIRgOIJgMIJguByBYDkkd9/s7dYPsL9ymK8yhj9lEsqLq1d/Oul2UISQ0kAJALHVwoW3zjay2ZsymeScZCI2xDR1Wz9jqi+AUFklwuFKhMur7BqvLxY6gA0MWGOA/X7M8NgrK1eutKf7hBAy6FACQAqydOlH2jIZ+RPpVHJpOpUYmc2kbH0iy7KKskgVQuEqhMoroSianc0Xu06APcuANYpk/v6+++4+5HZAhJDiQQkAGbD5828ebRjZz2aSqYuSyVgNwG1tX1V9KKuoQVmkFqFwBPQxtcQEsI4Bvzcl/uBD9939rtsBEUK8je6sxJIFSz810UzFP5VKxpamEv31dk3cO0bV/CiL1CBSUYtAqBz00SwQwxbGsZpx8xf33/+Zt90OhxDiPXSXJae0ZN7yESlufimdil+UjPdH7H7TlxUFkcp6RCobEAiW2do2+SdvMWAVTOWBBx74VLvbwRBCvIESAPJP5sxZqcjs4KdT6diKZDzaxrm9D32AIVRWgcrqJpRFasCKZo1eSTABPMcYvz+dUFbTigJCBje6+xIAwKJFn5iVTvevTMZ6L8hm07avpfP7Q6ioaUKksg6yrNrdPBm4Xsb5Lw0m3f/wqjtfcjsYQojzKAEYxK68cqXW03Pkc+lU/4pYtKfW7i5+xoBQWTWqa5sRKqsAfdw8iuFNbvLv9VT4H37ye7en3Q6HEOIMuiMPQu+b89GhCTP5g2QsukjXM7YvpFcUDRXVjaisaYKq+uxunohzhAE/02Xp+4/87I59bgdDCBGLEoBBZP7iFXMz8f7vJGJ9k03TsL19fyCM6roWlEVqIUkF79dD3JNhjD0Gg/3XAw/c8YrbwRBCxKAEYBBYvPi2mxLx2Jdi0a4mu7v5ASAYiqCmvhXh8irQR6rkvMKY9PUHfv7pxwFm/4eHEOIauluXsPnzb1mRSvZ/KRHrqxHR/j8e/NUimieewjcxhm+NHJZ4gMoPE1IaKAEoQXPmfOTOZKLvi5lUUsDieobyihrU1LfBHwjb3zzxurcY499MJ4Y+uHr1VfaPIxFCHEMJQAlZNP+222Px7v+XTETLRbQfKqtEfdMIevATAGwzY+Y3KBEgpHhRAlACFi36+HWpeO93+/u7hfTFB4JlqGsajlC4UkTzpLi9xSR+1wP33f1HtwMhhAwMJQBFbP7sG+em9cz/JWI9w20v2AdA8wdR1zAM5RU1oI8KOT3+LJdw50P33b3e7UgIIdbQXb0ILZm3fER/OvGreH/vFBGz+hVFQ23jUFRWN4I+ImQATMbYoxLX71y16p69bgdDCDk9ursXkSVL/tuXTr/1w2hPx4cMIyNgoT1DRU0j6huHUbleUogEA76nKeZ//PSnn+l3OxhCyMlRAlAkFi+87bZotOtbqWS/X0T7wXAEjUNGwxcIiWieDE4HAPbJB1fd+Su3AyGEvBclAB43b8nyEUZ/+rf9/Z0TRIzzK6qGusYRqKiqA30ciAgMeEKX9Nseue+zu92OhRDyD3TH96jp05er4XD6p7G+nutM07D9OjEGVNY0o65xGCTJ9u0ACDlRkgHfSCfjX1m9emXG7WAIIZQAeNK8RTcvSfT2PZJOxYWs51d9ATS1jEEoXCGieUJOiQEbuSTd8uB9d/zF7VgIGewoAfCQOXNW+hWp/dHu7oNLuSmi2ipDVe0QeusnbjPB2A8zicA9q1ffFnM7GEIGK0oAPOJ9Cz62OBrr/FUy0S+kzJ7fH0Jj61gEggKqAxOSF7abmeYNDzxw94tuR0LIYEQJgMvmzFmpcL7n4f7ezis4F/PWX1PfitqGNjBGW/QSzzEY8K10Mv5FmhtAiLMoAXDR+xYsnxnt73s8mYwJGYxXNB+aW8cjGI6IaJ4QG/FNJtgHH15110a3IyFksKAEwCWzZ934/f6+jls5N4Vcg/KKWjS2jIEsKyKaJ0SEFAdWjh4e/yZtOUyIeJQAOGzZojvrOpMdr8b6OoeLaJ8xCXVNw1Fd2yyieUKc8LTEcf399991xO1ACClllAA4aMGC5RfG+rofTaeTPhHt+wNlaG4bB80fFNE8IU46wEzpqgceuOMVtwMhpFTRWjCHzJ170w/6ug/9p65nhfTJR6rq0TJsAhRVE9E8IU4rB+Mfmjh5UWbThmdedjsYQkoR9QAItmDB8kg6lfpTLNo1WcwZGOobh6G6vlVM84S4jDP+26zP/PDqe+/pczsWQkoJJQACLZizfGZ/vPupTDoppE9eUXxoGTYegRDN8iclb6vJjMsf/vk9m90OhJBSQQvDBVmw4NZP9vZ1/EnUwz8QLMOw0dPo4U8GizESl1+97oZvXeF2IISUCpoDIMDcuTf9tLfr4D0iNvEBgIqaJrQMnQBZoSV+ZFDxAbhy8uRFbOOGZ15wOxhCih0NAdhqpTTngj3P9fUdmS2mfYbahjbUNgwV03yRC4dDqIiUoywcgj/gRzDoR9DvRyAYQDAQgN9/dPFFwO87uh0iAH/A//efT6fS4H/bczn1t/9OpzNIJlOIJ5NIJpJIplJIJlLoj8fR1xtFfyz+958hDmLsvkwidgtVDyQkf5QA2GTZ/NuqO5J96+OxHiEL8JkkoallDCKV9SKaLwqMMVRWRFBfV4Pa2mrUVFeivLwMFZFyRCJlUFzoETEMA339MfT1RdHXF0VXVy86Ortw5Egnurp7YQrZ1In8zctmll328MN3drodCCHFiBIAGyxc+Mkp/X3tL6VTsZCI9mVFRcuwCQgOovF+VVXQ1FiP5uZGNNTXoq62BrU1VVBV1e3QLDMMAx2d3TjS0YXDhzuw70A7Dhw4hEyGXlpttF2GdOGqVXdsczsQQooNJQAFmjfvI1f293U/rGczQuZTaL4AWodPguYLiGjeM6oqK9Da2oTmpka0tDShob4WklR6c1RNk6Ojswv797dj34GD2LfvII50dLkdVrHr4oy9/6Gf3/lntwMhpJhQAlCARfM/entXV/t/maYu5O8YCJWjdfhEyHLxvPVapWkahg9rwejRIzByWBsqKwdP78aJ4vEEdu3eh50792Db9l3oi/a7HVIxSjGTXfPAA3f+1u1ACCkWlADkad6Cj97T13ngq6LGeEPhCrQMnwhJKp2FGk2N9Rg/dhRGjhyKpsZ6MEYfvxNxDhzp6MS723fhna3bsXffQZpkaJ0BsI88uOrOn7sdCCHFgO7AeVgwb/mXu7vbP88FPfzLyqvRPPQMsCLvAmeMobGhDmPGjMDkieNQXVXpdkhFJ5FIYtu7u7D57a14d/tuGIbhdkhexwH+iQdX3f09twMhxOsoARiguXM/8v3ersMrADFvZeUVdRjSNhaMFe/Dv3lII6ZOPgPjx41COCxkXuSglEimsHXrdqxbvxm79+4DdQycEgdndz14/53fdjsQQryMEoABmDv3pof6utuvEXXjjVTWY0jbWBTjZQmHQ5h4xhhMnTIBjQ11bodT8qLRfqzf9DbWrt2I7p5et8PxJAZ8/YFVd93jdhyEeFXxPWlcMnvWjU9Eew8vEdV+ZXUTGppHo5iGxSWJYcyoEZg2dSJGjxpWkrP2vY5zjt2792Htuk14a8s2GiI4AQf+56FVd94OMOovIeQERfS4cc/s2R9+PtrTMUdU+1U1Q9DQPBLFcjl8Pg3TpkzAuTOmD+rZ+14Tjyewdv1beO31dYjSSoLjsO89uOrO292OghCvKY4njovmzL7x1309h5eJar+iqgGNLWOL4s2/uqoSM2ZMxfQpE6Fppbc0sVQYhoG339mOV/+yFnv3H3Q7HE9gnH/ngfvv/rTbcRDiJUXw2HHP/Nk3/6S7p/1GURP+yiK1aBk2Hl6/DM1DGjFn1jkYPWpEUSQq5B927dmH5//0Knbt2ut2KK5j4J9/YNXdX3E7DkK8gm7npzBv3k0/7O1q/6ioCX+hsiq0DJvg6XHz1uYmzLpgBj34S8C+fQfx55dfwztbd7gdirs4u5NWBxByFN3WT2Lu3Ju/0tvV/llRb/6hcCVah0/07Dr/lpYmzJ45A2NGj3A7FGKzvfsP4sWXXsPWbTsG6zJCDo5bHrz/rh+7HQghbqME4ATz5y6/u6en/euiivwEQhG0jZjkyQp/NTVVmD/nfEw4Y4zboRDB9u1vxx+ffgF79x1wOxQ3GJzjgw/df9cjbgdCiJsoATjOvIW3fLS34+APRT38/YEw2kZOgSw7v23t6QSDAcyZfS5mnDnF00MSxF6cA5u3bMUza/6M7t4+t8NxWpZzftlD99/9hNuBEOIWSgD+ZuHCW2f3dB56zjAyQp6AiuLD8NHToGg+Ec3nRVUVnHv2NMy64Bz4fJrb4RCXGIaB19duwHPPvYxUOu12OE5KQGJzHrzvzjfcDoQQN1ACAGDekuUj4h3dWzKZpJCnoCRJaBs5FYFgmYjm8zJ2zAhctGQ+IpFyt0MhHhGPJ/Dk0y9gw8YtbofipIOGLJ3zyM/u2Od2IIQ4bdAnABdfvDzY2dG/P5WICtmphjGgeegElEVqRDQ/YGVlISyaPxtTJo93OxTiUbt278Pjf3gGHZ3dbofilLcyfmPm6nvvGXTjIGRw895MNEetlOpqD29JxvuaRJ2hfshIVFQ1iGreMsYYzpo2Cddd8340D3E/HuJdlRURnHXmZKiaij179g+G7YjrZF2aXF15/i92735BzAQgQjxoUCcAs2cNWxOLdk0X1X5ldSPqGoeLat6yuroaXH/t+3HWmZOhKIP6khOLGGNoax2CM8aNRnv7EfSVfmnhUeXlWsWmjc/80e1ACHHKoH0aLJh303d6u49cI6r9cHkVmoe6W+WPMeCsaZNwzVWXoKKCavaTgQuFgpg6ZcLg6A1gmDFp8sLuTRueed3tUAhxwqCcA7Bw3s3Xd3UfWiVquZ/mD2LYqOmQZffyq0ikHO+/7H0YPrTVtRhIaTl8pBO/+vUfcOhwh9uhiGRw4H0PrbprjduBECLaoEsAFi26aVhvd/e2bCYtZDG+JMkYNno6fP6giOYtmXDGGFxy4UIEAn7XYiClSdd1PP/CK3jxlTdKuTeg25D06Y/c99ndbgdCiEiDaghgzpyVSirR/k46lRC2Hq+pdQxCZUIWFOSkaRouX7YE8+acD1X1VrEhUhokScKI4W1obm7Eu+/uRlbX3Q5JhIDEpXPHjj5/1ZYtLxhuB0OIKIMqARjaMuy5WH+3sPVvVbXNqKlzp8u9pqYKH77+CuryJ46orqrE5InjsG//QUSjMbfDEaFZVn0VmzY8/aTbgRAiyqBJABbMu+XOnp5DN4tqPxAsR/PQ8WAubJs3buxIXH/t+xEpp6I+xDk+nw+TJ5+BTDqD/Qfa3Q5HhBmTpyzctXHDMxvcDoQQEQbFHIBFi26b0d1x4BXDyAop8ysrCoaPOROq6uyYuyRJmD9vJmadf7aj5yXkRBs2vY3f/f5pZDJZt0OxW9xkxoyHf37PZrcDIcRuJZ8AzFjy8XLWdfhgOhUPiTkDQ9uISY6P+weDAVz7gcvQ1jrE0fMScirth47gwYd/U4o1A97xKebZP/3pZ0ruFyODW8lv/eaP9a8R9/AHautbHH/4V1VVYPmN19LDn3hKY0Mdbrnpg2hqKrlKk2NTuvRdt4MgxG4lPQdg/vxbVvR2HxY27u8PlGFIm7Pj/q0tQ/AvN1yFSMQ7GwsRcozPp2HyxHHo6OhCZ1fp7CXAgKkTJy3csmnjM4NqpyRS2ko2AVh06YqW6JEjfzRNXUgvB5MktA2fCEV1bnvfaVMm4OqrLqGte4mnybKMCWeMBRiwe3fpbLLHGJs7ferC+9evf6Yklz2QwadkhwASndHns1kxxX4AoL5xOHyBsKjm32P+3POx7NL3uVpdkBCrGAPmzT4PFy2Z78rKGEFqsia7D+Al8wuRwa0knybz5iz/arTvyCWi2g+GImhoHgMn7muMAUsWz8UFNNOfFKHmIY2oqa7C21u3l0rlwJGTJ7/SvnHDM2vdDoSQQpVcJjt//i3j+7qPbDKMjJDeDUlWMGLMWVA18V3/ksRw6UWLMG3qROHnIkSkrdt24JHVj0MvjcqBCRnS1FWr7tjmdiCEFKLEegBWSk0NB9/KpBPC+uabWsYgGBa/s54kSbjy/Rdh8iRhhQsJcUxNdRVaW5uw5e1tMAwxm3A5SOUwz6quPP/nu3e/UPS/DBm8SmoOwNy5+3+YiEdrRbUfLq9GpKpeVPN/J8syrr7yEkw4Y4zwcxHilOFDW3HDtZeXyCRWdk5za+h2t6MgpBAlMwQwb8nyEdFDHduEdf1LEoaPPRuaJrbanyzL+OA1yzByxFCh5yHELfv2t+O++39ZClUDE4akn0G7BpJiVTI9ANlo8glRD38AqG0YJvzhL0kMVyxbSg9/UtJamhvxoQ9eAU1T3Q6lUEHFVL7vdhCE5Ksk5gAsnL/8tt6ejutFte8LhNHUOkbocibGGC5fthSTJowVdg5CvCISKceQpga8tXlrsa8OGDVp8qKNmzY8847bgRAyUEWfAMyZsyKc6O981jCyQtb8Mwa0DJ0AVeDbP2PAxRcuxLQpE4SdgxCvqaqqQF1dDba8/W6xJwGzxs6Y/39b1q5Jux0IIQNR9EMA3Ew+ls4kha3Jq6gegkBI7Da7ixbMxlnTJws9ByFeNH7sKCy7dHGxFwtq1NLySreDIGSgiroHYOHc2+b39rX/GwS9PSiqhpZhEyBJ4vKkC847G3PnnCesfUK8rqG+DrKiYOfOPW6HUoizp0xa9NTGjc8ccDsQQqwq6h6ARKr7YW6KW4Zb3zQCsiysmjDGjxuFhQsuENY+IcVi1vln4+wzi7oXTDIZvktlgkkxKdoEYO6C5Z8SuebfHwijvELcmv+mxnpcftnSYu/6JMQ2Fy6ZjxEj2twOoxAzPvihb13pdhCEWFWUCcCcOSuVZLTnyyLPUd80Qlit//KyMK67ZlkpLIMixDaSJOGaKy9FfV2N26HkjXN8bcnH/9u5LUIJKUBRJgDA3h+lU4mgqNbLIjUIlVUKaVvTNFx/3eUoL3NuJ0FCioXPp+G6a5YhHBb29RZtWFVv5mNuB0GIFUWXACxe/KmqeKznQ+LOwFDXOFxMywy48v0XoqFe2MgFIUWvsiKCq6+4ROjkW6EY/9cbbvhKtdthEJJL0X3DUsne1XomI2xmXmVNE3x+MW8fF8ycgbFjRghpm5BS0tbWjEXzZ7kdRr4qdChfcDsIQnIpqgRg/vxbxseiXXNFtS/JMmobxExCGj60FfPnzBTSNiGl6LxzzyzaDbEY2IprP/yNUW7HQcjpFFUCkMmkHjFNQ9i0+eq6ViiK/TuVlZWFcOXlF0KSaMY/IVYxBiy75H2orS3K3nSVmUzoRGVCClU0CcDChSumxKPdE0W1L8kKqmqG2N+uJOEDV1yCcDhke9uElDpNU3H1FRcX64qZK66//ptU35t4VtEkAKlk7D7OxRX9qa5rFlL0Z9H8WWhrtT+xIGSwqKurwUVL5rsdRj4kk+GzbgdByKkURQLwvvm3Tor39wgrE3b07b/Z9nbb2ppx7jnTbW+XkMFm6pQJxTof4APXfPhbtMUn8aSiSADimbjYt/8a+9/+/T4frrhsKY37E2KTi5cuKMahNFky+efcDoKQk/F8AjBnzu0T4v09U0W1L0kKqmrt76K/cMl8VFSI3UWQkMEkGAzg/ZcuEVahU6Brb7jh26PdDoKQE3k+AeB6789EbvhTVTsEsmLvBKNxY0diyuTxtrZJCAFGjRxajFtnyzrMe9wOgpATeToBmLNo+dhYrPdMUe1Lkozq2hZb2wyHg7js4sW2tkkI+YfFC+egqrLC7TAGhAHXX3vjd8SUGCUkT55OAHgq+wPTNIS1X1HVAFmxd+x/yaK5CAYDtrZJCPkHTVNx8YUL3A5joBTo2dvdDoKQ43k2Abj44uXBZLxXYC1Qhkqbx/5HjhiKSRPH2domIeS9ivG7xsBuvHL51yJux0HIMZ5NAOJx89vZbEYW1X5ZeRV8Pvtq/quqUoxvJYQUrSWL5iIQ8LsdxkCU+VLKh90OgpBjPDuf9pyzr4qlU3Fha35aR0xG2MYtfxfOvwCzZs6wrb1cGM9CS70Ff3ILlMxuqNn9YEYMkpkAZwo4C8CUy5D1tUJX25AKTkZGGwUwz+Z8hAzYG2s34He/f8btMAZiVybZNmr16qvEjW0SYpGwXfUKsWDeR2/u6twn7OHv8wURLrNvElFdbQ1mnneWbe2dEjfhT7yBsr7H4U+8AWamcv6IL7nx7/9tyBEkyy5ArPxiZPzerU0iv7UZ8vMvQHlnGxCPHf0/FQVmawv0RQuhn+NcokX+Qdq1C+qzz0PavAWstxfgHFySwBsboc+dDX3eXMDhLXzPnDYJ6zdswd59Bxw9bwGGKf49SwE87nYghHiyB+D8867bk4j1topqv7FlNCqrm2xr78YbrsKwYcLCBbiJUP+ziHT9FEr2oC1NZgLj0VNzC9KBKba0Zwdpz16ov1wNefOW0x6nL1qIzLVXOxSVNbLeBV/qLWipLVAyB6HoHZCMPjCeAeNpmMwPLoVhymHoaiN0tRFZbSiy/jHIqt4uFS3t3w/10d9AXrf+tMcZ06Yi/bEVjicBBw8dwY/uvR+cc0fPmz/+7IOr7qbxQuI6zyUAC5Z8fGr3wd1viqr8J8sKRp1xLiTJnukFY8eMwHVXL7OlrZNR09tRc+jrUNPbhLSfDM1Ed/0dMJQqIe1bwTo6of32McivvgqY1m7i6Y/fBmP6NMGRnZ5s9CLYvwahvqehpbfm3Y4plSMVmoZUcAaS4XNhyPYNTRVCOnwYym8eg/L665avS+YDV0Jf8j7Bkb3Xr3/7JNZt2Oz4efNlApMfXnXXxtxHEiKO54YAsvH+74os+xupbrTt4S9JDAvnX2BLWydT1vsrVHT8CIxnhZ0jEH8JDXs2o7vhHiRD5wg7z8mwzk6oj/8B8ksvgxkDGxJV1jznWgIgmQmU9TyCsu5fQuJJG9qLItj/AoL9L4AflpEOnYlY+VIkwrNcmbPBuruh/u5xyH9+CWyARbjUZ59zJQFYMP8CbH57GzIZcd8VO0mM3wrgVrfjIIObsFn2+ZgzZ6WSiO/5kWkYwu56Tc1joKiaLW2ddeYUTJsiYrdPjoqOH6Ci62dgEJcMHSPxFEKx52Ao1cj4xW+4wjo6oP1iNbSf3gd5126wPLpuWSoFfekSAdGdnpbcgrr9n0Aw/goYdNvbZ+BQsgcQjL2AUP/T4JKGjG8UnKh/y6JRaI/+Br4f/wTSzl35XZdEEvriRYDq7Pa9Pp8GXTewe89+R8+bPzZq7Ogl392y5Sn7P0SEWOSpHgAJ7XfomYywmALBMvgC9swt1DQNc2eda0tb/4yj+tDXEIr+UUDbpzutiarD3wYzU+ivvFLIKVhHJ9Q/PAH5zy8O+M3yPW1lMzZFZV0o+hSqDn9TaI/M8ZRsO6oOfxtlvb9FZ8NnkfWNEnIelkpBfvZ5qL//A1iy8B4NpDNAwPliWBecfzbWrtuI/v644+fOQ0T1G5cCeMTtQMjg5akEIJtNfFRk+xVVDba1Nev8s4XsTBbpvt/5h//fcVR2/gC62oRk+Hz7mk1noD32O8hPPT3grn6vCMRfRfXhrwECh6dORU3vQMPeFehquAeJsvn2NWyaUJ9ZA/V3jwPxhH3tukTTVMydfV7RLAtkDB8GJQDERZ5ZFL7o0hUt8XjvUFHtM8ZQXllnS1vBQADnnmP/+LM/8ToiXT+zvd0B4SaqD30ZamafLc2xZBK+b34byhNPFu3DX83sRvXBL7ny8D+G8Qyq278Cf+JNe9ozDPj+63tQH/5FSTz8j5k+dSIqK4um2N7Cq//l2/ZuRkLIAHimByAbTX1V5K5/ZZFayLI945LnnTMdmmbPPIJjJDOBqkPfHPBDxlCqEC9bgFToLGS14TCVCoBzSEYftPQ2+OOvI9T/LCQjOrBYjnwLh5v/C4UuFFFWPwp5+/aC2nAVN1F96BsDnuxnymVIhC9AKngmsr7hMJRqgDPIRg+UzB74E28iGPszZL3TcpsMOqoOfxN+b2KyAAAgAElEQVTtbT8DlwqrgCc/9TTkjaU3CV2SJMw872w8/oei6AWQZNP8IICvuh0IGZw8kwCkEvFLRbZfUVVvSzt+vw8zzp5qS1vHi3T+HxT9iOXjDbkCfTU3I16+GJydkNgwwFBqkFRqkAydh76am1HW+yjKu+4H49bGzn2J9Qj3PYlYZOlAfo1/ZnKoL72c/897QFnf76ClrC8vM6UgotU3IFZxGUz23nFwUy5DVmtFMnwBemtXINS/BpHOeyHr3ZbaV7IHEem6D721hY2WqS++VNDPe9mZ0ybixZdfQ2+v9aTXNRz/AvCvAaxYihiQEuKJIYCFC1csSiXjYVHtK6qGcLk969zPO+dM+P0+W9o6RskeRrjvd5aPT4bOwaGh9yEWuei9D/+TMKUQ+qpuwKHW70NXrRdAKu/6WUET3lhfH5BxfrKeXZiZQnn3zy0fn/GPw6GhP0e08pqTPvxPxJmKWPkStLfdP6A5F2V9vx5Qz8FJHbaebBYbSZIw81wHKnPaY9QHP/ifImYTE5KTJxKATDrxr4C4BLi8sh521Dzy+3w4R8Dbf3n3A5YftPHyRegc8pW8isVkfaNxuPUHyFpMAhT9CMJ9fxjwef7O7xvw8jVzzGjoZ07P/5w2Kuv7neU381RwOg63/Dd0ZeDzTEw5jI7GLyMWucjS8cxMo7z7oQGf55+EBjaB1WxtgT5LXM0Lu02fPgnlZcLeKWzFZX6t2zGQwckTCUA6ETtbZPvlkRpb2pkxY6rtu49JZtTyrP9UcBq66j8LXkD5BkOuRGfzt2DI1vZCKOv5BfJNznggAGPECEvHmmPHInXP3Uh99jPgbW15nc9W3ES451eWDs1qw9DR9BVwVsC8ECahu+4OJEPWXgbD0T9AMmJ5n86cPMnacUPbkP7Ex5D60r/BmDA+7/M5TZFlnO/E/hx24PzylStXeuJeTAYX1z90CxeuWJTOJO3tUz+OomgIBAufFSxJEs4+0/66+aHo05bG5Q05gq6GL9hSGS6rDkFP3SctHatkDxY081y/+kpAOfVUE+OM8Uh/7h6k7rkL5ljxRYis8ifegKIfznkch4LOxi8WPCkPwNEkoOGzlnp3mJlCqH9N3qfKLLsMPHzqN2RzxHCkP/UJpFZ+EcbUqY4UIrLbmdMmwuezd7KuIA1bd4ZohyviONcTgEw6cafI9ssqamy5d004Y4yQLkWrXezR6httrdefKJtrufRvqIBhAGPkSKQ/cxfMYUP/8X/6NOjnnYvUv/0r0nfdAWO0mAI3hQhHn7B0XKziMmR9w207ryFH0Fd9k6VjCxme4dVVSH/x8zDOGP+PzXt8PhhTpyB956eR+sLnYVjsJfAqTdMwdbKISp32k4H3ux0DGXxcXwWQTsVtrDjzXuWRWlvaOfds+9f9q9kDUNM7cx6nK3WIVVxs+/l7a29FIP4acnXxB+KvgvGspQmHJ2OMGgnj374A1hcFSyVh1tY6vmPcQDCeQSD+l5zHcaYhWn297eePRZaivOfBnDs/qultULKHoKv5Fbgy6+qQvusOIBYHSybAKytP21tTjM6dMQ2vvbHO8zsFcrArANzldhxkcHH1LrxgwfKZ6VQyKKp9WVEQKrM21n06Lc2NaG5utCGif+aPvWLpuFjFsoLG/U8lqw1FKph7wp1kJuBLnH4rWCt4pBxmfb2nH/4A4EusAzNTOY+Lly+wPJdiQJiE/srLLR0aiNuwzDIcAq+tLbmHPwBUVVVg1MhhbodhAR967Ye/4Z29ucmg4Oqd2Mjqd4mc/V9WXgM7Zv+fO0PMrPRA4jVLxyXK5gk5PwD0V1h90OR+Iy4VVn9XW8vynth2eK6l+R5He3DI6Zwn6PtrO5PRMABxlKsJQCoVny2y/fKKwrv/Q8Egxo8TMEbNTWjJLTkPy/qG593Fa0UqPAOmlHtJmC+1SVgMXuNP5v5dTRZAOjBZWAxHd2Ycm/M4LbXZ1RLFxWD48DZUVw182azTGCgBIM5yLQFYuvS2tlQyLqxoN2MMwXDh3bOTJ42DLNvf/a5mdkIyc+9alrC4LCxfHDLSwdw9j2pqh6Vu8WLHzBQUC/MyUqGz8p4TYVUylHt6jGTEoGb3CI2j2DEGTJ18htthWMDPuPrDXx3qdhRk8HAtAUgns7eJ7P4PhiKQpMIf3KJmEftSWy0dlwqKXx2UCuYuw8CgQ8sUcU1/i7T0u2DIvWlRyoFVW4mQtfIYWuodwZEUv6lTJ0CSvL+UUTIUceNKhJzAtQQgk01cKLL9UFnhS+aaGuvR0GDPKoITKdm9Fo5iyPpHCjn/8VIBa0mOmrYSc3FTM9beptP+0YIjAXRtqKV5AIpNOzeWsvKyMIYNa3U7jJwYYwvdjoEMHu71AKSSQhd/h8oKH/ObNkXcGmI1k/thqis1lsbnC6WrLRYfNKWfAChZKw9TBkMTv4srZxp0Jff8D20QXBc7FEdNAL6AqgISp7jyQVuwYPnMbCYlbABVVhT4A2WFtSHLmDgh9ySsfCmZ9pzH6Jozbyxc8kFXcvd0KNkDDkTjLjWT+3fUlTpLm/3YIavlLousZPY7EEnxGz92lO0beQlQvX27hUk5hNjAlQTA1M1bRLYfClcWXP1v9MhhCAbF3eRloyvnMVltqLDzn0hXc7/RWt0Yp5hZ+R11n3N7FWQt9DRIRulfFzuoqoLxY71XdfJEpkTDAMQZriQAmUxyjsj27Rj/Hz9O3Bgv41lIRn/O40ylWlgMJzIsnEseBA8aKw9TXbFncykruJy7J0s2ogVt2zyYjCuCBICBUwJAHOF4AjBnzkollYwNEXmOQsf/JUnCmNH21Xd/T/tGP6ysgDAlZ7qZrZ5LMvociMRdkhHNeQx3qPsfAEzJSqFMbimhJMDIkUOLYIMgdv6VV/6ncx8yMmg5ngAoypFLDEMXth5HUTVoWmE7s40Y3mr7tr/Hs7L7H2D15m8PKw81q3EXM2amcx5jyk5eF2ufw8FwbeygyDLGjBKX3NvE7/PpZ7odBCl9jicARjZ9mcj2g6HCawuNE9j9D1i/WXMnEwALPQCMZ0u86hwHg577MM/1AFACMBDFMAwAiVnbqpOQAjieAOhGRmgFlUCwvKCfZ4xh3OgRNkVzKrkLzQBHl4E5hUvWzmWlSE6xsvq7mR68LuAWEhcCABgzejhUVWwVx0JxgBIAIpzjCUA2nRK6ti0QKiwBaB7SgHBY8Np7iyVknSy9a+1cDJyV3o5xx3AosLJ5lMRzDxPYRbL6GRBclriUqKqKYUPF13EokNga4ITA4QRg8eJPNqbTSWGD64xJBa//HzF8qD3BnIbVGvISTwqO5B+Ymch5zNG3Ue+XUy2EpQTHwt/KLsy09hmw3FNAAAAjhju3lDNPjTfc8DXvly4kRc3RBEDPJK4XWf/fFwhBKnCv+ZEO3BgsT+yysFmQXSQLDxoOzxdRKZiVuRBWNnGyi5XrAlj/TJGjnPieF8pkMg0DEKEcTQAMPSt0fWuwwPF/TdPQ0tJkUzSnZkhl4Mi9UZHksTdNQ/X+lqqFMuTcO0h67bpwyDCkwnq+Bpu6uhqUl4XdDuO0TA7xO06RQc3RBCCrp4QW4/YHC7sJDh/WUnAPgiVMgqnkftDI2SPiYzl2LqMn5zGmVPoJgKnkLiKlOHhdJCvXRamwtJcD+WfDh3u7h53RREAimKN3jUw2JbSEmj9QWEbv5LigKeeuvKdmdosP5G+sbPTjZAU8txgWroticcdAO1jZNMqQS/+6iDBi2FC3Q8hlEsBLe9INcZVjCcD8+Z+r1zNZgVPIGXz+wtbND21zbmZwVmvOeYyaduZBI5kJKHpnzuN0B3bAc1tWzX1dZKMHkpm7YqAdrGxPbGW/APJew4d5/u8Wvvbab3u7m4IUNccSAIl3Xix0AqAvAFZAN6imaairde5NytImL2bUUtd8oY6+/ee+NlmHdid0k9Ukx4nkTDLjkPXcm0Y5tWtkqSkvL0N5ucfnTsjmGW6HQEqXYwlA1jRmimxf8xe2dn/IkAZIknO9bVZ3+tNS74gNBICW3m7pOCd3J3RLxjfU0nFaepvYQACo6R2wlph5f0a7V7U0N7odwmlJjFECQIRxLAEwDX2iyPb9BXb/O30jyPitfa/98b8IjgQIWDiHKQUHRQKg+4bDtFDq15dYLzyWQPxVS8dlAvSMyFfzEG8nABygi0uEcSwB0LMZoa8pvgInALYMEb/873i6Wg/DwqS6QOwViBw6YWYa/sQbOY/L+McNipnmHDKy/jE5j/Mn1grfgjcQfznnMbpSC12pFRpHKWtpdvZ7P1CUABCRHEwAUrnXvRVAK7AHwI03gXRgUs5jFP0I1PQuYTH4k2stlQG2EmupSAUm5zxGMuPwx18XFoOa3W9pnsFgui4iDGmqhyznrsnhFgaMX7lyZeln3sQVjnywli69rS2bzQj8ljH4fPknAJHyMoTDzu28d0wyZK3cdyj6tLAYQtFnLB2XDA+e0uTJkLXl1+G+J4TFELR4zVPh84TFMBgoioK62txLP10U3LY3MtTtIEhpciQByCTN80W2r2k+MJb/BL76OnfWUSfD51jqVg9H/yBkYyAlewiB/j/lPM5QapDxid0i2Usy/rEwLBQECiRegZo9aPv5mZlCuPe3OY/jUJAMUrG4Qnk8AQAzzGFux0BKkzNdS0wX2k+paoXVQa9zKQEwpXKkgtNzHicZUZT3PGz7+SNdP7G0BW68bB5KfROgf8IkJMJzch/HTUQ6/8/205f3/gKy0ZfzuFToTJiyx5exFQG3vv+WcYOWeRAhHEkAdMMQ+vqoaoVtUlPr4htArPxCS8eV9zwCNbPPtvP6E29a7v6PR6zFWEpiFn/nYP9z8CfW2nZeNbMP5d0PWTo2FrnItvMOZk7W/8gHA6NCD0QIRxIAw9CFfoBVtbAegAYX3wCS4Zkw5Nw19pmZQk37l2zZIljWO1F96MuwsrogHZg4KJb/nSjrG3l05UNOHNWH/gOyhUqKuUg8iZpDKy0N9xhKNVKDaF6GSHV13h4C4IxRDwARwpEEwDTNBpHtKwX0ADDGUFPj3g2AMxX9lVdZOlZNv4uaA58vKAmQ9S7UHfi0pQpzABCtui7vcxW7Pou/+0D/picj8SRqDnwOaspaUab+yqvBIbCy9iBSWRGBpqluh3FKnHPqASBCONMDkM0IXQKoarkLt5xKJFLm+pc/VrkMhhyxdKw/sRb1e1fkVYrWl9yIhr3LLf9sxj/W8kqFUpQMz0TWP9LSsWp6Dxr2LocvuXHA51HTe1C/dwX8iTctHW8oVeiPXDLg85CTY4yhpjr3pE+3SAD1ABAhHHmF0PVs/k9oCwqZA1AZsfbgFclkAUSrb0Tlke9YOl5N70TD3o+gv/Jy9FdcmbOgkJrZi/LuhxCK/hHWiwox9NSssHisRaYJ1t0DcPP0xyXiudviAOvoOPW/yzJ4ZSVQwOqQY3+Duv13wMrfTdY7Ub/vdsTLFyNadV3OvRNkvRNlvatR1vPogIoK9VXfBC4VNux1ItbXB9bbB3AOSAw88N6vLIv2W2urswvIZk7xjxJ4VSXgxLbbA1ARKcfB9sNuh3FSHGhZuXKltHLlyhxfHEIGRngCsHjxp6qOtL8r8NvOCpoDEImU2xhL/vojlyAYfQa+1FuWjmc8i/LuR1DWvRrp4BSkA1OR8Q+DKZUD3IRs9EJN70Qg8frf9hMYWDXBWMWFSAdzF8SxxORQn3gC6pNPA/GYPW1mMgjcdc9pD+GVlchedgn02bPyPk0qOB3x8sV/S56s4AhF/4hQ9KmjPSjBs5H1DYchVwBMgmRGoaV3w5d4E77EekurMI6XDk5BLLJ04L/IKSgvvwr1t4+dPpkaIP+X/+P0B4RDyC5ejOyFSzyTCEQinl5Nob2zN9AAwP41p2RQE54AGEZ8vMhStpIsQyrgJlJR4Y0EAExCd8NnUL/3o5BMC2/Ax34MBvyJtbbORM+qzeitvtW29tQHHoT63PO2tWcV6+mB9rOfg/VFkb0k/xnzPXW3wZdcDyV7aAA/xaGl3oaWejvv857IlMvQXf8Z2LUkU1nzLLQHrK04sFUsDvXRX4MdOYLMR/7F+fOfREWF+z2Bp6Ur9aAEgNhMfPptyEInsChyYTlMhUd6AICj2+12Nq50tea+KYXQOeTLMOXC9lY4Rtq3H+rzL9jSVr6Ux34H1tWd98+bUjk6hnwdplTYjpOF4JDR2fglZFWbatfHY9BWP2pPW3lSXnwJ0lbxuypaUeHtHgBIML29VIEUJeFPGg6jWWT7klLYBD6vdf2lQmeju+4OV5IAUwqho+mryGr2FR6TN2w4Oq7sImYYkDdtKqiNrDYUnY1fsn3s3QoOGd0N91gqGmWVvHkLkE7b1l7ecaxb53YIALz1InAyEoN3ZymSoiU+AWBc6HZbhfYARMq9lQAARwu8dDZ8EZw5tzrBkCtwpOU79o37HxO3PpwhEosVPvcgFToLR5q/7Wj1PS750Nn0ZcTLF9naLuv3xnWR+m2aE1Igr8wFOhVuMkoAiO2EJwCmadaLbF+SC3tIhlzYBMiKRNlcHG75PrJai/BzZfxn4HDrj5Dx5d4Gd8BqvbFVrVlvz8cw7Z+AQ60/QTow0Zb2Tifra8Oh5h8gKWDDH15fZ3ub+TAbhN4eLAsEAgXtJyIepyEAYjvx/cymIfQJIBcwBMAYg9/nfJeuVRn/GBxu+zGilVcJ6Q0w5TL01H4Mh1r+B7oqZjtk/eyzTrqkzEm8shLGJPu2o9DVehxp+S76apYLmRfAJR/6qq7DoZYfW65DMFDmuLG2JUV50zTo53ljN0NJYvD7CyspLhKnIQAigPAEwDBNoUWAChkCCPh9kCQvZ/1HawT01t6G9qGrECtfAi4VfpMypXJEq67FwaEPo7/ySqHzDXg4jMwtNwOaJuwcpxUKI33bCsBn7/k5ZPRVXYf2YQ8jWvkBW4YFuORHrOIitA99AH01y2251qc8lywjs+Kj4GUuDYGpKjK33AzuoQI8Ab93XwYYoyEAYj/hywA5F5sAFNID4A949wt/Il1tQnfDPeg1PoZQ/zMIxF+BL7kBzLQ2kcuUy5AKTkcyfAES4dnOzi+YMhnJL30Ryp9ehHzwIBCNnvQ4rvkANf+PJEunAP3ounoeDsMcMQL6vLngAsd3DTmC3toV6Kv+CIKxFxCIvQR/Yq3lpZxc8iMdmIxEeCYSZfMdXWlgtrUi9eV/h7LmWUg7d4I5MV/D74fZ2gp93lzPdP8fEwj4gR63ozgFblICQGwnvhIg50L71Zgk5/2zQZe7pvNhymH0VyxDf8UyMDMNNb0DWmY3ZP0gZL0PzIwDTIYpBWHKFdC1VmS0VmS1Ea4uL+SNjchefRWs17srLlzyIV6+GPHyxWAwoKR3QkvvhpLZB8nsg2QmAHBwFoAhV0DXmpBV25D1j3I0GXtP3JFyZC9f5tr5vcTL9wMOZs+6XEKO40QPgNBzFDJxJxDw7pifFVzyIRMYj0xgvNuhkONwyMj6RiHrG+V2KGQAAkHv9ghKgEtjaKSUiV8GKHjLskISAFWl7xQh5Ci1gOEn0TgY3ayI7RwoBIT8++gtYAV0a8uyN+qQE0LcpyjeTQAAsUOpZHAS/wTkXGgCUMg+AIosNDRCSBGRPbIx0SlQDwCxnfgeANMU+5QtpAdAoQSAEHKUl18IGCUARADxKS/jQs9RyBwA2cNfeEKIsyQP3w84JQBEAPGlgLmHEwBvd/kRQhzk8R5BmgNAbOfEHAChpfaYTXujE0IGN4+/Dng8PFKMhH+oJEkyRbbPC9hq1jCFhkYIKSKG4en7gft7N5OS40BWKRkiWzd5/s2butDQCCFFJGt4+n6QcTsAUnqEJwBM4p7tAdCpB4AQ8jeGtxMA6gEgthOfAHAm9ltVQAJgevsLTwhxkJcTAEY9AEQAB5YBih0CoDkAhBA7eHlI0KQEgAjgQALAdJHN8wLmAGSzQkMjhBSRrOHd+wH1ABARhBe/Zgye7QFIJJM2RkIKZXITB8129Jo9iPIY4mYcnHEEEUSQBVApVaJFaYbiwC7W5J/FeAxdRheSPIUUkjA4h1/yQYOGKqkSVVJV0S/JTSRSbodwGozmABDbCb+TSmBCM1ezgKU7qaSXv/ADJ297F9K2bWB/S2y4psEcPQrGmDGAR4sedZldeCOzFu9mt2O7sRNpfvprojIVrXILRiojMV2bhla52aFI8yft2w958xaw/igAgEsyzBHDYZwxHlBVl6M7ucPGEWzKbsIW/R3sN/Yjavaf9niNqWiUmzBWGYPx6liMVkYVXULg5fsBA6e3FWI78a9SktwnsnnDzOb9swkPf+EtMznkv74B7Q9/BNuz5+SHtLUi/bEV4LW1Dgd3chwcG7Ob8GL6JWzOvg0O6704WZ7FDn0ndug78VTqabTKLVjoX4AztWmee+DIm7dAeeJJyJu3nPTfeXUV0retgDl8mMORnZzJTazLrscz6WexWz/5Z+lUMjyLPfoe7NH34KnU06iSqnCB73zM9l2AIAsKithecQ/3CHKgy+0YSOkRngDITO4V2b6p5z9ul0ymwDlQQDVhV8kbN0Jd/SikfftPe5y0Zy/8X/8WUv/2r+BlZQ5Fd3J7jL34ReKX2KnvtqW9vcY+/CT+MzyTehZXh67EcNn9h6m0Yye01b+C9M7W0x7Hurrh++a3kfrC58CbmhyK7uS26tvwcOIXOGQctqW9brMbjyUfx5r0s1jqX4o5vgsgi90ZvGBJD78QcPBut2MgpUd4AsAlsZmrXkACYJom0pk0/L7iKrMt7dgB7Ze/grR1m+WfYZ2dUJ59DtnLLhUY2alleRark4/ixfTLA3rjt2qvsRff6v8OFvsW4uLAhZBcqJzK2tuhPvobKGvftLw8lSWTUH/3e2Q+ulxwdCeX5Vk8nPwlXk3/Rch1iZsJrE78CmvTa3FT+EZUSZW2n8MOnAOplHeH2RmXKAEgthM/B0CS7XmlOAXDKGyKQSKZKpoEQDpwEOpjj0F+Y21e9Q+kd7cLiCq3PrMPP4r/GLtseus/FZObeDL1FHYbe3Bz6CMIsoDQ8x3DurqhPv57yH9+ESyPpaXydneuSw/vxY9iP8aeAXb352OnsQv/0f9V3Bq6BSOVEcLPN1CpVAqmh5cFM0Y9AMR+DkwClNpFtl9o8Y5oXz+qKiI2RSMGa2+H9pvHIL/x14IKH0k9QkdjTqrdOITvxv4HvaZz5347+w6+2/89fKLs40KTANbTC/X3v4fypxeBAnqi0NMLmByQnBuLipr9+K/Y93DYpi5/K+JmAv8d+z5WhG7BWHWMY+e1ItofczuE02OM5gAQ24kfApDZ6QeoC2TohfUA9PVFbYrEfqyz8+iD/9W/AHa8naScHeOMmv34fvyHjj78j9lj7MX/xL6PT4Y/AY3ZO9OexWJQfv8E1OeeBzKFL3JhhgFks4DPmS3f42YC34l919GH/zEZnsEP4/+Lu8ruQLM8xPHzn0pvr9C5ygUzTVAPALGd8IFS2VD2imzfMPJfBQAAvb3eTACUZ9Yg8LkvQH75FXse/gBgOlfpLMOz+GH8f9FpuPfislPfjfsTD9raprL2TQQ+83mof3zKlof/Mcyha8PBcV9iFdqNQ46c72TSPIMfxu5FjHvnrdur94FjmEwJALGf+EJA5XybyGmAhm4A4ECeS8C82AMgv/QytAcftr9hB7c7fSz1eF5j/gwMdXIdGqR6hKQQACBhxnHE7MQh4xBMDOx3eCPzV4xRRmOm77wBx3Ii6Z2tUL//Q/sSsuNwh67Ns6nnsCn7Vl4/2yg1oFlpRjkLQ2IyYmYch81D2KPvgzHAel9dZhceTDyCW0I35RWL3fr6Tl/nwG2SwTvdjoGUHuEJwNOP/WDf9CmXcNM0BA1wcmQzGahafhP5er32xTc5tF89KqRpZto/y/tk9uh78Hz6hQH9TCWrwDz/XJzpm45KVnHSY+JmAhv1jViTeh4HjAOW216d/DXGq2NRJVUNKKYTqb/+TV6T/KxgQubg/7Nusxu/S/1hQD8TZmHM9c/Gudo5p5zBn+IprMtuwJrUcwO6Lusy67FeW48p6pQBxSRCrwdfBI5jBALlQodSyeDkSE1VVfWl0+mEX1T72Wwq/wQg6q0vPjvUDiZoPJI7NMfsF8nVMC3uAs3AsMA/Dxf7L4TGTj8GHpKCOFc7B+doM/Dn9It4NPlbZHjubvg0T+HR5G9xc+hGSzGdlK5D2r4j/5/PgTtQxGh14lFLf69jZvkuwLLAJQjkmEjpZ36cq83AOdrZeDH9Mh5N/AZpi7vX/iLxKCZEJrhe3tmLPYHHab/33lsKG+sk5CQcWSwtK4rQ1+xsOv/Jbd3dvd5a/pPN43vOGBAO5T7OgXLAm7NvWy7yIzEJN4Y+hMsDy3I+/I/HwDDbNwt3hD+BMAtb+pk3M+uwU99l+RzvOadh5Pf2H7IWHxO8AmCvsQ/rshssHStDxr8Eb8C1wQ/kfPgfj4Fhlm8mPlN+h+X1/j1mD/6UfsnyOUTp7PL0ELv4dZpkUHIkAZBk9YjI9jPZ/BMAwzDQ1dVjYzSF4Q0NgGLxbYgxGNOmIrnyC8ief37u4x1YZvZE6klLxzEwXBe4BmdpZ+Z9rjalDR8P3wqfheSBg+Op9NN5n4v7fDDr6iwfb44ZjfRddyBzxTJrPyC4HOUfU9Z+dwaGD4euxwzf2Xmfq0luwifLbke5ZK3q5FOppwc8h8BO/f1xj5cF50InUpPBy5keAEkSOn6lZwqr4HWkw0NLbH0+6LNnnf4YicE4+0yk/n0l0rd/DLytzVrbTOzlPmgcxA59p6Vj5/nm4HzfuQWfs01pw5WBKywduzHzVkGlbvWF83MeY4wbh9Q9dyP12c8c3ezHIi6wd6bX7MV6i2//83xzCkrKjqmTanFj8MOW9meImlG8mVlf8DnzdaTD6/PrJOoBIDhaOsgAACAASURBVEI40wMgqe+KbD9bQA8AABz22A0gc9WVMKZMfu8/SBL0c2Yg+eV/R3rFrTBbBrgTnuAegJfTr1g6rkaqwaWBi20770zfeRijjM55HAfHq5lX8z6PPn8+9PlzT/q2bkycgPTnP4v0Z+6EOTaPIjcCewD+knnd0pyMaqkalwUuse28Y9UxmKlZW33xYsa9YQBPvQCcBGcm9QAQIZyZeaNKm0U2n00X1gPQ4bUbgE9D+pO3g+3ZA2XLO0AyAV5ZCWPSJPDqAmayC+wB4OB4PbPW0rEfCF4xoDF/Ky4PXoavRL+R87jXMm/gUv8lkPL5W0gMmes/CH3RQkgbN4HF4uChIIwJZxS+mY/AHoDXMq9bOu6ywMVQbS6adHHgIryefQPpHJMP381uR6/ZhwrJ+aqcnu8BMGkOABHDkQRAUrTXRLZ/tAcg/1oAh4948wbA29qQtdq9b6U9gQ+ZXfou9PPccz2b5CZMUM+w/fytcivGKKOxVT/9Bkm9Zh92m3sK2jXQrK+HubA+758/GSZJQpYBdhpdlor+VElVmK5Ns/385VIZzvWdixdSfzrtcUe3iN6IWb4LbI8hF69+/49hprTb7RhIaXJkCGDNk99bJ8mysGXOpmkgW8A8gK6ubmQyg2CVjcBu5k1Za508C3xzLY0L52Omz8JESCDvQjgiiVoGuFm3dl3O950rbAfFCzRr12VjdpOQ85+OaXIcPtzh+HkHIJvJxNzZLYqUPMf2TNV8fqF1P1OpeN4/a5ocB9rdK43qFJFLzbZmc29NrDIV0332v2Uec4Y63tKe829n3xEWQ94EXZu3LVwXAJikTBRyfgAYIjehVqrJedwOfZcD5ZD+2eEjHR5P/tm21atX2ldzmpDjOJYAqIrPeomwPGSSiYJ+fv++gzZF4mGC5gDo0LHX2JfzuLHKGPggbuvlIAtghDI853H79P3Icg/d9AUOzeyxUJOhQoqgWRG7Mc8kbVLOY5I8iYOGs9/DffuFblZqAy50/hQZ3BxLACRZfVtk++l0YR0M+w54/UZQOC5oCGCvsQ86cm+HO0kT95Z5zER1Qs5jDBjYZ3insqqo6xI1o+jhuXdinKhMEDYsc8xk1dq136U7O99t/36PJ/6cUQJAhHEsAZAl5S8i20+lCusB2DsYegAEdTMf1K397QqZeGfVaHWUpeMOGt5J+JigBOCAxbdpq3+zQrTJbZaSjEOms1sUez3xZ5JJCQARxrkeAEXJvwybBZlUHLyA4cN4POH5LUELJmgIwMpNW2MaGuUGIec/XoNcb+lB02EKLU45MLKY69JhWpvc1ig3Cjn/8XxMQ6WF8sCHCyjUNFCpVBpd3i4BDIOJXUJNBjfHEoBnnvnBellWBK4EMKFnkgW1sWevd7qFRRD1pnnYyP0wbZabhM0yP54PPlRKJ99N8HhWYnaOmOvSYeZe3sbAUCdZL3FciCYLCaDVpMUOu/fsL+ilwQGZ9t20AoCI41gCAACa3y9mm7u/SRawEgAAduws7XobXNDdrsfMvZdCtYVZ4Hapl3Ov0e/jXurtEXNdes3cX7caqRqazcV/TqXeQgIQNZ27Ll7/vjPgnRdeWJl7cg0heXI0AVAUv7U1SXlKJwq7eezYucfrbwSeFLVQAKjKwlu5Xay80VopWlTsYjz3xNhaudaBSI6qYrk/A0mecmxjoB07dztynrxxLnTeFCHOJgCq8meR7Sfihd3Uo/0xdHR6uypYQQT0NHNwSw+aiIMJQNDCFrb9htCyFAMjKOmMm7l/x4Fs91soH/PnPIaDW0ooC3X0u+7t8X/OILSCKiGOJgCSL/iQyPaTySgKvZtu3+HtbsGCCOjeyPCspY1m/BZu/nbxsdy1BjLwUG0VQd1OKZ67Oqbfwt/KLla2bQYAg4vv9d6xY7fwcxTMkKgHgAjlaAKw5snvrVNUTVj/nmkYSBdYEMjr44IFEfCg0S3erFU4M84MWEsAODhM5E5cHCEoAdAtdKX7BRZmes+5LCaBWQs1JQr1rvcTgN5Ro2IeLFlJSomjCQAA+HxBoQtvEwXOA9i1ex+yWQ9VifM4Hdb+VgpzZuNJYCAPmtK+zlbG0jXJwR4Ai8mG6CqNpmlih/d7+l5buXKlRzJUUqocTwBkVVsvsv1kvLAEIJvN4t3tu+0JxmsEvGgyix8hbmGYwC5Wz8W42Op3brP02zk46dVk3rguu/fsRyJZ2JJh0RhA3f9EOMcTAEXRnhTZfjJR+ErDLe+8a0MkHiSgq9nqm72TY+5JpCwdpzizG3ZOopZnWrk2KW7tb2WHtIU5CYD43qLNbwtdjGQLDkYTAIlwLiQAwUeYoIp0AJBJJ2AYhY0hbt26A4bhzFKkYmf1IZrhziUAVh40EiRIAj+HXmDl2gy2BIBzjnfe8XxtHTOjSpQAEOEcvwM+9dR3uv3+YO4dSvLEOZCIFdZ8Kp3Gjl17bYrIS+x/09SYCtVCIZl+C0sF7ZIycz/UnJz9npOgHgArcyGSFh/KdrCyKgEAgggKi2Hf/oOI9ntoCehJcODN1T/5tLfXKJKS4MorkOoLvCGy/Vh/4d+dt0twGIAJGu8tY2U5j7FSLdAuceSuCFkm5Y7ZKaJGvMMWrkuCF1Y9cyBSFoZmJEgISuJqE2x+2/vfa8bxjNsxkMHBlQRA8QceFNl+vL/wh82WLe/SMIBF5RYepk4mAFbq/FtJWopdOQvnPOawg5sidRq5i2yFpZCwrYk559i8xfvj/xKwxu0YyODgSgJQFal/WOTGQJl0EplMYWObiWQSW7fttCkirxDzJ6+WqnMe0+7gLm+HjEM5j6lgEQcisUrMdbGy+16f2YcEL6x2hlXtFq6Llc9Svnbu3Iu+Pi/tAXFSic4K38tuB0EGB1cSgNWrV2b8gfABkeewoxfgzfVv2RCJhwhKuRqk3JvvdJvdlkoGF6qf9yNmoVvbyoZBjhF0XWpkaxswWUmY7GAlAaiVxO1NsG5DUXyfX3zye7c7NzGDDGquTYPWtMALItuP2zAP4N3tu9Df79wYqXhinjT1srXtZA8YB4Wc/3hWHjKA9ZgdIWgSYL3Fh+lBQ2htLgBAjMctJYB1gjYnSqcz2OL92f8AZzT+TxzjWgIgKdL/imw/Husp+L5qmiY2bNpiT0AlrEVusXTctqz4CVjvZLdaOq5RahQcifuGyM2Wljq+rVv7mxViu27t2rda/CwN1Ka33imKCp8m45QAEMe4lgCsWXPvS6oWELY43NB1pJKFj/etK6FhAFEFZxrkeoSk3Eu3tuhvCzn/8TZmN+U8xgcfhihNwmNxm49paJAach63ObtF+Ba8GzK5rwsAtMmtQs6/bsNmIe3a7ODDq+609ocixAauVkIJBMNvimw/2lf41r5HOrqwZ6/Q6QrOETTWzMAwTB6a87g9xl5ETXFbvfaavZaGGYYpQyG5+9F/L0HJ2XBlaM5jUjyF7foOIecHAJOb2JTN/QCukioRkeyfnHnkSCf27S+C7zBjvxG3WJeQ93L1LihrvntFtt/f22FLO6++ttaWdkrZOHVczmNMbuK1zOvCYlif3QhuIcsZo4wWFkPeBN32xyljLR23IbNRTAAAths7LI3/j1fHCzn/K6+tFZVf2Uoy+a/djoEMLq4mAM+tafy5omnC9v7MpJNIJwufef72O++ip6fwPQZcJ/AuOFmdaOm4VzKvWnpIDxQHx5/SL1o6drJmLdZSME4da6m34y+Z15CGmMnnz6X+ZOm4CeoZtp87kUxh46ai2FW3a9+++J/dDoIMLi73g640A/4yoYPsdgwDmCbHG3/dYEM0patGqkGjnHtiXbtxCG9m1tl+/o2Zt9BuYTZ7rVSLJtmL4/9ikrMgC2K0MirncQmexJ9TL9l+/najHRv13L0LPvgs91YMxF//ur4oJv8B7LEXXlgp7GWIkJNxfSBU0wI/Fdm+HQkAAPx13UZkMsVwI3HP+do5lo57LPk49P/P3n2HV1Xl++N/r9NbOgkhkFBDEQsI9gYWih0dnOY4iAoIOlXvnblz534z872/O+V773hn7GDBXrDQRAQU7KKCqBQhpJCQ3k6ve+/1+yPGQQSSnLP3Xvuc83k9D888z5iz1ifJyVmfvcpnQb3POhkyXo2uHtDXnmM/S7V+1aTlBbjn2Ab2Pb8e3ah6rYaXIq9AGcD1zNNsU2FnNlX7VhQF29MkcWeMpv+J/oQnAJIy7EGzxabZZfGxSBCxWOqVziKRaNofCWQaL4SebT9rQDfQtSsdeDWyVrV+X42sQesAKg2aYMK5tnNU6zddTLFNgZP1X18/zCN4MvSMaks078TexZ7EwE5+nGMfWPI4GHv2HYDfr92mUxUFLCz0puggSPYRngBs21YlOV0eTQ8iB73qzAK89/4nUBTNchUdaJsAeJgH023TBvS1b0W34r1Y6hVP34u9jzejWwf0tdNspyNfg13mqtAwObMzGy60XzCgr/0i8SVWq5Cc7U3sw4vhlwf0taMto1BpGZdyn0fiHHjvg09VbVND61aurNLvXmZCviY8AQAAh935qJbt+1Q6DdDd402XDUXHpsNO6LmO2QMqPsPB8Uz4eWyJJv/gszn6Jp4JPz+gJ1YTTLjSMTfpvrSmVY2GPpfYZ8I2gGubAeCN6Ga8GH4JCpJLdnfEd+Kh0IoBL/PMccxKqp8T+erAQTQ361PiOFVMYatEx0CykyESgM1vlt1jtdk12wATjQQQVeE0AABsfeeDNJ8F0NZQcwnOsp4xoK/l4Hgp8iruCz6ETrlrwH10yl24L/gQXo68OuDp6nPsZxmr/r/Ock05uMx+6YC//q3YNvx34G9olA4P+DVBHsJT4WfwSOhxxPnAanxVWsbh1AGeIBmMt9/5SPU2NdIViwU3iA6CZKf+F2x1UaU4XQs+TMQ7BjZPmQRvTxtKnf1fj9qf7m4vdu/Zj1NP6f/ce6pYZxcs770H1toGppy4UhtraOy/vYAf9gcePPZ/TCQAtwfyhPGQzj4LsA7safFYrnNdiy+kLxFSBrb3YndiN/5PYh+m2U7HWfYzMN5cCetRT6txnsABqRofxz/BjvjOQVWuy2E5mOe8ZlDfwwmFgrC88x5MjYfBpBNvDDW1DWz2yfbgw2DmY+TjiQS4wwllzGjI558H7ux/Lf94ZjtmYXvi4wEnW7VSPf4r8BecbJ2Mc2xnYbJ1EuzM8a2vUaCgVqrDp/Ed+DA2uKOEJpjwA9cNql//e6C6Fk3p8vTP+ZOrVlVpVhGVkBPRcvPxoFx88bILezoPva3VPLXZYsH4yeeBsdS/5eLiItx5+wJV2joe8+dfwH7/g0Bc/88GZfhwxO76JXhB/9fJHs8H8Y/wZOjppF5rggkl5mJ4vr7PPsiDaJc7kp6SvtWzENOtpyf12u/E1tAA+//7G1hA/81lvCAfsV/+AkpF8vXy90sH8PfgfQPamX80BoYiUxFyTbmwMDNCSghtcnvSJzqucl6BKzRYllnx2HNoaEyDyn8AmGKa8vTTv06Powok45hFB9Cnru6TQ2PGTP2FlIg7+v/qweOKAocrB3ZH/zXr+xMOR1A8pAhDSwZ23epgMb8f9j//FSwm5lZQFgjAVFcH+YLzk26j3DwCfu7HIblh0K/l4AjyELqVHnQrPQjyUNI70y+xz8RljkuSeu3RmCzD/qe/wtST+lXTSfUfjcL85ZeQZlwEmJP70x1iKgIAHBjg5TxHC/MwepQedCndCPBA0knZBMt43Oj6kepJdHVNHd55b7uqbWqFAZ89/dRdfxQdB8lehtgD0Mdmdw9s23CSfN3qTQtufutdSLI2F6iYd34GFolo0vaAYzhQDVNNbUptfN81f0BFaLRysnUyrnfOU609Vl0NU3u7au0lFUNnFyyfpFaa+nLHHJxlP1OliAZvhHk4FntuHdBm0cHgnGPLloFVgzQG9oToCEh2M1YCYLP9GzObNdsOHfB1QUqoM6Xe0+PD9u3qV7QDAJNBLi4xNfa/r+BEzDDjDs/tmGzRpsb7iZxmOwWL3eoOMkb5vbDGwc+qfOv1YPip80ZMs01VKaKBG2Yqxc9z7oCLpT4Td7Sdn+1Gc6vYBG0QEjFz/FnRQZDsZqgEYNOmh9pdztyD2vXA4fOq9wGx7d0PEdbgSZ07NVkFGTxb6pXZbMyGpTmLca5dnwI8DAwX22dgseu272wkTFUqG/BUZbOn3ISJmXCreyGudFyu+ia845lsnYS7c3+FHJajetvxeAJvblO/lLGG1q96/N/UOZ9MSJIMlQAAgN3p1nRNrKezSbWaK9FoTJPjRsro0aq3OWgWC+RJ6tRmN8OMm1w/xm3uhZo8+fXJNeVgmWcJbnB9T/XpZQDgo0ap3mYylJPVuTSHgeFK5+VY7LlFk2t4+1iZFVc5r8Ay9+2a/f7f/+ATBAIhTdrWAgceEB0DIYbZBNinrm7HF6NHTf21JCVSf8w5BlmW4HLnwmZX52muqbkNp54yES41nw6HDoX5y91gPV712hykxNVXQp46RdU2y8zDcL7tPDAGNMiNSW8gO5qN2XCp42Lc5l6I4Rpe9MNzc8Ba24QuBchnnYnEHHUL55SaS3G+/VwkeAJNShNklX4vDAynWE/G7Z7FmGo9TbNTM/5AEKteWQ9ZTpP6HAx7n33yrruBP4iOhGQ5wyUAADB+wrlDo+GA+sXBvyZLceQVlqrSFuccXp8fp56sYl0AxiBNPx2srR2mtlZdKvj14S4XEtdeA+mqKwANPrBtzIpJ1ok4x342XMyJTqUTEZ5cFdQSUzFmO2dhgfsnOM16qupT/sciTzkNCIZgamjU/G6Fb7FaIV1yMeI33QiY1J/dsDIrJltPwgX282FndvQoXoR5cndoeJgHZ9vPxALPTbjYPgNu5lY52m9b//oWNDX3fxeEUXDG/v3Lz89LbScnISowTB2AI82YscARCviCUiKuWYIydsJ02FUoDNTnhzdcg5Mmqb/jnfn8MLW19RbqOeYXMHDXwKZVWegYU6Tx+Ddr/Tw/H8rQEsCiX30oDo5GuQn7EntRK9ehWWpFF+/6zjl1M8woNg9BqWkYxlnGYLJ10oCuH9YKi0TAmpvBosc/qsldTmAASxEsEgaUo5KJI38vHg+U0qGAXZNJseNqkVuxN7EXTXIzmuRmdCldCCPyrd+NizmRa8pFmbkMZeZhmGiZgDHm0ZoswRxLXX0jHn/yBS2vUlBbj4mj/Kmn7k6f9QqSsQyZAADARRctfMPf06Z+kfCvFRSVYVj5eNXay8lx42fLFsKh84d0JlK4giiiCCsRMAY4mRNO5tRtsxo5sTiPQ4Y8oBsGtSTJMh546Al0dHYLjWNw2J+fefKu34qOghDAgJsA+5hdlqVMg6nOPr6eVsiSetcPBAIhvPVW6rfbkd4d6i7mwhBzEYpMRXAxFw3+BmJjNuGDPwC88+5HaTb4Q5LNjDb/EcMwbALw1uvLa9zufM2uCVYUBT3dzaq2+dEnn6HxcIuqbRJCvquruwfvvv+J6DAGib38/OO/Tq24BiEqMmwCAAA2h+c3Wq5S9HQ0gydRE/14OOdYv2EL3RZIiIY4B9as3QRJxRk8XZjY/4oOgZAjGToBePPNB1e73LnqPqYfIZGIwtejbuWw5pY2bHs3ba4iJSTtfPTxTtQdSq8Hac745mdW/po+GIihGDoBAABHTs6vtJwF6Gg7BLXP2b39zkc4TEsBhKiuo6MLm998R3QYSTD9p+gICDma4ROANzc9/ILLnaPZ5d6JWATebnXPECuKglWvvIZ4/MR3xRNCBk5RFLy8+nUkEmk29Q+29dkn7krHrIVkOMMnAADgdOT/Ot1mAbp7vHhjy9uqtklINtuy9X00NWv2LKCZlsP706dKEckqhqwEeLTa+k+/HDt6+tJEIqZJSTFFlmCzu+BQsTAQADS3tGJ4WSmKigpUbZeQbNPQ2IQ1695Ip4I/AIBwyIfWw9Unlw2d4G5pO7BZdDyEHCktZgAAwOHO0XYWoLUeas8CcA68smYj/IGgqu0Skk3CkSheenUDlKOrJaaB3s8VgIPfffqpV/5VbDSEfFtazAAAvZcEjRk97Q4pEdPkOjFZo1mARCKBxsYmTDltMkwaFjYiJBNxzvH8C2vTcuo/HPKho6XuyP/rPJoJIEaSViOSMzf3Do0uFAMAtLfWa3KGv/FwCzZtoT1AhAzWtrc/RHVNXf9faEAdLfXf+f9oJoAYSdrMAABAXc2OPWPHnfWTRDxaqEX7iizBYrHC6c5Vve3Gwy0oKsxH6dBi1dsmJBPV1jVgzfr0W/cHgICvE53tDcf7zzQTQAwhrWYAAMDlzvm+lncEdLTWq3pHwJHWvrYZ7R1dmrRNSCbx+QN44aV1abnuz7mC9ubaE38NzQQQA0irGQAAqKn5tKVy/LmXxaPhCi3a51wBOIcnV/1JBllWUFfXgFNPmQSrVb8rdwlJJ/F4Ak8+/RK6e7yiQ0lKT2cTfD0DOvlHMwFEqLSbAQAAq7XserPFplnB/e7Ow4jHIpq03dHZjWdfWA1JljVpn5B0xjnHy69uQHNLeh6dl2UJHa2HBvz1NBNAREq7GQAAqKt7NzRh4rnjo5HQqVr1IUlx5OaXaNK21+dHwB/EpInjNGmfkHS1cdM27Ny1W3QYSetorUMo2DPYl9FMABEiLWcAAGDIkIqFdrsrqlX7fm8HIiGfVs1j567deIcuDSLkGzt2fokPPtohOoykJeJRdHc2JfVamgkgIqTlDAAA7N27Ta6cdIESDfsv0aqPWDSE/MIyaHX0sK6+AYWFBXQygGS96oP1WPXKa+DpuOX/ay2N+xGLhFJpgmYCiK7SNgEAgPq6He+NG3vmzYl4NF+L9qVEHFarFU6X+scC+xyorsPIkcNRkJ+nWR+EGFlzcyueevYVSBqdvtFD0N+F9hZV6hWcN6x0vNLaVk2FQ4jm0nYJoI/FVnSl2WzR7LGhrbkOiURMq+YhSRKeeuYVHGpIbuqQkHTW3t6JJ55+GfF4XHQoSVMUBa2Hq9VrkOOPU0+7YqF6DRJybGk9AwAA9fXb2ydMOq9Sqw2BnCuQEjHNNgQCvR8ge/dVY9zYUcjJUbcUMSFG1d3jxWNPvoBQKCw6lJR0tNQh4Fe9vsfs0mGVr7W2VqdfDWSSNtJ+BgAAOK9Y4HDm+LVq3+/tQFD9P/BvicZiePLpl9FBhYJIFvD7A1j51CoEAimtmQsXiwTR1XFYi6YdTGGPzp8/P+0f0ohxZcSbq75+m1I56bx9sXDwB2rf6NcnHPKhoKgMjGmXMyUSCez76iBOmlgJp9OhWT+EiBQKh/H4k6vQ1TXo43KGwjlwuH4PEnHNDiMN6+5OHGptq/5Mqw5IdsuIBAAA6mt37B8//pzZsVi4XIv2FVkGOODOKdCi+W/E4nF8tb8GEyaMpSSAZBx/IIiVT76YETNd3q5m9HQ1a93NyRdcOOX+vXv3pu/xCGJYGbEE0MfhKrzSanNqtpuos70R0XBAq+a/0eP1YcVjz6GtvVPzvgjRi9frx6Mrn8+I+zASiRjaW05c718lYw8ciGp21Jlkt4yZAQCAmpqPIhMnXVAfjQSv03YpYBiYlvcSo7ce+pd7vsLokeXIzc3RtC9CtNbZ2Y3HnngBXq9mW3V0xNF0aC9iUZ32L3BFam2vXqNPZySbZFQCAAB1dTu+mDD+vJmxWGiUFu3LUgKKImtyWdDRJEnCnr0HMGrkCOTlaVeLgBAttXd04vGnXoQ/EBQdiiq6O5qSrviXDMYwpLWt+h7dOiRZI6OWAL5h5nPsTo9mnzbdHU2anwroE43F8MTTL+FgTb0u/RGipobGJqx47Lm03+3fJxYNo62fq37Vx8qnTr26TOdOSRbIyARg27aVUbcn72qTyaTRxhmO5sb9kKWENs0fJR5P4KlnX8HHn+zSpT9C1LBn7wGsfGoVolHtCmnpiXMFzQ37eq8M17/v8bp3SjJexi0B9Kmr21E/YeIFk2KR4MlatK8oMuKxKPIKtCsQdCTOOQ5U1yIajWLc2FGa70EgJBUffrwTq9e+AVnWf7DUSkdLHfzeDiF9m8A2trQd2COkc5KxMnIGoM+2beU/crny2rVqP+DrgK9H33vLP9y+E8+/uBaJhD6zD4QMhqIoWPfaZmx4/a20vtjnaOGQD53tjcL65+BuYZ2TjJXRCQBQpbhy8mebLTbNHkNaD1cjrl0hkGPa+1U1Vjz2HPx+7Y8kEjJQkUgUTzz1Ej7+9HPRoahKliU0H9oHrU4WDQRXuL4fMiQrZOwSQJ/a2k9aJ02c4Y1EAnO1aJ9zBeGgF/lFpbpOyweDIezesx8VI8qQl0fHBIlYra0dWPn0KjS36Dsjpj2O5kP7EA6LPb5oYnikpa36oNAgSMbJ+AQAAOrqP90+acJ5Z0ajoUot2pekOGQpgZy8Ii2aP65YPI7PPt8Ds8WMkRXDde2bkD6ff7EXz76wJu0v9TmWzrYGdHdqXu2vX0y2/KGlY3+36DhIZsnwJYB/2vrOyKtcngLNDu/2dDXD263/xV2KomDzlnfw7AurEY1lxm5rkh4kWcaGjW/hpVc3ZOSelFDQi/aWetFhAED3zj2n6332kGSBrEkAgCrFkzPkDKvNoVmp4JbDB3QpFXws+746iIcfeQbtVD6Y6MDnD+DRlc/jw+07RYeiCUmKoenQXohc9+/DGH8HqMqc4xTEMLJiCaBPTc1HwUknzdwbjQS+Dy12KHOOoL8H+YWlMJn0z63C4Qg++3w3bHYbRpQNA50UJFrYvWc/nnnuFXR1e0WHognOFTTU7kY8apgljT+2tlXvFh0EyTxZlQAAQG3tJ/smTrywOBoJnqlF+4oiIRYNITd/qJABWFEUVB+sw+GmZoweXQG73aZ/ECQjRWMxrF63CW9ufR8JSRIdjmbammsQEHTe/xi6ZEi3t7XVZN4aCxEu6xIAAKiv37mhcvw518RjkWFaV+6yXAAAIABJREFUtB+PRcDANb86+ES6u734/PO9KCzKR/EQfTcnksxTU3sITzz9Ehoa9KuBL4K3u1WvW/4GhIP/9fMvNm4WHQfJTFmZAADAmDHzHjWbQ7cl4jFNztCFQ35YbU44nB4tmh+QRCKB3Xv2w+vzY/ToclgsFmGxkPSUSCSwcdPbeG3jm4jFNNs+YwjhoBeHD+2FJsuDyWm1O/mPm5oO0u5eoomsXiWePfuXhb6epoZYNKRJlS3GTKgYc4rQmYA+Ho8bsy+9CFNOO0l0KCRNHKiuxfoNb6LH6xMdiubi0TDqqndClo2ztMG5ad6uL9etFh0HyVxZnQAAwGWXLZ3i7Wn5RIrHNXk8NlusGFU5FXa7S4vmB23MqApcfeVlKCoSn5QQYwoEQti05R3s+iI7Ss/LkoS66h2IxyKiQ/knjns/+/K1n4kOg2S2rF0C6FNb+0nrhJMu+iIeCX+fc0X1hIgrCkL+LuQWlMBkEv/j7vH6sOOzLyErCirKy4ScViDGxDnHp599iWeefxVNzfrXtBCBKwoaar9ANKLZ7eGDxsHW5xeFFtbX19PRP6Ip8SOSAdTX7tg/+aQL5Ug4eLEW7cuyhHDIj/yCoYa4xU9RFNTXN2LvvoMoKMhDUSHNBmS72voGvLBqHT7d8QVkWRYdjk44mhv2I+jvEh3INxjnmxwe1/XvvbchszdcEEMQPxoZyIwZtzzn6279gVbt5xUMRVnFJMOdzx8zugJzZs3AsFJ9rjYmxtHV1YMtW9/D7j37RYeiu46WWnS0NYgO4xuM8012j/vaDz9cZaC1CJLJDDYUiTfjgps3+3ztl2rVfn5hKcoqJsBoP3rGGCafNB6zL70I+fm5osMhGgtHInj//U/w/kc7suiJ/5+6Ow6jtck4d+vQ4E9EMNYoZBAXXbjgQ7+342yt2i8sHoHS4eO0aj4lNpsVZ515Os47ZxrcLmNsXCTqiUZj+GD7Dnz44Y6svTvC29WK5sb9MEKZXwBwDa2os+YPPXXbqirjbEQgWYESgOO44PybPg36u6Zp1X5J6SgMKR2lVfMps9msmDb1FJx/3pnIzRFXy4CoIxaLY/unu/Due9sRjWbnwA8Afm8HDtcbo8Y/AOSNn4qxC34PZrVttCbwowevZD2iYyLZgxKA46oyXXBezd5goHuCVj2UlI3BkJIKrZpXhdlsxumnTcaMGedSIpCGwpEIPvr4M3z40Y6sHvgBIODrRGPdHhhl8M8dPxXjFvweJus35boPKsC8R2czqvtPdEEJwAnMn19la2mqrg4FvRqN0gzDyitRUFSmTfMqslgsOO3USTj7zNNROrRYdDikHx2d3fho+07s+mIP4nEqIx8K9KCh7ktwxRgn63Irp2Lczd8a/PsEwbFgxRz2soi4SHahBKAfM2Ys9SRiPbXhkF+TUY8xoKxiEvIKhmrRvCZGVgzH2WeejpMmVVIdAQPhHKitO4SPPt6J/QdqDFTRVqxIyIdDNV9AUYyx2TFnzFRU3nrMwb8PB8Nfh3+Af6uqYsbIWEhGogRgAGbMWOpJxL37w0GfRo/qDGUVE5BfWKpN8xopKMjDWdOnYsqUk2jDoECRSBRffLkPH33yGTo7u0WHYyjhoBcNtbuhKMYo8euqmIqJS044+B9pQ8KGH6+cyTLz3mUiHCUAAzR/fpWttblmTzDQrdH2fYbSEeNQOGS4Ns1ryGRiGD2qAtNPPxWTJo6D2Uz1pbTGOUdtXQN2fb4Xe/YdQCJB0/xHC/q70Fi3B5wb4yHaVjoVk+/8Pcy2QV3RXQ2OeSvmsOyoy0x0RQnAIMyfP9/c3uba5fd2nqxNDwxDh49FUfEIbZrXgdvtwmmnTMKU0yZTYSENtHd0Yteuvfj8y73wB+jU2PEEfJ04fGivYdb8LSVTUbnw93AXDWrw7xPgChY8Mpe9onZcJLtRAjBonM246Jb3fT1t52jVQ9HQCgwdNkar5nVTkJ+HiRPG4uTJE1A+YrjhKiCmi/aOLuzeux979uxHe4dxytYala+nDU2HvoJRdvtbSqaiaO7vUX5yUoN/H9oXQFRHH8lJuujChRv83ra5WrVfVFKOoWVjtWped3m5OThpYiUmnVSJihFltExwAoqioPFwC/btr8befdXo6cn863jV0t3ZhLamasNsgLSUTIXznN+j4lQbnGoU2GR4LWHFjbQvgKiBEoAUzJx568u+7pbrtPqwKRwyHKUjxiHTfk1WqxUV5WUYM2Ykxo0ZiWGlQ7N+dqDb60NN7SHU1h7CwZr6rD+zn4zOtkNob6kTHcY3+gZ/V4EN5ZNVbJjjgEnBvIcvZ3tVbJVkoSz/2E3dzJm3/sPX3XanVhuNcvKGYPjISYa4SlgruTkejBk9EhUVZSgfXoaSkiEwmTL3rck5R0dHFxoPt+BQYxNq6xrg8/lFh5XGOFqbDqK7o0l0IN/oG/xhsqFsIpBTqHoXAQbctHw2W616yyRrZO6nrI5mzly8KOBtf1CW45ocinc4PSgfcwqsVrsWzRuOzWbF8GGlKC8vw4gRw1BaUoz8/Ly0nSXwev1oa+/A4cMtaGxqweGmFsRidNurGhRFxuH6vYa60vfIwd9iBcZMA5g25TJoXwBJSZp+pBrPpZcumRH0dm6MxSOajNJWmwMVY06F3ZGd5+1tNiuGDClCackQFBcXoaRkCArz85CfnwuLxSI6PEiyDJ/Pj54eH9raOtHR1YW2tk60d3QhHqfBXguJRAyNtbsRjQREh/KNIwd/ACgsA4pHad7tembCjcsvY7RZhAwKJQAquvSqn1dEOjt3hkPeIi3aN5stGDH6ZLg9+Vo0n7Y8HhfycnORl5eL/Lwc5ObkwOVywOF0wOVwwOlywOlwwuGww2odeLIgSRKi0RjCkSgiX/8LRyKIRqIIBEPw+vzw+vzw+fwIBEIafofkaNFIEI21XyKRMM5eiaMHfwCoOBnqbP7rD8cBbsa1j1zG9unQG8kQlACo7KqrFrn83vhOv69Dk0uEGGMYVj4R+YXpUzrYiGw2G8zm3nlZp92OaCwGjt4d+DQ9b2x+XyeaD+2FYpAz/sCxB3+TBRg3XbPp/2Pxc46bHpnD1ujWI0lrlABogrNLLlnyandH0zVanUXOH1KGYcMrwdJ1YZyQQePobG9ER0utYY75Acce/AEgpwgo0+wu0eOifQFkwGj00NDFM275V7+v679kOaHJM4DLnYcRoyfDYkmpwAghhifLMloa98PvbRcdyrccb/AHgJJRQIGgiz45sM4p48Z7L2d0vIQcFyUAGps1a9lZAX/n5mg4mKNF+xarDeWjTobTrcdCIyH6i0fDaKzfjVg0LDqUbznR4A8A5ZMBV57OQR2BAfsBXLt8NvtKXBTEyCgB0MGsn9zljjV0vu3v6ZymxZIAYwwlZel9hwAhx+LrbkPL4QOGucq3T3+DPwCMOwMwW3UM6tj8YPjJillsrehAiPFQAqCjiy9e8jdfT/MvFFnW5OeeX1iK0hGVGV00iGQHRVHQ0VKLro7DokP5joEM/mYLMO5MHYM6Mc6APy6fhT+AMQPtniCiUQKgs7lzfznL29OyOhoOOLVo3253Yfiok+BwerRonhDNJeJRHK7fg0jYOOf7+wxk8AcAuxMYNVWnoAaK4cUox8KnZjM6s0oAUAIgxNVX/0uOz9e+VbslAROGDK3AkKGj0rZ6HslOfm8HWhr3Q5Yl0aF8x0AHf6B37V/V+v/q+UI2Y95jl7Ja0YEQ8Wh4EGjmzNv+I+Dr/D+ypE0JYU9OAcoqJsFipVMCxNhkWUJrUzV83W2iQzmmwQz+AOApAobrfwRwoLoZww+Xz2KbRAdCxKIEQLBZs24dHQ5Ft4YCPSO1aN9isWFYxQTk5GpSnJCQlAUD3Whp2G+oqn5HGuzgDwirATAYMjh+t2I2/kr7ArIXJQAGccklt/+Xv6f1XyWNZgNy84sxbMQEmA1QN58QAOCKgva2enS3NxiqsM+Rkhn8gbRIAAAADHghAtxC+wKyEyUABjLn6rtODXu7Xg942zUpH2Kx2FA6ohK5+cVaNE/IgEXCfjQ1fIW4wc72HynZwR/ovf63bKIGQWnjcw7Me2Q2qxMdCNEXJQAGdOmlt/3Z29V1tyzHtNkbkFuEsvIJtDeA6E6RJXS01qOrowlalclWQyqDP9B7AVDFySoHpSEOdAH44SOz2WbRsRD9UAJgUOeff9N4cGVdKOAdr8UHpdliQenwSuQV0KVCRB9BfxdaGg8Ydq2/T6qDPwDYnMBoox0D7F/vvoA57C+iAyH6oATA4C655Lal4YDvf6LRkEOL9j05hSgdPg42h0uL5glBPB5F6+FqBP1dokPplxqDPwCYzcC4s1QKSn/PszhuWX4VM+76DFEFJQBpYO7cf9gTib1Perta58tyQvXfGWMmFAwpQ8mwUTCZaJMgUQtHd0cT2lvqDFfK91jUGvz7jJ0OpPE9Xbs4cB3tC8hslACkkVlX/HpaLND9vN/bMU6LZQGL1YaSoaOQV1RGBYRISoL+LrQ11xjuAp/jUXvwB4ARkwB3gWrN6Y4DXWaG7z88i70pOhaiDfqYT0MXX7ZkQcTX9Y9oNKzJDYMudx5Kh4+Dw6VJ8ySDxWIhtDXVIOjvFh3KgGkx+APAkJFA0XBVmxRBAse/076AzEQJQPpiM2bc8qdI0PereDyiwZ1jDLn5Q1AybAxsdk2uLSAZJJGIoaPtELydLTDy7v6jaTX4A71P/yMmqd6sEBx41hTHbbQvILNQApDm5s79hz0e3/OPgL/zlkQsqvo1gIyZkFdUipKho+jYIPkORZHR09GEjvZDUGTjr/MfScvBHwCYqfdK4Ay6nHOXWcG8h+ayetGBEHVQApAhLp9fVRrvannU622fK0tx1X+vJpMJBcUjMKSkAmYzbRTMdooio6erGV1tjZCkuOhwBs1SMhXOs38PmLVNakecBLjzNe1CXxydnOH7j8xmb4kOhaSOEoAMc/nld5eGgh1PBAPdlymyrPrv12yxoqi4HIXFZXRiIAspiiJ5u5otnW2NkCRjn+c/Hq2f/I+UVwKUjtO8G73RvoAMQQlAhpo1a2l5LBp6JBz0X6rF/QImswVFQ8pQUDwCljQ+60QGLAiOx8ws9tfdn3/4F87xY9EBJUPPwR/onf4fOz2jlgGO9IwnB7fdcy6LiA6EJIcSgAw3b95vi4L+nocC/q55sVhY/T0CJhNy80pQXDqSNgtmph4wfm/cYvn7qkd/1Q0A8+fPN9ccCD+RbkmA3oN/n9JxvTMBmYhxfCbLmPfoFeyQ6FjI4FECkCXOmf83p6v7wJ/DQe8t0UjArXb7jJmQV1CCwpJyOByqN0/0d5CB3cc4f+Spp+7+zk1x6ZYEiBr8AcDhBkaeisz9tOXoZMANy+ewraJDIYOTqW9JcgKzZi29JRwK/D4U6BmpxZEthysHhUNGIK+gGIxpcp8R0c77CsdfnnvqrvXAie+JT5ckQOTg32f4RMBTKKx7PdC+gDRECUAWmzNn2TmxaORPoYDvgkQiqvpIbbHakFdYisIhw2G12tVunqgnCmCVwuS/PPfEb/YM5oVGTwKMMPgDgMMDjDwFGf+Jy4Cn3TlYRPsC0kOGvx3JQCxYUJXf1NRaFQ0FbwwGvUVqzwowxpCbX4L8omFwufOpzLBhsI85U1bamPW5lSt/6U22FaMmAUYZ/PsMqwRyi0VHoYudzIR5yy9jDaIDISdGH8XkW2bPXnZ6NBL5z0jYd2kiHlW9wqDVakdu4VDkF5bCbqcbCAVoAccqbuaPP7vyX3ap1ajRkgCjDf4AYLECo6YCWVJGo4MruOGRuWyb6EDI8VECQI5p/vz55s7OgmVSIrokEvJP1OIWQqc7F/mFpcjNL6HiQhriQIyBbeZcedLjzFu9fPnihBb9GCUJMOLg3ye/FBg6RnQUuolz4M5HZrPlogMhx0YJAOnX/PlVnp6etl/EouGfRMK+SllSNxlgJhM8OYXIyRuCnNwimC0aXG2QfaIA28KYssrCrGtTmeIfDNFJgJEH/z5ZsCHw2xieSlixaOVMFhUdCvk2SgDIoFx1VZUrHu24MxoJ3hgK+U+SZbWLDDG43LnIyS9Gbn4xbR4cnDDA3mJMWWUz81cfe+xfAyKCEJUEWNxFu1yzV5zGuc3Qn2smCzDqVMDqEB2Jrj5gHN9bPoe1iA6E/JOh/1CIsS1YUOU43Nx6uxSL/ygWC58cDQcdam4gZAxwuvLgySuCJ6cQdoeHNhB+Vx3jfDNMbG1Xrn3L6/f+zBD1efVOAhjnm+we97XFP3nxD9423K1Hn6lweIDyyRlbIfB4mk0KvvfwXPah6EBIL/o4Jaq5+urfjAuHe26NRcNXx6Lh8Ym4urcTms1WuHPy4fEUwJ1XCGuWPUJ9LQjgIw5sAWNbnn3irh2iAzqeGTNmWHzdrqcB9n2Nu3ojzx+6dlv9tigAXPEPvjXQhRka95mynCFAWSWy7VM4Bo47V8xhK0QHQrLtrUd0U1VVZdr+Qdd1ESnyUzkWnR6NhkukREzV5QK7wwW3pwBOdy5c7nxYbRm5XBAA+MecmbYxxrbEQ+WfrFp1Q9rcuzt//nzzwf2h+wC2RKMuXsnzh37cN/gDAKq4aXYu6iI+VGjUp2qKRwKFw0VHoT8GLO/x4c5VN7D0u0oyg1ACQHRz+eU/P0uKx3+QiMfOiSdilbFosFCWJdXat1jscLg8cLpy4HLnweXOAzOlWSVCzmvB2PsMbIcM7Mhx5GzXate+nk4/5fJlnLH/BqDWtE0CjP/HZ5+f+VegSjn6P85/jBd3t+NQIgJDX1DBAJRl26bAf3qfccynfQHiUAJAhPnRj35T0Nnpmy9JidlSIjFJkuLDE7FojiTFVXlfMsZgd7hhd3jgcLphd7rhcHhgsRpih3iUAfs4sAfge8CwM25Xtq9a/huf6MC0Mu2UqyYqJuUf4LgslXY48B5M/M5duzacsI7BNQ/zs/wd+EBOwNBZoMncWyXQlp1lMZq5Cdc/chn7SHQg2YgSAGIoVVVVpu07o6cpkcAsKRE/S1ISkxKJeJkUj7olKWHm/DsPe4NmtljhcHpgs7tgszthszlgszlgtbtgUnnGgAEdHGgA+AEG7IZi2guYdsdiI+rSaSpfTVNPueoiMOVXAOYCGOiZTxnAFsZwz87PX3tjoH3Ne4Av6W7Hg1z9Ky9UZXX0JgHm7DwBG+PAskdms0dFB5JtKAEgaeOqq6pcQM/p8bgyRZYTJ8myPEaRpXJZThTJkuRR5IRdUWSzrMiMK8klCharDTabE1a7A2aLDRaLFRaLHRaLFVarHWaLFWaLDYwhDKCbAd0crAvgh8HQwMEaTExpYDI/FI1a61et+hXVRD+OMyfOK5Ls8blcwflgOBkcYwC4OQNjQAhg9QDfw4F3JcW8cffutW3J9HPV/fwRXztuUTd69Tlze08GZOtJF9oXoL8sfauRTDb3zn/YPa3tZdForELiiRGQMUyS4rmyLOcy1rsmzBh3KjLcAGAyMbui8K+Pz3EJDGHGTHHGzN1msylsMpkijJmauNnSBom3Dh2aU7tyZRUVNUkjc+7hu8JenCY6jv7kDwOGjhYdhVDvWyV874ErWKvoQLIBJQCEkIw3905ul8rRFAuhSHQs/Rk6prdkcBZrYsD1y2ez7aIDyXSG3hxDCCFqeP1eFstxYZrVDsNPL7fXAxG/6CiEGs6Bt297gy8UHUimoxkAQkjWuOY+frmvB+sVydiffWZr76bA7Kx19U8MWI4i3LF8Okv7o7BGRDMAhJCsseYOtsFTiD8YevQHICeA5v0Az8pzIv/EgUW8C2/euoUPFR1LJjL63wEhhKjuir/z1wPdmCM6jv54ioCyCfRBDeAwFFy3Yi77RHQgmYRmAAghWee1n+NyZy5qRMfRn2AX0NUoOgpDGAET3rl1I79ZdCCZhBIAQkgWYlxOYJrNBSFXJg9GVyMQ6BQdhSE4GMNji97gDy/6lGdnySSVUQJACMlKW37DfB4PLrTYYPiV9tYaIBoUHYUxcGCR0oUttC8gdZQAEEKy1uplbJenALcwg38SKnLvpkDZ8IcY9cGAC5mMT297nZ8hOpZ0ZvC3PSGEaGvtUvZEbhHuFR1HfxIxoGk/oMJ1GJliBEx4Z9Eb/KeiA0lXtLmUEEIAXH4P3x704kzRcfQnrwQoHSc6CmOhegHJoRkAQggBEPbhPGcukrpwSE++dqCnRXQUxvJ1vYDNS97gJaJjSSeUABBCCIBtVUxyl2CqzYGY6Fj6014PhHpER2E4FynAp4s38emiA0kXlAAQQsjXXvkJa3EVYq7JAi46lhPiQEs1EKfLpr+FA+UKx7u3buQ3iY4lHdAeAEIIOco19/NfejvwN27sNAA2Z++dASaL6EiMhwHLy2xYVjWTSaJjMSpKAAgh5BiuvJe/4u/EPNFx9MddAIyYCPo0PxaGbZKEGx6/nHWIDsWI6C1DCCHHcfk9fG/Qi0mi4+hP4XCgeKToKAyrhpkwb/ll7EvRgRgN7QEghJDjMLsw3e6BV3Qc/elu6j0dQI5pLFfwwaJNfL7oQIyGZgAIIeQErn+YT+zpxJdSHIZeaWcmoGIy4MgRHYlhcTD81evF71bdwAxf/lkPwhKAKVsX5Me9ll9IEp+rKLxYlpALNrB4mAlyXq65I7/A0mG1pV74gXHWA/BmMOyREta1b579d8OfBSaE6Gfe/fy67m68xCVjPzRZrMDI0wCLTXQkxsWBjdYEfvTglSzrD1Lq/maeuuHm4lDY/GwgkLhEkQfff2GBBaVlNlitmq1eKABekWX87s2z7j+gVSeEkPRy9f38L952/IvoOPrjcAPlpwAmWuA9kYMKMO/R2Wy36EBE0jUBOHnN4sv8vtj6WJwPOj9ljKG83IaCQt1ugYyD4/ZNZ9z/mF4dEkKM7fK/87eD3bhQdBz9yRkClFWCFnlPLMiBmx+ZzV4SHYgouuWIJ69fdEVXT+yNZAZ/ABhRYddz8AcAGxgenf3p0l/r2SkhxLg29GCmMxeNouPoT6AT6G4WHYXheRjw4m2b+J+rqnhWzpfokh9OXreowt8dPxhP8KRG8KIhVowYYVc7rIFSwNmVm86473VRARBCjGP+Y7y4ux2HEhE4RcdyIgxA2UTAUyg6krTwesKGH62cyQx/4kNNuiQA419a+LHPKyd1b7PZxDBpshtms9pRDUq9Oc808fXKe1WvEd64nw9PWDGWc9C2nSQxhhhjqB49mrWKjoVkh2uW83MD7XhXShj7KLXJ3Fsp0OYSHUlaOAiOa1fMYXtEB6IXzROA0165bXxbT3x/siU1i4utKBsu7On/nxhbvGnafcvVau7gQT7NxPA3ABeAVurUoAB4kwO/HjuWCn4Q7c17iC/pbsWDRi8XbHX0JgFmXVdQ01YQHAtWzGEviw5ED5pnrzHw36TyB5KbZ5Sjt4pqRSRqavgVJob3AFwIGvzVYgJwGQM+rD/IZ4oOhmS+V5ewh3KL8ajoOPqTiAJN+wGjJyoG4QHDqmzZF6D5NxiPyyl9GLtcYuf+v8HZRTO2VqWcjdTX82EMeBaAQ4WoyHe5FYYXDx3iBaIDIZlv3TJ2qysfhp9xivh7rxAmA8LA8a9N52Ddgq08X3QwWtI8AVBklvQHsdlsqLOsVqezqzTVRhQJdwDIVSEecnxDJAmLRQdBskPUhzPtHnSJjqM/3hbAS7tkBuNyaxwfL97ATxIdiFY0H15lmSf9pGsyGWt2PGFGccqNMFyqQiikHwz0cyb62FbForlunGmxI+WqpFprr++dDSADVqmY8dFtm7jhb4VMhnGer9OAySSl/vNiGKJCKKR/qSdrhAzQy0tZbU4urjVZYOiVdq707gdIREVHklZywPFyJu4LyKhvJh0wDpqE0wNHi+gQSHZZcwfb4CnEH401b/ldcgJo3g9wug5nMHr3BZyLtYs28zzRwaiFEgCdcY6NomPIBozRz5nob/0yVuUuwibRcfQnGgKaD8LY0xVGxHEFl/HxrZv5JNGhqIESAJ2ZrbgPQIfoODJco9ONFaKDINlpw88wx5WHWtFx9CfYBXQZvqixATGMZwq2L3qDXys6lFRRAqCzkSNZDweuA+ATHUuG6lQ45pWWspDoQEi2YtzswHSbC4Z/D3Y19t4bQAYthwOvpPu+gLQNPJ2NHcveUzimg+NFALQdRx1hAE9zYNq4cWyH6GBIdnttKevxeHC+xQbDr7S31gDRoOgo0lJfvYA16bovQPP9KuVP3hyNx5WkavlarQwnTXarHVLymDJ907QHVR1cGhu5U4lidIIZ+2IRI7NYEOYcdaNHM0qmiKFcez9f0NOJx7kiOpITs9q/LhdMN5IkhQH7AVy7fDb7SnQsg2GUOrtZq7ycRQDsFR0HIUR9q5exlVc/wM/ytmGJ6FhOJBHrPR5YPhlgNC88aByYAGD7rRv5TY/MYWtExzNQ9KsmhBANrV3KbncX4BPRcfQnEgDaDL910dByGcPLt23ivxIdyEBRAkAIIRqLeHGuMxdtouPoj68d6KEKGqkwg+N/bt3IVyz6lBv+/kVKAAghRGPbqphkz8fpNgdiomPpT3s9EOoRHUV6Ywy38i68ZvTNgZQAEEKIDtbewppdBbjK6OWCwYGWaiAeER1I2ruMK3h74SZeJjqQ46EEgBBCdLJ2CducV4TfMoPXC5YloOkrQJFER5L2TjMr2LrkDV4iOpBjoQSAEEJ0tGYp+0tOMVaLjqM/8QjQXA2qF5wqhvEyw/qFa3iO6FCORgkAIYTobP0yNs9TAMOfGQ/1AB0NoqPIABxnmB1Ys2Ard4gO5UiUABBCiABSAtMdbuOXBO9u6j0dQFI20xrH0+DcMAtAlAAQQogAm+5moZw8nG2xwfAr7W21QDQgOoqMcP2iN2CYOgGUABBCiCAvL2Zf5eTjRmYWHcmJcaV3U6AUFx1J+uMMf77lo6F+AAAWxklEQVTtDX6u6DgAKgUsTGsrd4dCuJMB30dvGcl0vgsgCqAaHKtkjr9XVjK/6IAISRdrlrEXrn6AT/O24W7RsZyIlACa9gHlpwAmenRMhYUBzy/bwqfefynrEhkI/RoFqKvjo8IhfMqAPwGYgvQe/AHAAeAUMPzRbMZntbV8guiACEkna5eyf8kpwrui4+hPNAS0HgSdDEgRB8rjMlaIjoMSAJ1VV3M7FKwHMFF0LJrgGMM4Xmtt5Qa6xpEQ43utGzOceWgUHUd/Ap1Ad7PoKDLCvNs28atFBkAJgM5MJizkwGTRcWiJA2MjQSwTHQchaaWKKbn5mGZ1wvA1+DoPAcFu0VGkP8Zxj8ijgZQA6IwB14mOQQ+cZcf3SYiaVi1kHe48XGaxQhEdy4lwfF0uOCw6kvTGgTHWOO4S1T8lAPobJToAnYwRHQAh6Wjt7ez93GLcYfRywYoMHP4KkBOiI0l7/7bkdT5KRMeGTgC4wTaaMG5SI6KQCm0YHwOdGiYkSasXswfzSvCk6Dj6k4gCTfuN91mdZpyyCf8uomPNEwCzCUmfHJVlY202ZWY55VUvBnygRiyGp+B90SEQks7WLmU/dRdgt+g4+hPx914hTFJy46KNfJjenWqfAJhZ0qUuOeeQEoZZCuPMY21JtRFJwf0AZBXiMTLOGe4VHQQh6c6j4EyHBz2i4+iPtwXwtoqOIq3ZFab/xmnNEwCrDZ+k8vqA3zBj5SevV94bS7WRykq2Bwz/qkZARsWBP44dy1L6vRNCgFW/YhFXLs6wOGD4lfb2+t7ZAJIcBixdupV79OxT+xkAm+Vvqbze5zNMmWzVru8cM4b9DxhuApBpV2x0M47FY8eyKtGBEJIpVi9mNTkFuN5kMdSK6HdwpXc/QCIqOpK0VRBP4Kd6dqjLPtNxLyysDQTk0cm+fuw4JzweocWye1jcNu6Nc+9R9eRrYyN3xuO4BEClCbCp2baeFCBhUlDjzMGW0lKWHZscCdHZVffxP/g78B+GzgIAONxAxcmA0e83MKiPVsxm5+jVmS4JwJQNt5zX3ia9K8vJ9edwmFBZ6YTJLOxczNJN0+9/UFTnhBACAFfcyzcHOnGp6Dj64ykCyiboNMBkFq5IGP3oFeyQHp3pcgxw1+WPvp+fb/kdS/JgazSqoKEhBi7grAnneJwGf0KIEbzWhdmuPOgyOKQi2AV0Gb6osSExkxXX69WZbnUA9s579E+FRZbfmc3JrWP5fBJqaqKQEjomARzLu1lisX4dEkLICVQxxezAVLvL+PVEuhp77w0gg8QxX6+udJ+hOWXtzReFw+ypYFAuT+b1ZjNDSYkNRUUWmC2ahf8V4/jNG2fcv0arDgghJFnXruDT/B3YLsVg6JV2kxkonww4dN3bnvY44xi+fA5L+dh5f4Qt0Uxev2S2Ek/8PBZTpkkyz+EKbOADj4eZGHd5zJLTYZKtVpNiTqVIH2M+u9102GY37eBcWZMIlLy1bWaVYY4fEELI0a55gN/s7cBj3DClUo7NagdGngKY03abswAc31sxh72sdTe0R4MQQtLUVffxh30dWCQ6jv44c3pnApihi88bB2f4n0dmMc0vCaJfByGEpKl1d7DFnkLsEB1HfyIBoK1WdBTpg3HochSQEgBCCElj4R6c7cwxflExXzvQo/mqdsaYducGbte6E0oACCEkjW2rYpKjENNtjuQvXtNLez0QMvzNBoZgj1owSetOKAEghJA0t2Yha/SU4CqjlwsGB1qqgXhEdCDGxxWM1LoPSgAIISQDrL6Fbcorwm+TrLemG1kCmr4CFDpndUKMoULrPigBIISQDLFmKftLzhCsEx1Hf+IRoLkaMPh8hVAMSKpWzmBQAkAIIRlk/R3sanc+9ouOoz+hHqCjQXQUhkYzAIQQQgbHY8N0hwd+0XH0p7up93QA+S4OFGvdByUAhBCSYVYtY0G3B+dZ7JBFx9KfttreOgHk2zhg0boPSgAIISQDvXo72+0pwI0mg3/KcwVo/gqQDH+IUV8M2t/zYPC3BiGEkGStvZ09nzME/y06jv5ICaBpH6AY/F4DnVECQAghJHnrlrG7PUV4X3Qc/YmGgNaDoJMBfRglAIQQQlLkfhcXOfPRLDqO/gQ6gW7DR6kTjoTWXWi+yeBEPsUia97pgTng7CSJY+hgXmtmprjdbt1ns5jCqcbBgKjCeYsV2F/8/mO0HYWkhD85/WTFZDpfAUaDKdbBvNZktxzmbntj6kEonHPWbjGZGtjcbfUpt0fS2qpVTP7hPH56Rwz18QgcouM5kc5DgM0JeApFRyIWY2jVvA+tOziW6uk3zojHpQcSsjJBUfigZiFMJgaP0waXwwaT+tHHObCVMTxQ+s5ja1VvnWQs/uJkjxxzPMriyhVIyO5BN+CyAnkOcJv6s36coxpgz1sU+R525XtUiT2LzXuYn+/rwNtSwtizvyYzMPIUwOYSHYlADA+tmMVu17YLHfFpi6xfScGtkXjivGReb7daUJDjgEmDkf9onLN3ZQv70YhtjxzWvDOS1qTnzriNhRL3Qxrc0z4AwMTAi1y9CYD2esDYzy1z3n5Kj86IMV2znC/1NuN+bvC1dqujNwkw6/KnYTwM+MPy2axKyz50ywKrz/px7p6EvzHZwd9hs6AwT5/BHwAY4xdYZOXj9nMXTNGlQ5KWEs9M/xvzx5cnO/hjqEevwR8ACsD5k4mNF/6nXh0S41mziD2QW4wXRMfRn0QUaN4PGD1R0VCb1h3olgDEo/In8YQ8qHX+PhazGQU5TjD9VyyGKWbTa53n3DRc746J8clPn7nEFEz8MtlPKF7s0mTKvz+M43fyhos0nVokxrZuGfuBqwB7RMfRn7Af6KgTHYUYHKjXug9dEoCvpvz4nlhcHp/s6wtyHBB4w1WZZLE8IKx3Ykj8mfMLeCR+X9KPJ24b4BA3t8kZ/1++ccY4YQEQ4axOnOnwwPB7QnpaAW+L6Cj0Z5XwmdZ9aD6sNp7zS2d3oNkny0lMkQJw2MwozBW/E8TEcUHJe4+9p1Z7W7dyy8iRWACOGwBMAjD4jWOkTwAMewE8O3o0nmWMaV7+VHly2joeTlyZ7Ov58FzAIngfFsMLljnv/EDNJuvq+BSu4A5wnAsTSsCNvdnMwBIAmsGw2WLB/1ZUME0Ox137MB/r78Y+KQpjr7QzYPhEwFMgOhDdNK2YzUZo3YnmCcCB03/4L8GI9JdkX1+Q44DTboj35uOl7z62UI2G6up4KVewFsAZarRHvuUdqw3zystZt5adSI9MiTFJsSXzWm63AKUetUNKRsIsK0PVOhlQU8N/w4D/D1RfRG0BMPx4zBimyTW/Vz/Mr/C3Y50iiTkVNlAmM1BxCmAX/zyoPY61K+awa7TuRvM/VEnGD1N5vc0qtFTBka7kKiRMW7dyC1ewBjT4a+XCeBwvcc41+zDjT5xxabKDPwAwh/7r/sdhlc1sthoN1dTwmxnwJ9Dgr4UccLx48CCfpkXjaxez1zwF+LOhR38Aigwc3gfEI6Ij0R5j2k//Azr8sSqcJz+NwRjMOu36H4Diw+fckvIE1Khy3AjgTBXiIcfBgJm1tbhOq/YVs3JBKq/noqf+j8DAJqTaRmMjdzIg6Vk+MiAOxvD/tGp8/R3s3zxFeFOr9tUixYCGPUAsw5MABXhHj370SACSXts2G2bs72W1oyzVNhSGG9SIhZwY45r+nEem9GpmnASAA8NSbSMex8XQ4e7ybMeAGbW1PKmTVAPxWjdmufPQoFX7apHjwOE9GT0T4DUV4V09OtL8k4jzwVX6MzJFYvZU22AA7bzWA0PSp076wzmcKTVgqMQ29fe0id7TemGKouHPuoopnlxMtbsR0qwPlUhxoOFLIOwTHYkmXls+nWl+DwBA63UiREUHkA0YkPIdEWSAOL2n9WLh2r6vV93Kup2FuMBih+YnaVIlS8DhvRl4RJBDtzL0lADo72PRAWSJ7aIDyBaM03taJ0FuwT6tO1l7K/sstwhLDbRSdVycA211QHsdwBXR0agizsx4Q6/O0uBXnFk48BDoxmutScyMFaKDyBajKtlnDPhAdBwZj+Gx0aOZLrMtqxez5bnFWK5HX2roaQEOfQHEDL940Q+Ol5dfxnRb2KAEQGdjx7JPwfEn0XFkMgb8+6hRTPMnJfJPzIxbAXhFx5GpOLBXlvF7Pftct5Qtdhdgp559piIWBg592ZsMpOsjlonjXl3707Mz0mvMOPY7DvwaQFB0LBnGx4DbR49ldCRNZ6NGsX2ygvMB7BIdS8ZhWCNJuKiykvn17rrdibOduWjXu99kcaV3OaD+CyCi+08rZTsfnss+1LNDw1TZyTZjx7K/Hd7Hn0hYcRUHxnFGv4tkMYYEgAOMYd3o0YyeQgWprGR7OOfTDtXgIgU4jzMYotxhumIMnQA2jRnDvhAVw47FLPGD+/l0OY6D8SiSLn6lt1gIaNgN5BYDQyoAa8pnXXTA8b96d0mDjkAjJrEuACtFx0GIWhhjCoCtX/8jGeD5Zazx2uX8Wm8bXjN6ueCj+TuAQBeQUwQUjQBsqR3g1VKLQ8GLendKSwCEEEJOaPUi9npeCf49vYb/XlzpTQTqdwEtB4y5NKBw/Me9l7OY3v1SAkAIIaRfaxaz/8odgvWi40gW54C/s3dpoO4zoLupt6CQKIko0NkINO6Bv+YjPC0iBloCIIQQMiDr72BXzb2HHwh5USk6llTEI0DHod5/Dk/vNcPuAsDhhmaVOjkHogEg5O39F/16C3h+Cf57Y5U+xzuPRgkAIYSQAfO4cIacQGM0hBzRsaghGuz919kImCy9SYAzB7B7ALuzdwPhYIsicd77hB8L9R5PjIaASABQpG9/nd2DzrXL2P9V77sZHEoACCGEDNiqxcw37yF+gZTADikOw9xtrQZF6r1f4Og7Biw2wOoAzGbAZAaYGTBbessRA737DLgMSAkgEev93/5qETALuDNX7OVwlAAQQggZlFeXsM+veoj/JNCGZ5XMKMF7QlJc/f0CngI8sXYxE3pahjYBEkIIGbR1S9hzOUNwj+g40pHdjbbX7sBC0XFQAkAIISQp65axX+UU0T0Qg2GxQbLbcQHAhBcspgSAEEJI0lzv4kJ3PhpEx5EOmAnILcRt63/OqkXHAlACQAghJAWrVjHZno/THG4ERMdidDmF+Pvq29lK0XH0oU2AAtXV8VGc43rGMZaz9N1NyzkUxlGrAK+OG8cOio6HiLNnD7c5nbiacZzLGdyi40mJAj9n2DZmDDYyxmTR4RjZ6puZ9/qH+DRFwu54LH3uDNBT7hCsXn8n+4XoOI5ECYAAnHNzfS3+L1dwFwArB9L2+krg67oZDDABf6qp4fc2NODumTOZ1N/rSGapr+bnKCY8A47R6f6eBgAwgAF31dXiy0PV/AcjK9le0SEZ2ctLWPX1y/kV3W14Q5ZodvlIngJ8sP5ONk90HEejX5IAdbX4Bwd+C8AqOhaVmRnwi5HleEx0IERfBw/yaYoJWwCMFh2LBk6RzXjn0AE+RnQgRvfyIrbFU4LrLXbQjMnXPAXYteEXOF90HMdCCYDOamv5BQCWio5DUww/qanhl4sOg+iDc85MDI8AcImORTMcRYoZ94oOIx2sW8xWF+bhQpsdAivtG4OnCG9v+AWbaoQd/8dCCYDeFNwmOgSdZMv3mfXq63EmgCmi49AaB+YePMjLRceRDl5axj7IKcA0mwsR0bGIwBiQNxRPbPgZmyE6lhOhBEBnnGGa6Bj0wJAd3ycBFAWni45BJ8xkwlTRQaSLV29nu4d4MMGZiw7RsejJZAHPH4rfrlvKFoiOpT+UAOiMZc/Gy0zb30COg/GseU8DoB3ug/H8Mtb4RgClucV4lWl0y56R2FwIFZRi9prb2Z9FxzIQmicADMlvBlG4sZZNGFfhykaOr1QIxfA4sE90DFphYKGUGlAM9L7mPPX3tAn7VYgkLchy5r6vNVPFlPV3sOsKS/FTiwMJ0eFoxZOPzyUPSl+9jW0WHctAaZ4AmJgpmOxrOTfWZ6XdyQ6n2gYDnlUjFqNjLHO/T4Wx+pQakI1zewpjaEq1jUgE2zhSbycN7KqsZHtEB5GuXl3CnizJx3hXHupEx6Imiw1y/jD8esMv2ZRty1jS450I2icA5tRKRCYShjlO3ly4Zbmv/y87sVFjsYoBb6kRkGFxfHToEFaKDkMrFrOc0g1eLGacE1Kc8ZSfaCdPZnEAP0f6n/w/kQQH7hQdRLp7/nZWv/FXbEzRUCywuZBWg+XRGOt96h+Wg1Frl7C/iY4nGZonAGZueiKV10fixviw5MBaNdphjCkmC74HIG2miQbpXQW4JpMLAbEf7nwXlhSWg6IJo0xtxcwxZZMaDY0dy15mHEv+//buJzSOKo4D+Pf35s3ubHbTJIc0ISgS2kOKtklpI4IH9WRSqIFCbWO8CNKkHsQeehBEo2e9+iepBMGEarVVsYF6SmNQFIsitDSVaGitVlBDTZPdnZ2Zn8d6tNPdmd3k+7m/9357mDfz3v7e7wEoV6O/OrNqFIe2bZOFtAPZKM48J+8FRbS1dGDCuqifLbH/KdeCX1s68cjsMembfv7ud4bTUvO0jO9wxM08cHM1CKNsnPYiwNa2AhyTagaJRmr6uxZOXKhah6qyvIQhNTgMxQ4ICtXqO3GKNQCLEJzq7sZHItJwD/SdCt7v/1BulQ/Gba+tHtDiVTOkGEHolN33ZVWvJF1e1u4wxJgADwPogDRoorEihOI3FZw3Bm91d8uNtEPaqA5M6j3lEt4urmIgKNdvSXQB4DXjD6+AFz8dk6m046mGRN6qi7uHX10rBS/HbZ/zXLQVUpwsVWc6F6ZG0guA6o2e25UPr5oVCaN4px2MQLuaASe19+O6Y9Ajj89fSysAov96dFztlq14pbiKF8rr9bMgMhaaK+Cy24Tjn43K2bTjqabEltUXew//UPbD3rjtWwoe8l4qJ8t+iRz7YNfcxJ9pDE71K/ig/0m56Z9EpLGeI804QGdzgk/h7aEheNoOzG/YRE1qbAfe0WdLJYyVbqE38JM/ZioCZPNYyTbhC9fi2OlR+T3pGJKQ2NTz0+Bgtny99ZJfCWLV0xYIthQyyHtJHsOVJUfNvvaFySsJDkoNJJze8xLWgtdifwR4FmjPA8n9xRUJ5LgzeL4hk5ZokxlXs78Tz4RlHPXXcb9fhlerVFNjodk8rrsePrcOXv9kVJZqM1L9SHTtoYAs9j11uugHQ6rxJkwvY7Gl4MHWeMJU4OMgkCP3fv3u3zUdiBqeTu8dCkvhjFTCeLXwrYG25oB8jXe4FFchOGoH52drOxBRbRyc0k7fx3DFx0DkY1dQQVvFR1bvMFfcuFA3i3/cDH52Lb6Fg7OZGzh3alw21f0FqWTWXXno0I5KUSbDINobRBorOTCXdeG5Dqw1cBxTlR9ioCsqZlZE3+yYn/qqCl3SJqEKE0z3v2Eq4Qj8sB0xilipayBNGcCzUGuqtCsgEQy+EchJ48mEPDZ394V/iOrMEyd0uxNidxBhp4lu5w8o0BIB1rG45gDLqriYa8blmRFZSTPeepF6ccbFPcM9BnZnqFFq14g6qn+5xnx/X/P2H2VufMMeX6Nk6Jm+VhRtfxRpT2Qkl0YMRlGJrLlkm5ouyP455q8QEREREREREREREREREREREREREREREREREREREREREREREREREREREREREREREREREREREREREREREREREREREREREREREREREREREREREREREREREREREREREVEj+xfJ3ior4BGgJQAAAABJRU5ErkJggg==;" vertex="1" parent="1">
          <mxGeometry x="80" y="80" width="80" height="80" as="geometry" />
        </mxCell>
        <mxCell id="n99DYxy3qWON-Op06M_Q-2" value="&lt;font color=&quot;#b5739d&quot; style=&quot;font-size: 14px;&quot; face=&quot;Times New Roman&quot;&gt;&lt;b style=&quot;&quot;&gt;Any Number of Data&lt;/b&gt;&lt;/font&gt;" style="text;html=1;align=center;verticalAlign=middle;resizable=0;points=[];autosize=1;strokeColor=none;fillColor=none;" vertex="1" parent="1">
          <mxGeometry x="45" y="170" width="150" height="30" as="geometry" />
        </mxCell>
        <mxCell id="n99DYxy3qWON-Op06M_Q-3" value="" style="endArrow=classic;html=1;fontFamily=Times New Roman;fontSize=14;fontColor=#B5739D;strokeWidth=1;strokeColor=#808080;curved=1;" edge="1" parent="1">
          <mxGeometry width="50" height="50" relative="1" as="geometry">
            <mxPoint x="168" y="104.75" as="sourcePoint" />
            <mxPoint x="218" y="104.75" as="targetPoint" />
          </mxGeometry>
        </mxCell>
        <mxCell id="n99DYxy3qWON-Op06M_Q-4" value="" style="endArrow=classic;html=1;fontFamily=Times New Roman;fontSize=14;fontColor=#B5739D;strokeWidth=1;strokeColor=#808080;curved=1;" edge="1" parent="1">
          <mxGeometry width="50" height="50" relative="1" as="geometry">
            <mxPoint x="168" y="114.75" as="sourcePoint" />
            <mxPoint x="218" y="114.75" as="targetPoint" />
          </mxGeometry>
        </mxCell>
        <mxCell id="n99DYxy3qWON-Op06M_Q-5" value="" style="endArrow=classic;html=1;fontFamily=Times New Roman;fontSize=14;fontColor=#B5739D;strokeWidth=1;strokeColor=#808080;curved=1;" edge="1" parent="1">
          <mxGeometry width="50" height="50" relative="1" as="geometry">
            <mxPoint x="168" y="124.75" as="sourcePoint" />
            <mxPoint x="218" y="124.75" as="targetPoint" />
          </mxGeometry>
        </mxCell>
        <mxCell id="n99DYxy3qWON-Op06M_Q-6" value="" style="endArrow=classic;html=1;fontFamily=Times New Roman;fontSize=14;fontColor=#B5739D;strokeWidth=1;strokeColor=#808080;curved=1;" edge="1" parent="1">
          <mxGeometry width="50" height="50" relative="1" as="geometry">
            <mxPoint x="168" y="134.25" as="sourcePoint" />
            <mxPoint x="218" y="134.25" as="targetPoint" />
            <Array as="points">
              <mxPoint x="198" y="134.25" />
            </Array>
          </mxGeometry>
        </mxCell>
        <mxCell id="n99DYxy3qWON-Op06M_Q-7" value="" style="endArrow=classic;html=1;fontFamily=Times New Roman;fontSize=14;fontColor=#B5739D;strokeWidth=1;strokeColor=#808080;curved=1;" edge="1" parent="1">
          <mxGeometry width="50" height="50" relative="1" as="geometry">
            <mxPoint x="168" y="144.25" as="sourcePoint" />
            <mxPoint x="218" y="144.25" as="targetPoint" />
            <Array as="points">
              <mxPoint x="198" y="144.25" />
            </Array>
          </mxGeometry>
        </mxCell>
        <mxCell id="n99DYxy3qWON-Op06M_Q-9" value="" style="shape=image;verticalLabelPosition=bottom;labelBackgroundColor=default;verticalAlign=top;aspect=fixed;imageAspect=0;image=data:image/png,iVBORw0KGgoAAAANSUhEUgAAAgAAAAIACAYAAAD0eNT6AAAABHNCSVQICAgIfAhkiAAAAAlwSFlzAAAOxAAADsQBlSsOGwAAABl0RVh0U29mdHdhcmUAd3d3Lmlua3NjYXBlLm9yZ5vuPBoAACAASURBVHic7d15mBx1gf/xd889mWRIQu5DE5IQEsIRTkHuQxA5FrkRUHABL1ARURfXA9ZdF0VYdF0QllUEBAQRUBB0uVRu5CbcCeSAhJCEXJM5+/dHwf4izGR6qqu6uvv7fj3PPDyh+1vfz9TMdH26qroqR3wNwI7AXsCWwHRgHNDyzmPlaAXwInAL8FPgrZTm2QY4BdgbmAA0pTSPJCkMHcAaYBHwPPAkcCfw4DuPDVguxpgtgVOBo4HhcSYtE28DnwGuSXCZDcBFRBv/OOtWkqSBWAb8CrgEeGogAweykZoF/Ctw4ADHlbM8UQn4WQLLqgVuBg5IYFmSJA1Enmjv9jeAZwsZUMiGvBE4B/gyUB87WvnqBLYj2p1SjH8mWk+SJGWlEzgf+Db9HBrorwBsAlwHbJtMrrJ1M3BIEeOHA68Cg5OJI0lSUR4GjgTm9fWEmg0MngX8merf+AN8FBhWxPiDceMvSSof2wMPALP7ekJfBWA28Beis/pDUA9sUcT4PlewJEkZGQ3cBWzd24O9HQLYBLjvnYHB+Kevfe3Kb37jG0/HGbvrXnsd9ejf/mYJkCSVozeAnXjP4YC69zypHriKwDb+AHvuscdx5OJ9uGHHHXbg0b/9LeFEkiQlYgzR+Xy7sN6Jge89BPAvwIdKGKosNDQ0sMWsWbHHbzPbN/+SpLK2PfDd9f/H+gVgFtFH/YKz30c+Qmtra+zxB+y/P0MGew6gJKmsnQHMfPcftes9cBkwo+RxMtbQ0MAvL7+ckSNHxl5GU1MTPfk899x7b4LJJElKVC3R5emvefcfEF3e90dUzxX+CpLL5fjxBRew7777Fr2snXbckcefeIKXXnopgWSSJKViOvAbYMm7BeDbRMcHgjF06FAuvfhijj366ESWV1NTw6GHHMKy5ct57PHHyefziSxXkqQE5YAe4NYc0Q1sXqeyb+xTkKFDhzJ1yhQ+dsABnPLpTzNsWDHX/unbk089xWWXX849997LgoULaWtrS2UeSZJiWAqMywG7AfcUs6SGhgY+dcIJHHPUUWy++eYMbmlJJKEkSaHI53voXLe21z3Ia9as4Zln53DtDb/hl1dfTWdnV7HT7Zoj2v3/nbhLGDNmDDdcey2zt+71QkOSJKlAnR1t9HRteOP+2BNPcvQJn2TJkjeLmepbNcBWcUc3NDS48ZckKSE1Ne+9Pt/7zd5qS371i59TX9//czdg6xqiMwJj+dQJJ7jxlyQpITW1hW3Ut9l6K4475phiptq0hiIu+5vUGfSSJCn6eHqhjj78sGKmGl0DDIk7eubMmf0/SZIkFSyX6+tGvX9vxmaxd+ADtNYQfQwwFs/2lyQpYQXuBBgyJPb7d4DGwmqGJEmqKhYASZICZAGQJClAFgBJkgJkAZAkKUAWAEmSAmQBkCQpQBYASZICZAGQJClANUB73MErV61KMIokScrn8wU97+2VK4uZZl0NEHsr/vTTTxczuSRJ+jt5KLAAPPPsnGImWlUDvBF39JVXX13M5JIkaT0FbvsBuPra64qZ6vUa4Pm4o6+8+mruf+CBYgJIkqR35Lu7Cnre/Q8+yDW/vr6YqZ6vAR6LO7qrq4sjjz2Wv953XzEhJEkS0F1AAbjvgQc57sR/pLu7u5ipHs8BOwN/LWYpNTU1HH3kkRxz9NFsPmMGTU1NxSxOkqTg5PN5OtrX9nocoH1dO88+9xzX/Pp6rr/xt/T09BQ73U45oA5YCIwqdmmSJKnsLQbG1wBdwK8yDiNJkkrjaqA7984/ZgBP44WBJEmqZj3A5sBz727w5wC/yS6PJEkqgeuB5wBy6/3PqcBTgGfwSZJUfdqBLYEXAGrXe2AZ0QmBe5Q+kyRJStk5wI3v/iP3ngfrgLuAXUqZSJIkpepeYG+iE/+B9xcAgPHA/cDEEoWSJEnpeQ3YCVi0/v/s7az/hcD+wNIShJIkSelZSrRNX/TeB/r62N+zwG5ErUGSJFWeRcBeRJ/0e58Nfe5/DtEug3tTCCVJktJzN7Ad0af7elXb1wPvWAVcCXQSlYH6pJJJkqTEtQHfAU4FVm7oif0VAIiuGnQv0eWCRwIz8YqBkiSVk26iS/weAdwCvP+OQu/R26cA+jMVOBn4BNEnBiRJUjYWAFcBlwIvD2RgnALwrhqiKwrtBWwNTCfaQzC0iGUWYhDQGGtgcy0NDTF2XuSBfN/j3l7d3tvdGwu1ggKaWsYGE/PwT8ugWurrk13n+Xy0zmPKE63zctdKYXvo3mfI4Dpqa2P8aedz0VcvurvzrFrbEScORO9MNrgrskwMJeZr4katdeRyya7zzq4e1rR1xokD0WHb1XEHl0iOmNuLXA42ao15RLonR18/5vaObtrau3p9rADtwNq4gwu0AlgCPA88TnTdnieJ9tQPWDEFICv/DZwUZ+BPvz+TE44Y+E6LfGcD7Ysm9fn49I9fzlsr2uJEgug2zG/GHVwidwD7xhl48y+2Ya9dNh7wuJ62FjqW9P6zWtfexYSPXhInDkTHxwbFHVxCzxGV6gF77I87M22TlgGP61q1EV3LRvf62MsLVrDjCVfFiQPRZUdjfS8lthZojjPwzWf2prlp4EW3a8UIut4e3utj9zw6n8O+enOcOAB/IubfbAmNJNqYDdiI4Q3Me3j3WJN2Lh1D95rWXh+76rY5fPEHd8ZaLnA58Om4g7PgsXxJkgJkAZAkKUAWAEmSAmQBkCQpQBYASZICZAGQJClAFgBJkgJkAZAkKUAWAEmSAmQBkCQpQBYASZICZAGQJClAFgBJkgJkAZAkKUAWAEmSAmQBkCQpQBYASZICZAGQJClAFgBJkgJkAZAkKUAWAEmSAmQBkCQpQBYASZICZAGQJClAFgBJkgJkAZAkKUAWAEmSAmQBkCQpQBYASZICZAGQJClAFgBJkgJUl3UAcRqwJusQ/ZiUdYAE1QFfyzpEAYZnHSBBw6mMdV5Nr4eTKP913pJ1gNBV0y98pfrnrAMEph74ftYhAjMC13mpTcV1rn54CECSpABZACRJCpAFQJKkAFkAJEkKkAVAkqQAWQAkSQqQBUCSpABZACRJCpAFQJKkAFkAJEkKkAVAkqQAWQAkSQqQBUCSpAB5N8Ds/RhYm3WIfhxF9dwSuAs4P+sQBTiZ6rkl8DLg0qxDFOArVM9r4jzg2qxD9GMQ0e3QlZFq+WWvZOcCb2Ydoh/bUD0FoBP4etYhCvAPVE8BWEplrPPTqZ7XxJco/3U+EgtApjwEIElSgCwAkiQFyAIgSVKALACSJAXIAiBJUoAsAJIkBcgCIElSgCwAkiQFyAIgSVKALACSJAXIAiBJUoAsAJIkBcgCIElSgKrlzleV7AUgn3WIfgzOOkCCmohuT1vuWrMOkKApVMY6b8o6QIJ2p/zXeS7rAKGzAGRvaNYBApMDhmUdIjC1uM5LrR7XufrhIQBJkgJkAZAkKUAWAEmSAmQBkCQpQBYASZICZAGQJClAFgBJkgJkAZAkKUAWAEmSAmQBkCQpQBYASZICZAGQJClAFgBJkgLk3QCztymwNOsQ/fgNsEfWIRKyDhiXdYgCPARMzTpEQl4Gts86RAEWUT23BL4HODTrEP0YQXQ7dGXEApC9FcDyrEP0ozPrAAnKU/7rG6A76wAJ6qYy1nk+6wAJ6qT817nbn4x5CECSpABZACRJCpAFQJKkAFkAJEkKkAVAkqQAWQAkSQqQBUCSpABZACRJCpAFQJKkAFkAJEkKkAVAkqQAWQAkSQqQBUCSpABZACRJCpAFQJKkAFkAJEkKkAVAkqQAWQAkSQqQBUCSpABZACRJCpAFQJKkAFkAJEkKkAVAkqQAWQAkSQqQBUCSpABZACRJCpAFQJKkAFkAJEkKkAVAkqQAWQAkSQpQXdYB+jAa2AwYBbQCtes9Nj3uQv/y4HK6uvMDH9hdR9eKNX0+3N7RFTcSwAnAqmIWUAIT4g68/e6lzFvQNuBx+Y5Gulet6PWxzq6euHEg+p0/pZgFlMjQuANvuHUxo0Y0DHhcz7q36FmztNfHliwf+M9wPRtRGes89uvhL3+9kLr63IDH9axdQU9bS6+PvfDq8rhxAMZT/ut8SNyB69p7uPyaBbHGdq9eRb69qdfHHnz69biRINo2rb/Ou4GVwBJgzjv/LSsD/41NRwvwceCjwJ7AmGzjSJKUqDeAO4HbgBuBvt9VlkjWBWAScBZwPDA42yiSJJXEKuCXwHnAq1mFyKoAtALfBT4P1GeUQZKkLHUCPwG+TQaHgrMoALsDVxEdo5IkKXQLgGOBP5dy0tr+n5KorxDt9tioxPNKklSuWokOha8CHijVpKUsAD8AvoMfPZQk6b1qgP2BQcCfSjFhqQrAucDXSzSXJEmV6sNEh+fvTnuiUhSATwE/KsE8kiRVgz2AucATaU6S9kmAmwMPEe3SkCRJhVkDbE90EaFUpHk8vga4FDf+kiQNVAvwC1LcTqdZAE4Cdkpx+ZIkVbPtgU+mtfC0DgHUAy8QXelPkiTF8wrRfQaKuulMb9LaA3AkbvwlSSrWJkTb1MSlVQBOTGm5kiSFJpXDAGkcAhgNLCKBcrHlFluw+cyZNDc3F59KkqQE5fM95Lu7e31sbVsbc557nqeeeSaJqbqBscCbSSzsXbHvf70Be1Lkxn/XXXbhR+edx+abb55QJEmSktfRtpp8Pt/n4888O4ezzv4m9z3wYDHT1BJtW68rZiHvlcYhgF2LGXz4xz/O72+6yY2/JKns1dRt+Ia2m8+cwU2/vpZDDz6o2Kl2K3YB75XGIYA7iZrKgE2eNIlHHnjAXf6SpIrQ09NN57q1/T5v3bp17Ljbnrw2f37cqf4X2Cfu4N6ksQdgStyBXzr9dDf+kqSKUZMrbDPa1NTEaZ89tZipphYzuDdpFIChcQd+ZN99k8whSVK6crmCd6Xvs9dexcwUe9valzQKQEvcgePGjk0yhyRJ6StwL8D4ceOKmWVwMYN7k0YBiH2Hwfr6DZ9MIUlS2SlwF0B9fVEfvEv87r1p3gtAkiSVKQuAJEkBsgBIkhQgC4AkSQGyAEiSFCALgCRJAbIASJIUIAuAJEkBSqMA9MQd2N3HfZUlSSpbfd8N+O8UuY2LvW3tSxoFoP/bIvVh8eLFSeaQJCl9+cK2zYuXLClmljXFDO5NGgXg7bgD77733iRzSJKUqjwF7wDgnj//pZipYm9b+5JGAZgbd+B//PjHHgaQJFWOnsK2Wd3d3fzk4kuKmemVYgb3Jo0C8FzcgU89/TRnf+tbSWaRJCk1PV1dBT3vn797Ls/Oib15BHi+mMG9SfzuQsAI4JC4gx986CFemTuXnT/0IVpaYt9ZWJKk1HV3tpPP930QYMmbb/Kls77GFVddXexUPwaeKHYh6yvwJoYD8kFgXrELGdTczD777MOsmTNpHjSo+FSSJCUo391Nd3fvewDa2tp45tk53HnPPbS1tRU9FdG2dX6xC1pfGgUA4AFgx5SWLUlSSO4Hdk56oWldCOgXKS1XkqTQpLJNTWsPwCCiTwOMSmn5kiSFYAkwmSKusdOXtPYArAXOT2nZkiSF4jxS2PhDensAABqAx4EZKc4hSVK1egHYEmhPY+Fp3gyoAzgFKOxDkpIk6V1dwImktPGHdK4DsL7XiL6JvVOeR5KkavIN4Jo0J0i7AAD8FZgAbFOCuSRJqnRXAl9Ne5JSFACAW4nOBdi8RPNJklSJrgU+SQq3/32vUhWAHuAGossE71CiOSVJqiQXEZ07V5K74pWqAEB0KcNbie5otC/RpwQkSQrdKuAk4AcUfnfhopWyALzrSeAKYCSwVQbzS5JULn4HHAT8pdQTp/kxwA1ZCJwA7Ar8gRI2HkmSMpYHbgN2Idr4v5pFiDQvBDQQk4HjgAOA7YC6bONIkpSoLuBhokPhVxFdLj9T5VIA1jeE6NMCmwGjgVayOVSRtJFEx3gGbMTwBk44YlysSbvXDiHfVd/rYw8/8wb3P7ko1nKJ7k51b9zBJbIJcEScgZMnNnPoAaNjTdq9eiPyPb3/yt758Gs8/dLSWMsFbie6umY52xrYL87ALWcOYZ9dN441adfKYfT1cnbzPS8zb9HbsZYLXA+8HHdwiewG7BRn4Id3GMaOszca+MB8jq5Vw/p8+Krb5vDWiti3wL0ceDPu4DLSDawEFgPPAc8QHesvG+X4TnsV0e2EH8g6SMK2IGYBGD2ygXPOmhZr0o4l4+lpa+n1sQuuerSYAnAXcHbcwSVyADELwKZTWmKv8/ZFk8h39n6O68rVHcUUgN8CF8cdXCKfIWYB2GHrjWKv83WvTYV870c058x9q5gC8HPg93EHl8j3iFkA9tl1Y776uckDH9hTw7r5U/t8+E8PvlpMAbgQeCruYBUuq3MAJElShiwAkiQFyAIgSVKALACSJAXIAiBJUoAsAJIkBcgCIElSgCwAkiQFyAIgSVKALACSJAXIAiBJUoAsAJIkBcgCIElSgCwAkiQFyAIgSVKALACSJAXIAiBJUoAsAJIkBcgCIElSgCwAkiQFyAIgSVKA6rIOoIp1BvDZrEP0oz7rAAk7H/jXrEP0ozHrAAm7BujMOkQ/mrMOoMpkAVBcTe98qXQGvfOl0hmcdQApLR4CkCQpQBYASZICZAGQJClAFgBJkgJkAZAkKUAWAEmSAmQBkCQpQBYASZICZAGQJClAFgBJUqIGNRV1kdnVSeXQhlkAJEmJmjBqSNyhncCiBKNoAywAkqRE7bHdxLhD7wbak0uiDbEASJISdeie0xg1PNZ9qy5KOov65t0AFdcFwLlZh+jHvsC1WYdI0FeA/8k6RD9OJLptcbU4Grgj6xD9+Gfgy1mHWF9Lcz3f+9wunPK9O8jnCx52I/C79FLpvSwAiqsNWJ51iH5U28lEayn/db426wAJW035r/O2rAP05tC9prFo6Wq+e8n99PTfAu4CTihBLK3HQwCSpFR8/sjZXHfeQcyYPLyvp6wEzgb2o/oKe9lzD4AkKTV7bDuRey87hsdfWMIDT73OwqXLV1983TPnAU8Cf6T69hpVDAuAJClVuRzMnj6K2dNHkWtsW3nxdc+U+/lDQfAQgCRJAbIASJIUIAuAJEkBsgBIkhQgC4AkSQGyAEiSFCALgCRJAbIASJIUIAuAJEkB8kqAims2cErWIfoxK+sACdsF6Mk6RD92yTpAwvYHxmcdoh+zsw6gymQBUFwffedLpfOJd75UOl/IOoCUFg8BSJIUIAuAJEkB8hCAJCl1S5at5cGnX2fR8uUtwHHAM8BjGccKmgVAkpSaZ195i3MuvZ87H3qNnnweYCPgl+88/DLwHeDKjOIFzQIgSUrFjXe+yBfO+1/aO7r7esoUojKwH3AS0FmqbPIcAElSCu55dD6f/bc/bWjjv77jgItSjqT3sABIkhLV0dnNGT+6m67uAV224jPArilFUi8sAJKkRP3uz6/w6usr4ww9M+ks6psFQJKUqD8++GrcofsC9QlG0QZYACRJiZq38O24Q5uBsQlG0QZYACRJiVqzrqiT+TdKKoc2zAIgSVKALACSJAXICwEprseAh7MO0Y+JVNcdC/8MzMk6RD9mUF0f5foD8FrWIfqxPd4SWDFYABTXbcDZWYfoxwFUVwG4Grg46xD9qLbPcv8E+H3WIfrxPSwAisFDAJIkBcgCIElSgCwAkiQFyAIgSVKALACSJAXIAiBJUoAsAJIkBcgCIElSgCwAkiQFyAIgSVKALACSJAXIAiBJUoAsAJIkBcgCIElSgCwAkiQFyAIgSVKALACSJAXIAiBJUoAsAJIkBcgCIElSgCwAkiQFKJd1gDIxHNgN2BrYDBgBDE14jmZgZqyBTTVsNnVwrEnzXfXke3rveUuWreX1pWtiLRd4A1gYd3CJbARMjTOwdUgdUz44KNakPZ0NkO/9T2vBktW8taIt1nKB14A34w4ukZHAB+IMHDG8gYnjmmJN2tPR2Odjcxe+zco1HbGWC7wEvB13cImMB8bEGThudCOjR/a97jZkQ+v8+VeXs669K9ZygWeB2H8kfVhB9LfzPPA4cA+wPOE5Kk7IBWAj4BjgeOBDuDdEkkLRA9wP/BL4FbAy2zjZCLEADAXOBL5AVAIkSeFaAfwE+CHlv7cnUaEVgE8A5wOjsw4iSSorbwBnEO0RCEIoBWAwcDFRAZAkqS9XAp8FVmcdJG0hFIDRwG3A7KyDSJIqwlPA/sCirIOkqdoLwDiisz1jnQkuSQrWS0SfDns96yBpqeYz34cSvfN34y9JGqipRNuQqj1ZvFoLQA64HNgy6yCSpIq1FdFHBatyb3lt1gFS8jngK1mHkCRVvOlEnxB4JOsgSavGVjMGmEPyV/KTJIVpJdFVYqvqfIBq3ANwAbBz1iEkSVWjERgC/C7rIEmqtj0AE4CXgYasg0iSqkon0YmBr2UdJCnVdhLgZ3DjL0lKXj1wctYhklRNewBqgFeAD2YdRJJUleYBmwD5jHMkopoKwDbAo8UuZOedduITxxzDZtOn09QU79akkqTSyfd009mxrtfH2tvbmfP8C1xz3fU8+PDDSUy3NfBEEgvKWjUVgK8Q3c0plubmZv7zoos4+sgjE4wkSSqFznVr6enp3uBzrr3+Br545lm0t7cXM9VXgB8Vs4ByUZd1gARtF3dgLpfjfy69lIMPOijJPJKkEqmpq6OnY8MF4KjDD6O5uZlPnXwq+XzsvfixtzXlpppOApwed+AhBx3kxl+SKlhNTWHvZw/+2AF8bP/9iplq02IGl5NqKgDj4w486cQTk8whSSqxXK7wI9qfOv64YqaaUMzgclJNBaA17sDtt902yRySpFLL5aKvAszeeqtiZhpSzOByUk0FIPYp+62tsbuDJKlMFLoXYNjQoq4UP6iYweWkmgpAbAPZdSRJqmy+5kcsAJIkBcgCIElSgCwAkiQFyAIgSVKALACSJAXIAiBJUoAsAJIkBcgCIElSgKqpAHTGHbi2rS3JHJKkLBR4h7+1a9cWM0tHMYPLSTUVgFVxB7700ktJ5pAkZaDQW/y++PLLxUwTe1tTbqqpACyNO/CG3/wmyRySpBLL53sKfu5vb76lmKneLGZwOammAvBC3IH/dcklzJ03L8EokqRSyvcUVgDmznuVn13+82KmerGYweWkmgrAU3EHrl6zhsOOPJL5CxYkmUeSVCI9Xf2fBjZ/wQKOPuFTxZ4DEHtbU25qsw6QoFrg+LiDl771Flf96lfU1tQwedIkBg8enGA0SVJq8nk6O9r7fHjJkjf5719cwWe+8EUWLlpU7GznAK8Uu5ByUE33RBwELAYS2XKPGjWKlkFVc9tnSapa0cl/vZ8AuHZtG0veTOyw/SpgNFAVHx2ryzpAgtYCN1LEXoD1LVmyJInFSJKqxw1UycYfquscAICfZR1AklS1Lss6QJKqrQD8Bfhz1iEkSVXnbuCvWYdIUjWdA/CuDxOVgGr83iRJpdcD7ALcn3WQJFXbHgCIGtr/ZB1CklQ1LqfKNv5Qve+SBwOPANOzDiJJqmgvAdsCK7MOkrRq3AMAsBo45p3/SpIUxyrgcKpw4w/VWwAAHiP6wVXNnZskSSXTARwGPJF1kLRUcwEAuB34GFV09yZJUurWAIcCf8w6SJqqvQAA/AnYB3gt6yCSpLI3D9gduDXjHKkLoQAAPATMBn6ddRBJUtm6BtgGeDTrIKUQSgEAWAYcCexPFd3NSZJUtCeAjxCdPL484ywlU60fA+xPDjgYOJXoh15Nd0WUJPWvi+gY/8XALfR1N6EqFmoBWN9oYD9gb2BLomsHNGeaSJKUtLXAC0Tv9u8kOkl8caaJMmYB6N0woosJ1ZdgrmeBxjgDH719Zxoay/coTsfCyQU977l5y/jE2b+PO80zRHtzytERwPfjDDz0gNGcc9a0hOMkp2dVK10rNy7ouef87H5uuueluFN9nfI9d+cmYFacgddesjUzpydy5/JUdCyeAF39v/y1d3Sz84lXx52mHZgZd/AAdBJdEyaYXfuFqqbbASdpOaX7ZYm92+mDE5tpKuMCsK6ntaDnvb26vZhp2oFXillAimLfhHxISx2TJ5bvjqjulS10Li/s5zukpaGYqZZSvj/f2L+448Y0lvXPt712CPnO/n9u7R3dxUyTp3x/tkEo362HJElKjQVAkqQAWQAkSQqQBUCSpABZACRJCpAFQJKkAFkAJEkKkAVAkqQAWQAkSQqQBUCSpABZACRJCpAFQJKkAFkAJEkKkAVAkqQAWQAkSQqQBUCSpABZACRJCpAFQJKkAFkAJEkKUF3WARTfq/PbaGgsrsON2riBlkG1CSVSUlat6WLu/LailtHYUMOoEQ3U1eYSSqWkLHqjnaEbFffzHdZax9CN6hNKpBBZACrYtvvdl8hyPjC+iUMPGM0X/3ESo0Y0JLJMFefGWxdz462Li15ObW2OnbcbyqeOGs8RB42hpsYyUA6OOvXxRJYzYngDB+47ki+dPImpkwclskyFw0MA4rWF6/iPS19ly73+ys13LMk6jhLU3Z3nzw8u59NnPM3+xz7Km291ZB1JCVq6rIOfX7uQ7fe/j4suezXrOKowFgD9n9Vrujju809aAqrUfQ8vZ/9jH2Hlqq6soyhhnV15/unfXuAHP52bdRRVEAuA/k5PT55TznyGxW/6TrEaPf/SGs469/msYygl517wMo888XbWMVQhLAB6n9Vrurjw0nlZx1BKrr7xdV6etzbrGEpBT0+e7134ctYxVCEsAOrVb28r/gQ0laeenjw33e5hnmp1933LWPF2Z9YxVAEsAOrV/EXreHulx4qr1TPPr846glLS2ZXnuZfXZB1DFcACoD6tWOm7iGr1tj/bqmZ5VyEsAOpVLgejRjRmHUMp8Wdb3UaP9Hoe6p8FQL2aPauV5iZ/ParVTtsNzTqCUtI6pI6Zmw7OOoYqgK/w6tUxh47NOoJS0jqkqbJFTQAADJJJREFUjgP3GZl1DKXkiAPH0FDvS7v652+J3mfTKS2cdMyErGMoJV//wiYMG+o15KvRsKH1fP20TbKOoQphAdDfGTG8gWsv3orGBn81qtGRB4/htE9/MOsYSkFTYw1XXLQlY0d7focK46u8/s/O2w/j3t/uyLRNWrKOooQ1NdZw9pemcNn5s8h5P6CqM31qC7dfsz17fnh41lFUQbwbYAWbNLGZYl/LR41oYOb0wRz60dHstcvGieRS8Qa31DFyeHG76Rsaaxg3upHddxrO0f8wlgljmxJKp2KNG91Y9F62YUPrmTp5EAftO4qD9hvlbZ81YBaACvbI7TvT1OhOnGr08QNG89Pvz8w6hlJy7c+2Zvas1qxjKHBuPSRJCpAFQJKkAFkAJEkKkAVAmWttKeqypSuSyiFJIbEAKHNjRwymob427vBXkswiSaGwAChzjQ217DY79pUHf59kFkkKhQVAZeGLx24TZ9jzwO8SjiJJQbAAqCzstOU4Tjhw84EMaQdOArzxuSTFYAFQ2fj+6btyxL7TC3nqauAo4L50E0lS9bIAqGw01NXyX9/Yh0vO3pdNJvR6v/ou4AZgG+CmkoaTpCrjpYBVdg7be1MO23tT5sxdxnNz3+KxufN//9Or5lxM9I5/Wdb5JKkaWABUtmZMHs6MycM5vHX0Yz+9ao4n+0lSgjwEIElSgCwAkiQFyAIgSVKALACSJAXIAiBJUoAsAJIkBcgCIElSgCwAkiQFyAsBVbArrltIXX2u18dGbtzAzGmDmTJpUIlTKQkvvLKGy69Z0OtjjQ01jB3VyI7bDKVlUG2JkykJt9yxhMeeXtnrY0OH1DN18iC2mDGEXO9/3lIiLAAV7IzvPNfvc7aYMYSzvzSFA/cZWYJESsoDj67ggUdXbPA5TY01HH7gGL755SlMGNtUomRKwnn/Obff53xgfBNnfm4ynzxiPLW1NgElz0MAVe6pOas4+tTH+fK3n6OnJ591HCVoXXsPV96wiJ0PfIC/PLg86zhK2GsL13H62XM48pTHWbO2O+s4qkIWgEBceuV8vv2Dl7KOoRQsW9HJ4Sc/zpwXV2cdRSm4/e6lnPTlpyzwSpwFICAXXjqvz+OOqmyr13Txua8/S95tRFX6/Z/e5Ne3vJF1DFUZC0BA8nm48GevZh2jICvXdHDjnS/y7z9/iCNPv/MjwNeAnfB3tk8PP/429z/ioYBqdcHP5mUdQVXGkwADc8c9S+npyVNTU54nFbV3dPODKx7mkhueoK29693/vcM7XwDPAmcAt2eRr9z94a6l7Lz9sKxjKAVPP7ea+YvWMXGcJ3wqGb6bCsyq1V0sXdaZdYxerVjVziFn3MiFVz+6/sb/vWYCtwJnli5Z5XjltbasIyhFc19bm3UEVRELQIA6u3qyjvA++TycfO7tPPLs4kKeXgOcBxyRbqrK09VZfj9bJaez05M8lBwLQGAaG2oYPbIx6xjvc+NdL3LXI/MHMiQH/AQYkk6iyjTB3cNVzd3/SpIFIDC77zScujK8qMhlNz4ZZ9go4OMJR6loe++6cdYRlJIPjG9i2iYtWcdQFbEABObUEyZmHeF9Vq/tLHTXf2/2TTJLJZs8sdkCUMVOPf4DXhpYibIABOTg/Uax3x4jso7xPm+8tYae+B9g/0CSWSpVbW2OC8+dQUO9f9LVaMuZQ8qyvKuy+WoRiF13HMalP5yVdYxerV1X1KcSgt8nWleb48JzZvjuv0ptOqWFay/ZmqZGX66VLH+jqlzLoFrO/tIUbr5iW+8cV4W2mjmEW6/alhOPHp91FCWsvi7HycdN5O4bdvDkP6XCCwFVsE8eOZ7aXi7ok8vBqBENzJg2mI/ssTGDW/wxV5ppm7Sw6w69X9CnsbGGcWMa2X2n4cye1epx4Qp08H6jGDGsodfHhg+rZ8qkQey/5whGbtz7c6QkuGWoYOd/ZzN3C1apnbYdykXfm5F1DKXkq5+bzOxZrVnHUODcekiSFCALgCRJAbIASJIUIAuAJEkBsgBIkhQgC4AkSQGyAEiSFCALgCRJAbIASJIUIAuAJEkBsgBIkhQgC4AkSQGyAEiSFCALgCRJAbIASJIUIAuAJEkBsgBIkhQgC4AkSQGyAEiSFCALgCRJAarLOoDiO+nLT1FbmytqGSOGNzBzWgsf23cU40Y3JpRMxbr3gWUcf9qTRS2job6GsaMa2W2nYeyx83Aa6u375eJb573I0I3qi1rGRkPqmDa5hQP2HsG0TVoSSqaQWAAq2M23L0lsWWed+zwnHTuBc746jZZBtYktV/HMm9/GvPltiSzrwkvnMWliM9//5nQO3GdkIstUce7667LElvXNf3+BQ/YfzQ+/NZ0xoyzxKpxvCQRAZ1eeS66Yz75HPcyyFZ1Zx1HC5s1v45jPPM75F8/LOooSls/Db29bzO6HPsQLL6/JOo4qiAVAf+fJZ1dxwmlPks9nnURJy+fhOz98kZv+kNyeI5WPhW+s44hTHmf1mq6so6hCWAD0Pnfft4wbb12cdQylIJ+Hr/3L87St68k6ilLw8ry1XHTZq1nHUIWwAKhXl129IOsISsmC19dxx91Ls46hlFx29QJ6etyFp/5ZANSr+x5eTken7xKr1V33vZV1BKVkydIOnvdcABXAAqBedXXnWbK0I+sYSsmiN9qzjqAULXzdn6/6ZwFQn5qb/DhgtfJnW92am3xpV//8LVGvhg2tZ/jQ4i5UovI1ddKgrCMoJbkcbPJBf77qnwVAvTpgr5HkirvIoMrYAV4QqGpts0UrY72qpwpgAdD71Nbm+PKpk7KOoZTsvevGbLtla9YxlJKzPr9J1hFUISwAep9vnTGVzaZ6bfFqNGxoPReeMyPrGErJMYeO5WPu3VGBLAD6P7kc/NPpm3CG7/6r0oSxTfzul9sy+QPNWUdRCo45dCw/+deZWcdQBfFmQKK2NsduHxrG2V+awoe2GZp1HCVs42H1HH/4eM787KSi70Cn8rPNFq2c+bnJHPyRUVlHUYWxAFSwyy/Ygvq6+Gfq5XIwakQD06cOZuNhbhjKyW4fGs7Jn5hQ1DIaG2sYP7aJWdMHF33baCXrnLOmMXlicXtiNh5ez5RJgxg/pimhVAqNBaCCHbzfKJoaPYpTjSZNbObQA0ZnHUMp2fPDw5k9yxMxlS23HpIkBcgCIElSgCwAkiQFyAIgSVKALACSJAXIAiBJUoAsAJIkBcgCIElSgCwAkiQFyAIgSVKALACSJAXIAiBJUoAsAJIkBcgCIElSgCwAkiQFyAIgSVKALACSJAXIAiBJUoAsAJIkBcgCIElSgCwAkiQFyAIgSVKALACSJAXIAiBJUoAsAJIkBcgCIElSgCwAkiQFyAIgSVKALACSJAXIAiBJUoAsAJIkBcgCIElSgCwAkiQFyAIgSVKALACSJAXIAiBJUoAsAJIkBagu6wCiO+a4fB7+JU+uJ9E0CappXrVHIc9rZ9VgYNuY08Rdf6XQFXfgK6+t/Vue3C1JhklSviY/vqZ51bRCnru6fc2mwNiYU8VehyUQ+3dv0eKOi7eelVucZJgk1Ta1bd9T197S3/Nq6npywG4xpynnv12pJF4B8jG+lmYRNiVjiLcO8sDNGeQt1P7E/77OySBvWs4l/nrYL4O8hbqF+N/X6AzypmUZ8dbBS1mE1f/nIYDsPRJz3MOJpsjWYmB+zLFx118p/I3473LK+fsaqEdjjusBnkgySMLifl8LgSVJBsmYr2FSTIcSrz1/MouwKfoBA18HXcBmWYQdgDsY+Pf1JtCcRdiUDCL6nga6Hm7PIuwAbEZU8Ab6ff17FmFTdCLxXsMOySKsVE5ywH0M7A/nCaA2i7ApGgG8xcDWw6WZJB2Y7YmKykC+r89nkjRdpzGwddAJbJdJ0oH5bwb2fS0FNs4kaXrqgKcZ2Hr4C9FrnxS8iUS7BQt9ASno5KsKtA/QTmHr4VGg35OUysTpFP7C+Cuq84UxB1xD4evhtGxiDlgL0e9iId9TO7B3NjFTN53CC/xCYEI2MaXy9AHgATb8h/MYMDWrgCWyK9H5ABtaD9cDrVkFjOkEYCV9f09dwHlU356d9dUSHerZ0B6Rt4HjswoYUytwAxv+nX0N2CWrgCUyjWjv5IbWw/1Eb3gkvUcOOBz4DbCA6B3DQqKzjY8lnJM2m4neAd5NdIJgOzAX+AWwe3axijYS+DbRyU/LgTXAs8BFwMwMc5Xa5kTf8xyidbCcaJ18m2gdVao9iH5H5xL9zi4G7gK+QHWd07EhtcBxwO+ARUTrYQFRQTqM6ty7VbH+H1olgZtr7nw5AAAAAElFTkSuQmCC;" vertex="1" parent="1">
          <mxGeometry x="240" y="84" width="76" height="76" as="geometry" />
        </mxCell>
        <mxCell id="n99DYxy3qWON-Op06M_Q-10" value="&lt;b&gt;Quantum &lt;br&gt;Computer(Alice)&lt;/b&gt;" style="text;html=1;align=center;verticalAlign=middle;resizable=0;points=[];autosize=1;strokeColor=none;fillColor=none;fontSize=14;fontFamily=Times New Roman;fontColor=#B5739D;" vertex="1" parent="1">
          <mxGeometry x="218" y="160" width="120" height="50" as="geometry" />
        </mxCell>
        <mxCell id="n99DYxy3qWON-Op06M_Q-11" value="&lt;b&gt;&lt;font color=&quot;#8080ff&quot;&gt;SUPERDENSE CODING&lt;br&gt;&amp;nbsp;PROTOCOL&lt;/font&gt;&lt;/b&gt;" style="text;html=1;align=center;verticalAlign=middle;resizable=0;points=[];autosize=1;strokeColor=none;fillColor=none;fontSize=14;fontFamily=Times New Roman;fontColor=#B5739D;" vertex="1" parent="1">
          <mxGeometry x="324" y="100" width="180" height="50" as="geometry" />
        </mxCell>
        <mxCell id="n99DYxy3qWON-Op06M_Q-12" value="" style="shape=image;verticalLabelPosition=bottom;labelBackgroundColor=default;verticalAlign=top;aspect=fixed;imageAspect=0;image=data:image/png,iVBORw0KGgoAAAANSUhEUgAAAgAAAAIACAYAAAD0eNT6AAAABHNCSVQICAgIfAhkiAAAAAlwSFlzAAAOxAAADsQBlSsOGwAAABl0RVh0U29mdHdhcmUAd3d3Lmlua3NjYXBlLm9yZ5vuPBoAACAASURBVHic7d15mBx1gf/xd889mWRIQu5DE5IQEsIRTkHuQxA5FrkRUHABL1ARURfXA9ZdF0VYdF0QllUEBAQRUBB0uVRu5CbcCeSAhJCEXJM5+/dHwf4izGR6qqu6uvv7fj3PPDyh+1vfz9TMdH26qroqR3wNwI7AXsCWwHRgHNDyzmPlaAXwInAL8FPgrZTm2QY4BdgbmAA0pTSPJCkMHcAaYBHwPPAkcCfw4DuPDVguxpgtgVOBo4HhcSYtE28DnwGuSXCZDcBFRBv/OOtWkqSBWAb8CrgEeGogAweykZoF/Ctw4ADHlbM8UQn4WQLLqgVuBg5IYFmSJA1Enmjv9jeAZwsZUMiGvBE4B/gyUB87WvnqBLYj2p1SjH8mWk+SJGWlEzgf+Db9HBrorwBsAlwHbJtMrrJ1M3BIEeOHA68Cg5OJI0lSUR4GjgTm9fWEmg0MngX8merf+AN8FBhWxPiDceMvSSof2wMPALP7ekJfBWA28Beis/pDUA9sUcT4PlewJEkZGQ3cBWzd24O9HQLYBLjvnYHB+Kevfe3Kb37jG0/HGbvrXnsd9ejf/mYJkCSVozeAnXjP4YC69zypHriKwDb+AHvuscdx5OJ9uGHHHXbg0b/9LeFEkiQlYgzR+Xy7sN6Jge89BPAvwIdKGKosNDQ0sMWsWbHHbzPbN/+SpLK2PfDd9f/H+gVgFtFH/YKz30c+Qmtra+zxB+y/P0MGew6gJKmsnQHMfPcftes9cBkwo+RxMtbQ0MAvL7+ckSNHxl5GU1MTPfk899x7b4LJJElKVC3R5emvefcfEF3e90dUzxX+CpLL5fjxBRew7777Fr2snXbckcefeIKXXnopgWSSJKViOvAbYMm7BeDbRMcHgjF06FAuvfhijj366ESWV1NTw6GHHMKy5ct57PHHyefziSxXkqQE5YAe4NYc0Q1sXqeyb+xTkKFDhzJ1yhQ+dsABnPLpTzNsWDHX/unbk089xWWXX849997LgoULaWtrS2UeSZJiWAqMywG7AfcUs6SGhgY+dcIJHHPUUWy++eYMbmlJJKEkSaHI53voXLe21z3Ia9as4Zln53DtDb/hl1dfTWdnV7HT7Zoj2v3/nbhLGDNmDDdcey2zt+71QkOSJKlAnR1t9HRteOP+2BNPcvQJn2TJkjeLmepbNcBWcUc3NDS48ZckKSE1Ne+9Pt/7zd5qS371i59TX9//czdg6xqiMwJj+dQJJ7jxlyQpITW1hW3Ut9l6K4475phiptq0hiIu+5vUGfSSJCn6eHqhjj78sGKmGl0DDIk7eubMmf0/SZIkFSyX6+tGvX9vxmaxd+ADtNYQfQwwFs/2lyQpYQXuBBgyJPb7d4DGwmqGJEmqKhYASZICZAGQJClAFgBJkgJkAZAkKUAWAEmSAmQBkCQpQBYASZICZAGQJClANUB73MErV61KMIokScrn8wU97+2VK4uZZl0NEHsr/vTTTxczuSRJ+jt5KLAAPPPsnGImWlUDvBF39JVXX13M5JIkaT0FbvsBuPra64qZ6vUa4Pm4o6+8+mruf+CBYgJIkqR35Lu7Cnre/Q8+yDW/vr6YqZ6vAR6LO7qrq4sjjz2Wv953XzEhJEkS0F1AAbjvgQc57sR/pLu7u5ipHs8BOwN/LWYpNTU1HH3kkRxz9NFsPmMGTU1NxSxOkqTg5PN5OtrX9nocoH1dO88+9xzX/Pp6rr/xt/T09BQ73U45oA5YCIwqdmmSJKnsLQbG1wBdwK8yDiNJkkrjaqA7984/ZgBP44WBJEmqZj3A5sBz727w5wC/yS6PJEkqgeuB5wBy6/3PqcBTgGfwSZJUfdqBLYEXAGrXe2AZ0QmBe5Q+kyRJStk5wI3v/iP3ngfrgLuAXUqZSJIkpepeYG+iE/+B9xcAgPHA/cDEEoWSJEnpeQ3YCVi0/v/s7az/hcD+wNIShJIkSelZSrRNX/TeB/r62N+zwG5ErUGSJFWeRcBeRJ/0e58Nfe5/DtEug3tTCCVJktJzN7Ad0af7elXb1wPvWAVcCXQSlYH6pJJJkqTEtQHfAU4FVm7oif0VAIiuGnQv0eWCRwIz8YqBkiSVk26iS/weAdwCvP+OQu/R26cA+jMVOBn4BNEnBiRJUjYWAFcBlwIvD2RgnALwrhqiKwrtBWwNTCfaQzC0iGUWYhDQGGtgcy0NDTF2XuSBfN/j3l7d3tvdGwu1ggKaWsYGE/PwT8ugWurrk13n+Xy0zmPKE63zctdKYXvo3mfI4Dpqa2P8aedz0VcvurvzrFrbEScORO9MNrgrskwMJeZr4katdeRyya7zzq4e1rR1xokD0WHb1XEHl0iOmNuLXA42ao15RLonR18/5vaObtrau3p9rADtwNq4gwu0AlgCPA88TnTdnieJ9tQPWDEFICv/DZwUZ+BPvz+TE44Y+E6LfGcD7Ysm9fn49I9fzlsr2uJEgug2zG/GHVwidwD7xhl48y+2Ya9dNh7wuJ62FjqW9P6zWtfexYSPXhInDkTHxwbFHVxCzxGV6gF77I87M22TlgGP61q1EV3LRvf62MsLVrDjCVfFiQPRZUdjfS8lthZojjPwzWf2prlp4EW3a8UIut4e3utj9zw6n8O+enOcOAB/IubfbAmNJNqYDdiI4Q3Me3j3WJN2Lh1D95rWXh+76rY5fPEHd8ZaLnA58Om4g7PgsXxJkgJkAZAkKUAWAEmSAmQBkCQpQBYASZICZAGQJClAFgBJkgJkAZAkKUAWAEmSAmQBkCQpQBYASZICZAGQJClAFgBJkgJkAZAkKUAWAEmSAmQBkCQpQBYASZICZAGQJClAFgBJkgJkAZAkKUAWAEmSAmQBkCQpQBYASZICZAGQJClAFgBJkgJkAZAkKUAWAEmSAmQBkCQpQBYASZICZAGQJClAFgBJkgJUl3UAcRqwJusQ/ZiUdYAE1QFfyzpEAYZnHSBBw6mMdV5Nr4eTKP913pJ1gNBV0y98pfrnrAMEph74ftYhAjMC13mpTcV1rn54CECSpABZACRJCpAFQJKkAFkAJEkKkAVAkqQAWQAkSQqQBUCSpABZACRJCpAFQJKkAFkAJEkKkAVAkqQAWQAkSQqQBUCSpAB5N8Ds/RhYm3WIfhxF9dwSuAs4P+sQBTiZ6rkl8DLg0qxDFOArVM9r4jzg2qxD9GMQ0e3QlZFq+WWvZOcCb2Ydoh/bUD0FoBP4etYhCvAPVE8BWEplrPPTqZ7XxJco/3U+EgtApjwEIElSgCwAkiQFyAIgSVKALACSJAXIAiBJUoAsAJIkBcgCIElSgCwAkiQFyAIgSVKALACSJAXIAiBJUoAsAJIkBcgCIElSgKrlzleV7AUgn3WIfgzOOkCCmohuT1vuWrMOkKApVMY6b8o6QIJ2p/zXeS7rAKGzAGRvaNYBApMDhmUdIjC1uM5LrR7XufrhIQBJkgJkAZAkKUAWAEmSAmQBkCQpQBYASZICZAGQJClAFgBJkgJkAZAkKUAWAEmSAmQBkCQpQBYASZICZAGQJClAFgBJkgLk3QCztymwNOsQ/fgNsEfWIRKyDhiXdYgCPARMzTpEQl4Gts86RAEWUT23BL4HODTrEP0YQXQ7dGXEApC9FcDyrEP0ozPrAAnKU/7rG6A76wAJ6qYy1nk+6wAJ6qT817nbn4x5CECSpABZACRJCpAFQJKkAFkAJEkKkAVAkqQAWQAkSQqQBUCSpABZACRJCpAFQJKkAFkAJEkKkAVAkqQAWQAkSQqQBUCSpABZACRJCpAFQJKkAFkAJEkKkAVAkqQAWQAkSQqQBUCSpABZACRJCpAFQJKkAFkAJEkKkAVAkqQAWQAkSQqQBUCSpABZACRJCpAFQJKkAFkAJEkKkAVAkqQAWQAkSQpQXdYB+jAa2AwYBbQCtes9Nj3uQv/y4HK6uvMDH9hdR9eKNX0+3N7RFTcSwAnAqmIWUAIT4g68/e6lzFvQNuBx+Y5Gulet6PWxzq6euHEg+p0/pZgFlMjQuANvuHUxo0Y0DHhcz7q36FmztNfHliwf+M9wPRtRGes89uvhL3+9kLr63IDH9axdQU9bS6+PvfDq8rhxAMZT/ut8SNyB69p7uPyaBbHGdq9eRb69qdfHHnz69biRINo2rb/Ou4GVwBJgzjv/LSsD/41NRwvwceCjwJ7AmGzjSJKUqDeAO4HbgBuBvt9VlkjWBWAScBZwPDA42yiSJJXEKuCXwHnAq1mFyKoAtALfBT4P1GeUQZKkLHUCPwG+TQaHgrMoALsDVxEdo5IkKXQLgGOBP5dy0tr+n5KorxDt9tioxPNKklSuWokOha8CHijVpKUsAD8AvoMfPZQk6b1qgP2BQcCfSjFhqQrAucDXSzSXJEmV6sNEh+fvTnuiUhSATwE/KsE8kiRVgz2AucATaU6S9kmAmwMPEe3SkCRJhVkDbE90EaFUpHk8vga4FDf+kiQNVAvwC1LcTqdZAE4Cdkpx+ZIkVbPtgU+mtfC0DgHUAy8QXelPkiTF8wrRfQaKuulMb9LaA3AkbvwlSSrWJkTb1MSlVQBOTGm5kiSFJpXDAGkcAhgNLCKBcrHlFluw+cyZNDc3F59KkqQE5fM95Lu7e31sbVsbc557nqeeeSaJqbqBscCbSSzsXbHvf70Be1Lkxn/XXXbhR+edx+abb55QJEmSktfRtpp8Pt/n4888O4ezzv4m9z3wYDHT1BJtW68rZiHvlcYhgF2LGXz4xz/O72+6yY2/JKns1dRt+Ia2m8+cwU2/vpZDDz6o2Kl2K3YB75XGIYA7iZrKgE2eNIlHHnjAXf6SpIrQ09NN57q1/T5v3bp17Ljbnrw2f37cqf4X2Cfu4N6ksQdgStyBXzr9dDf+kqSKUZMrbDPa1NTEaZ89tZipphYzuDdpFIChcQd+ZN99k8whSVK6crmCd6Xvs9dexcwUe9valzQKQEvcgePGjk0yhyRJ6StwL8D4ceOKmWVwMYN7k0YBiH2Hwfr6DZ9MIUlS2SlwF0B9fVEfvEv87r1p3gtAkiSVKQuAJEkBsgBIkhQgC4AkSQGyAEiSFCALgCRJAbIASJIUIAuAJEkBSqMA9MQd2N3HfZUlSSpbfd8N+O8UuY2LvW3tSxoFoP/bIvVh8eLFSeaQJCl9+cK2zYuXLClmljXFDO5NGgXg7bgD77733iRzSJKUqjwF7wDgnj//pZipYm9b+5JGAZgbd+B//PjHHgaQJFWOnsK2Wd3d3fzk4kuKmemVYgb3Jo0C8FzcgU89/TRnf+tbSWaRJCk1PV1dBT3vn797Ls/Oib15BHi+mMG9SfzuQsAI4JC4gx986CFemTuXnT/0IVpaYt9ZWJKk1HV3tpPP930QYMmbb/Kls77GFVddXexUPwaeKHYh6yvwJoYD8kFgXrELGdTczD777MOsmTNpHjSo+FSSJCUo391Nd3fvewDa2tp45tk53HnPPbS1tRU9FdG2dX6xC1pfGgUA4AFgx5SWLUlSSO4Hdk56oWldCOgXKS1XkqTQpLJNTWsPwCCiTwOMSmn5kiSFYAkwmSKusdOXtPYArAXOT2nZkiSF4jxS2PhDensAABqAx4EZKc4hSVK1egHYEmhPY+Fp3gyoAzgFKOxDkpIk6V1dwImktPGHdK4DsL7XiL6JvVOeR5KkavIN4Jo0J0i7AAD8FZgAbFOCuSRJqnRXAl9Ne5JSFACAW4nOBdi8RPNJklSJrgU+SQq3/32vUhWAHuAGossE71CiOSVJqiQXEZ07V5K74pWqAEB0KcNbie5otC/RpwQkSQrdKuAk4AcUfnfhopWyALzrSeAKYCSwVQbzS5JULn4HHAT8pdQTp/kxwA1ZCJwA7Ar8gRI2HkmSMpYHbgN2Idr4v5pFiDQvBDQQk4HjgAOA7YC6bONIkpSoLuBhokPhVxFdLj9T5VIA1jeE6NMCmwGjgVayOVSRtJFEx3gGbMTwBk44YlysSbvXDiHfVd/rYw8/8wb3P7ko1nKJ7k51b9zBJbIJcEScgZMnNnPoAaNjTdq9eiPyPb3/yt758Gs8/dLSWMsFbie6umY52xrYL87ALWcOYZ9dN441adfKYfT1cnbzPS8zb9HbsZYLXA+8HHdwiewG7BRn4Id3GMaOszca+MB8jq5Vw/p8+Krb5vDWiti3wL0ceDPu4DLSDawEFgPPAc8QHesvG+X4TnsV0e2EH8g6SMK2IGYBGD2ygXPOmhZr0o4l4+lpa+n1sQuuerSYAnAXcHbcwSVyADELwKZTWmKv8/ZFk8h39n6O68rVHcUUgN8CF8cdXCKfIWYB2GHrjWKv83WvTYV870c058x9q5gC8HPg93EHl8j3iFkA9tl1Y776uckDH9hTw7r5U/t8+E8PvlpMAbgQeCruYBUuq3MAJElShiwAkiQFyAIgSVKALACSJAXIAiBJUoAsAJIkBcgCIElSgCwAkiQFyAIgSVKALACSJAXIAiBJUoAsAJIkBcgCIElSgCwAkiQFyAIgSVKALACSJAXIAiBJUoAsAJIkBcgCIElSgCwAkiQFyAIgSVKA6rIOoIp1BvDZrEP0oz7rAAk7H/jXrEP0ozHrAAm7BujMOkQ/mrMOoMpkAVBcTe98qXQGvfOl0hmcdQApLR4CkCQpQBYASZICZAGQJClAFgBJkgJkAZAkKUAWAEmSAmQBkCQpQBYASZICZAGQJClAFgBJUqIGNRV1kdnVSeXQhlkAJEmJmjBqSNyhncCiBKNoAywAkqRE7bHdxLhD7wbak0uiDbEASJISdeie0xg1PNZ9qy5KOov65t0AFdcFwLlZh+jHvsC1WYdI0FeA/8k6RD9OJLptcbU4Grgj6xD9+Gfgy1mHWF9Lcz3f+9wunPK9O8jnCx52I/C79FLpvSwAiqsNWJ51iH5U28lEayn/db426wAJW035r/O2rAP05tC9prFo6Wq+e8n99PTfAu4CTihBLK3HQwCSpFR8/sjZXHfeQcyYPLyvp6wEzgb2o/oKe9lzD4AkKTV7bDuRey87hsdfWMIDT73OwqXLV1983TPnAU8Cf6T69hpVDAuAJClVuRzMnj6K2dNHkWtsW3nxdc+U+/lDQfAQgCRJAbIASJIUIAuAJEkBsgBIkhQgC4AkSQGyAEiSFCALgCRJAbIASJIUIAuAJEkB8kqAims2cErWIfoxK+sACdsF6Mk6RD92yTpAwvYHxmcdoh+zsw6gymQBUFwffedLpfOJd75UOl/IOoCUFg8BSJIUIAuAJEkB8hCAJCl1S5at5cGnX2fR8uUtwHHAM8BjGccKmgVAkpSaZ195i3MuvZ87H3qNnnweYCPgl+88/DLwHeDKjOIFzQIgSUrFjXe+yBfO+1/aO7r7esoUojKwH3AS0FmqbPIcAElSCu55dD6f/bc/bWjjv77jgItSjqT3sABIkhLV0dnNGT+6m67uAV224jPArilFUi8sAJKkRP3uz6/w6usr4ww9M+ks6psFQJKUqD8++GrcofsC9QlG0QZYACRJiZq38O24Q5uBsQlG0QZYACRJiVqzrqiT+TdKKoc2zAIgSVKALACSJAXICwEprseAh7MO0Y+JVNcdC/8MzMk6RD9mUF0f5foD8FrWIfqxPd4SWDFYABTXbcDZWYfoxwFUVwG4Grg46xD9qLbPcv8E+H3WIfrxPSwAisFDAJIkBcgCIElSgCwAkiQFyAIgSVKALACSJAXIAiBJUoAsAJIkBcgCIElSgCwAkiQFyAIgSVKALACSJAXIAiBJUoAsAJIkBcgCIElSgCwAkiQFyAIgSVKALACSJAXIAiBJUoAsAJIkBcgCIElSgCwAkiQFKJd1gDIxHNgN2BrYDBgBDE14jmZgZqyBTTVsNnVwrEnzXfXke3rveUuWreX1pWtiLRd4A1gYd3CJbARMjTOwdUgdUz44KNakPZ0NkO/9T2vBktW8taIt1nKB14A34w4ukZHAB+IMHDG8gYnjmmJN2tPR2Odjcxe+zco1HbGWC7wEvB13cImMB8bEGThudCOjR/a97jZkQ+v8+VeXs669K9ZygWeB2H8kfVhB9LfzPPA4cA+wPOE5Kk7IBWAj4BjgeOBDuDdEkkLRA9wP/BL4FbAy2zjZCLEADAXOBL5AVAIkSeFaAfwE+CHlv7cnUaEVgE8A5wOjsw4iSSorbwBnEO0RCEIoBWAwcDFRAZAkqS9XAp8FVmcdJG0hFIDRwG3A7KyDSJIqwlPA/sCirIOkqdoLwDiisz1jnQkuSQrWS0SfDns96yBpqeYz34cSvfN34y9JGqipRNuQqj1ZvFoLQA64HNgy6yCSpIq1FdFHBatyb3lt1gFS8jngK1mHkCRVvOlEnxB4JOsgSavGVjMGmEPyV/KTJIVpJdFVYqvqfIBq3ANwAbBz1iEkSVWjERgC/C7rIEmqtj0AE4CXgYasg0iSqkon0YmBr2UdJCnVdhLgZ3DjL0lKXj1wctYhklRNewBqgFeAD2YdRJJUleYBmwD5jHMkopoKwDbAo8UuZOedduITxxzDZtOn09QU79akkqTSyfd009mxrtfH2tvbmfP8C1xz3fU8+PDDSUy3NfBEEgvKWjUVgK8Q3c0plubmZv7zoos4+sgjE4wkSSqFznVr6enp3uBzrr3+Br545lm0t7cXM9VXgB8Vs4ByUZd1gARtF3dgLpfjfy69lIMPOijJPJKkEqmpq6OnY8MF4KjDD6O5uZlPnXwq+XzsvfixtzXlpppOApwed+AhBx3kxl+SKlhNTWHvZw/+2AF8bP/9iplq02IGl5NqKgDj4w486cQTk8whSSqxXK7wI9qfOv64YqaaUMzgclJNBaA17sDtt902yRySpFLL5aKvAszeeqtiZhpSzOByUk0FIPYp+62tsbuDJKlMFLoXYNjQoq4UP6iYweWkmgpAbAPZdSRJqmy+5kcsAJIkBcgCIElSgCwAkiQFyAIgSVKALACSJAXIAiBJUoAsAJIkBcgCIElSgKqpAHTGHbi2rS3JHJKkLBR4h7+1a9cWM0tHMYPLSTUVgFVxB7700ktJ5pAkZaDQW/y++PLLxUwTe1tTbqqpACyNO/CG3/wmyRySpBLL53sKfu5vb76lmKneLGZwOammAvBC3IH/dcklzJ03L8EokqRSyvcUVgDmznuVn13+82KmerGYweWkmgrAU3EHrl6zhsOOPJL5CxYkmUeSVCI9Xf2fBjZ/wQKOPuFTxZ4DEHtbU25qsw6QoFrg+LiDl771Flf96lfU1tQwedIkBg8enGA0SVJq8nk6O9r7fHjJkjf5719cwWe+8EUWLlpU7GznAK8Uu5ByUE33RBwELAYS2XKPGjWKlkFVc9tnSapa0cl/vZ8AuHZtG0veTOyw/SpgNFAVHx2ryzpAgtYCN1LEXoD1LVmyJInFSJKqxw1UycYfquscAICfZR1AklS1Lss6QJKqrQD8Bfhz1iEkSVXnbuCvWYdIUjWdA/CuDxOVgGr83iRJpdcD7ALcn3WQJFXbHgCIGtr/ZB1CklQ1LqfKNv5Qve+SBwOPANOzDiJJqmgvAdsCK7MOkrRq3AMAsBo45p3/SpIUxyrgcKpw4w/VWwAAHiP6wVXNnZskSSXTARwGPJF1kLRUcwEAuB34GFV09yZJUurWAIcCf8w6SJqqvQAA/AnYB3gt6yCSpLI3D9gduDXjHKkLoQAAPATMBn6ddRBJUtm6BtgGeDTrIKUQSgEAWAYcCexPFd3NSZJUtCeAjxCdPL484ywlU60fA+xPDjgYOJXoh15Nd0WUJPWvi+gY/8XALfR1N6EqFmoBWN9oYD9gb2BLomsHNGeaSJKUtLXAC0Tv9u8kOkl8caaJMmYB6N0woosJ1ZdgrmeBxjgDH719Zxoay/coTsfCyQU977l5y/jE2b+PO80zRHtzytERwPfjDDz0gNGcc9a0hOMkp2dVK10rNy7ouef87H5uuueluFN9nfI9d+cmYFacgddesjUzpydy5/JUdCyeAF39v/y1d3Sz84lXx52mHZgZd/AAdBJdEyaYXfuFqqbbASdpOaX7ZYm92+mDE5tpKuMCsK6ntaDnvb26vZhp2oFXillAimLfhHxISx2TJ5bvjqjulS10Li/s5zukpaGYqZZSvj/f2L+448Y0lvXPt712CPnO/n9u7R3dxUyTp3x/tkEo362HJElKjQVAkqQAWQAkSQqQBUCSpABZACRJCpAFQJKkAFkAJEkKkAVAkqQAWQAkSQqQBUCSpABZACRJCpAFQJKkAFkAJEkKkAVAkqQAWQAkSQqQBUCSpABZACRJCpAFQJKkAFkAJEkKUF3WARTfq/PbaGgsrsON2riBlkG1CSVSUlat6WLu/LailtHYUMOoEQ3U1eYSSqWkLHqjnaEbFffzHdZax9CN6hNKpBBZACrYtvvdl8hyPjC+iUMPGM0X/3ESo0Y0JLJMFefGWxdz462Li15ObW2OnbcbyqeOGs8RB42hpsYyUA6OOvXxRJYzYngDB+47ki+dPImpkwclskyFw0MA4rWF6/iPS19ly73+ys13LMk6jhLU3Z3nzw8u59NnPM3+xz7Km291ZB1JCVq6rIOfX7uQ7fe/j4suezXrOKowFgD9n9Vrujju809aAqrUfQ8vZ/9jH2Hlqq6soyhhnV15/unfXuAHP52bdRRVEAuA/k5PT55TznyGxW/6TrEaPf/SGs469/msYygl517wMo888XbWMVQhLAB6n9Vrurjw0nlZx1BKrr7xdV6etzbrGEpBT0+e7134ctYxVCEsAOrVb28r/gQ0laeenjw33e5hnmp1933LWPF2Z9YxVAEsAOrV/EXreHulx4qr1TPPr846glLS2ZXnuZfXZB1DFcACoD6tWOm7iGr1tj/bqmZ5VyEsAOpVLgejRjRmHUMp8Wdb3UaP9Hoe6p8FQL2aPauV5iZ/ParVTtsNzTqCUtI6pI6Zmw7OOoYqgK/w6tUxh47NOoJS0jqkqbJFTQAADJJJREFUjgP3GZl1DKXkiAPH0FDvS7v652+J3mfTKS2cdMyErGMoJV//wiYMG+o15KvRsKH1fP20TbKOoQphAdDfGTG8gWsv3orGBn81qtGRB4/htE9/MOsYSkFTYw1XXLQlY0d7focK46u8/s/O2w/j3t/uyLRNWrKOooQ1NdZw9pemcNn5s8h5P6CqM31qC7dfsz17fnh41lFUQbwbYAWbNLGZYl/LR41oYOb0wRz60dHstcvGieRS8Qa31DFyeHG76Rsaaxg3upHddxrO0f8wlgljmxJKp2KNG91Y9F62YUPrmTp5EAftO4qD9hvlbZ81YBaACvbI7TvT1OhOnGr08QNG89Pvz8w6hlJy7c+2Zvas1qxjKHBuPSRJCpAFQJKkAFkAJEkKkAVAmWttKeqypSuSyiFJIbEAKHNjRwymob427vBXkswiSaGwAChzjQ217DY79pUHf59kFkkKhQVAZeGLx24TZ9jzwO8SjiJJQbAAqCzstOU4Tjhw84EMaQdOArzxuSTFYAFQ2fj+6btyxL7TC3nqauAo4L50E0lS9bIAqGw01NXyX9/Yh0vO3pdNJvR6v/ou4AZgG+CmkoaTpCrjpYBVdg7be1MO23tT5sxdxnNz3+KxufN//9Or5lxM9I5/Wdb5JKkaWABUtmZMHs6MycM5vHX0Yz+9ao4n+0lSgjwEIElSgCwAkiQFyAIgSVKALACSJAXIAiBJUoAsAJIkBcgCIElSgCwAkiQFyAsBVbArrltIXX2u18dGbtzAzGmDmTJpUIlTKQkvvLKGy69Z0OtjjQ01jB3VyI7bDKVlUG2JkykJt9yxhMeeXtnrY0OH1DN18iC2mDGEXO9/3lIiLAAV7IzvPNfvc7aYMYSzvzSFA/cZWYJESsoDj67ggUdXbPA5TY01HH7gGL755SlMGNtUomRKwnn/Obff53xgfBNnfm4ynzxiPLW1NgElz0MAVe6pOas4+tTH+fK3n6OnJ591HCVoXXsPV96wiJ0PfIC/PLg86zhK2GsL13H62XM48pTHWbO2O+s4qkIWgEBceuV8vv2Dl7KOoRQsW9HJ4Sc/zpwXV2cdRSm4/e6lnPTlpyzwSpwFICAXXjqvz+OOqmyr13Txua8/S95tRFX6/Z/e5Ne3vJF1DFUZC0BA8nm48GevZh2jICvXdHDjnS/y7z9/iCNPv/MjwNeAnfB3tk8PP/429z/ioYBqdcHP5mUdQVXGkwADc8c9S+npyVNTU54nFbV3dPODKx7mkhueoK29693/vcM7XwDPAmcAt2eRr9z94a6l7Lz9sKxjKAVPP7ea+YvWMXGcJ3wqGb6bCsyq1V0sXdaZdYxerVjVziFn3MiFVz+6/sb/vWYCtwJnli5Z5XjltbasIyhFc19bm3UEVRELQIA6u3qyjvA++TycfO7tPPLs4kKeXgOcBxyRbqrK09VZfj9bJaez05M8lBwLQGAaG2oYPbIx6xjvc+NdL3LXI/MHMiQH/AQYkk6iyjTB3cNVzd3/SpIFIDC77zScujK8qMhlNz4ZZ9go4OMJR6loe++6cdYRlJIPjG9i2iYtWcdQFbEABObUEyZmHeF9Vq/tLHTXf2/2TTJLJZs8sdkCUMVOPf4DXhpYibIABOTg/Uax3x4jso7xPm+8tYae+B9g/0CSWSpVbW2OC8+dQUO9f9LVaMuZQ8qyvKuy+WoRiF13HMalP5yVdYxerV1X1KcSgt8nWleb48JzZvjuv0ptOqWFay/ZmqZGX66VLH+jqlzLoFrO/tIUbr5iW+8cV4W2mjmEW6/alhOPHp91FCWsvi7HycdN5O4bdvDkP6XCCwFVsE8eOZ7aXi7ok8vBqBENzJg2mI/ssTGDW/wxV5ppm7Sw6w69X9CnsbGGcWMa2X2n4cye1epx4Qp08H6jGDGsodfHhg+rZ8qkQey/5whGbtz7c6QkuGWoYOd/ZzN3C1apnbYdykXfm5F1DKXkq5+bzOxZrVnHUODcekiSFCALgCRJAbIASJIUIAuAJEkBsgBIkhQgC4AkSQGyAEiSFCALgCRJAbIASJIUIAuAJEkBsgBIkhQgC4AkSQGyAEiSFCALgCRJAbIASJIUIAuAJEkBsgBIkhQgC4AkSQGyAEiSFCALgCRJAarLOoDiO+nLT1FbmytqGSOGNzBzWgsf23cU40Y3JpRMxbr3gWUcf9qTRS2job6GsaMa2W2nYeyx83Aa6u375eJb573I0I3qi1rGRkPqmDa5hQP2HsG0TVoSSqaQWAAq2M23L0lsWWed+zwnHTuBc746jZZBtYktV/HMm9/GvPltiSzrwkvnMWliM9//5nQO3GdkIstUce7667LElvXNf3+BQ/YfzQ+/NZ0xoyzxKpxvCQRAZ1eeS66Yz75HPcyyFZ1Zx1HC5s1v45jPPM75F8/LOooSls/Db29bzO6HPsQLL6/JOo4qiAVAf+fJZ1dxwmlPks9nnURJy+fhOz98kZv+kNyeI5WPhW+s44hTHmf1mq6so6hCWAD0Pnfft4wbb12cdQylIJ+Hr/3L87St68k6ilLw8ry1XHTZq1nHUIWwAKhXl129IOsISsmC19dxx91Ls46hlFx29QJ6etyFp/5ZANSr+x5eTken7xKr1V33vZV1BKVkydIOnvdcABXAAqBedXXnWbK0I+sYSsmiN9qzjqAULXzdn6/6ZwFQn5qb/DhgtfJnW92am3xpV//8LVGvhg2tZ/jQ4i5UovI1ddKgrCMoJbkcbPJBf77qnwVAvTpgr5HkirvIoMrYAV4QqGpts0UrY72qpwpgAdD71Nbm+PKpk7KOoZTsvevGbLtla9YxlJKzPr9J1hFUISwAep9vnTGVzaZ6bfFqNGxoPReeMyPrGErJMYeO5WPu3VGBLAD6P7kc/NPpm3CG7/6r0oSxTfzul9sy+QPNWUdRCo45dCw/+deZWcdQBfFmQKK2NsduHxrG2V+awoe2GZp1HCVs42H1HH/4eM787KSi70Cn8rPNFq2c+bnJHPyRUVlHUYWxAFSwyy/Ygvq6+Gfq5XIwakQD06cOZuNhbhjKyW4fGs7Jn5hQ1DIaG2sYP7aJWdMHF33baCXrnLOmMXlicXtiNh5ez5RJgxg/pimhVAqNBaCCHbzfKJoaPYpTjSZNbObQA0ZnHUMp2fPDw5k9yxMxlS23HpIkBcgCIElSgCwAkiQFyAIgSVKALACSJAXIAiBJUoAsAJIkBcgCIElSgCwAkiQFyAIgSVKALACSJAXIAiBJUoAsAJIkBcgCIElSgCwAkiQFyAIgSVKALACSJAXIAiBJUoAsAJIkBcgCIElSgCwAkiQFyAIgSVKALACSJAXIAiBJUoAsAJIkBcgCIElSgCwAkiQFyAIgSVKALACSJAXIAiBJUoAsAJIkBcgCIElSgCwAkiQFyAIgSVKALACSJAXIAiBJUoAsAJIkBagu6wCiO+a4fB7+JU+uJ9E0CappXrVHIc9rZ9VgYNuY08Rdf6XQFXfgK6+t/Vue3C1JhklSviY/vqZ51bRCnru6fc2mwNiYU8VehyUQ+3dv0eKOi7eelVucZJgk1Ta1bd9T197S3/Nq6npywG4xpynnv12pJF4B8jG+lmYRNiVjiLcO8sDNGeQt1P7E/77OySBvWs4l/nrYL4O8hbqF+N/X6AzypmUZ8dbBS1mE1f/nIYDsPRJz3MOJpsjWYmB+zLFx118p/I3473LK+fsaqEdjjusBnkgySMLifl8LgSVJBsmYr2FSTIcSrz1/MouwKfoBA18HXcBmWYQdgDsY+Pf1JtCcRdiUDCL6nga6Hm7PIuwAbEZU8Ab6ff17FmFTdCLxXsMOySKsVE5ywH0M7A/nCaA2i7ApGgG8xcDWw6WZJB2Y7YmKykC+r89nkjRdpzGwddAJbJdJ0oH5bwb2fS0FNs4kaXrqgKcZ2Hr4C9FrnxS8iUS7BQt9ASno5KsKtA/QTmHr4VGg35OUysTpFP7C+Cuq84UxB1xD4evhtGxiDlgL0e9iId9TO7B3NjFTN53CC/xCYEI2MaXy9AHgATb8h/MYMDWrgCWyK9H5ABtaD9cDrVkFjOkEYCV9f09dwHlU356d9dUSHerZ0B6Rt4HjswoYUytwAxv+nX0N2CWrgCUyjWjv5IbWw/1Eb3gkvUcOOBz4DbCA6B3DQqKzjY8lnJM2m4neAd5NdIJgOzAX+AWwe3axijYS+DbRyU/LgTXAs8BFwMwMc5Xa5kTf8xyidbCcaJ18m2gdVao9iH5H5xL9zi4G7gK+QHWd07EhtcBxwO+ARUTrYQFRQTqM6ty7VbH+H1olgZtr7nw5AAAAAElFTkSuQmCC;" vertex="1" parent="1">
          <mxGeometry x="510" y="87" width="76" height="76" as="geometry" />
        </mxCell>
        <mxCell id="n99DYxy3qWON-Op06M_Q-13" value="&lt;b style=&quot;color: rgb(181, 115, 157); font-family: &amp;quot;Times New Roman&amp;quot;; font-size: 14px; font-style: normal; font-variant-ligatures: normal; font-variant-caps: normal; letter-spacing: normal; orphans: 2; text-indent: 0px; text-transform: none; widows: 2; word-spacing: 0px; -webkit-text-stroke-width: 0px; background-color: rgb(248, 249, 250); text-decoration-thickness: initial; text-decoration-style: initial; text-decoration-color: initial;&quot;&gt;Quantum&lt;br&gt;Computer(Bob)&lt;/b&gt;" style="text;whiteSpace=wrap;html=1;fontSize=14;fontFamily=Times New Roman;fontColor=#8080FF;align=center;" vertex="1" parent="1">
          <mxGeometry x="483" y="160" width="130" height="60" as="geometry" />
        </mxCell>
        <mxCell id="n99DYxy3qWON-Op06M_Q-14" value="&lt;b&gt;&lt;font color=&quot;#ff8000&quot;&gt;Parallel&amp;nbsp; Data &lt;br&gt;Transmission&lt;br&gt;(Superposition Principle)&lt;br&gt;&lt;/font&gt;&lt;/b&gt;" style="text;html=1;align=center;verticalAlign=middle;resizable=0;points=[];autosize=1;strokeColor=none;fillColor=none;fontSize=14;fontFamily=Times New Roman;fontColor=#8080FF;" vertex="1" parent="1">
          <mxGeometry x="110" y="20" width="170" height="60" as="geometry" />
        </mxCell>
        <mxCell id="n99DYxy3qWON-Op06M_Q-15" value="&lt;span style=&quot;color: rgba(0, 0, 0, 0); font-family: monospace; font-size: 0px; text-align: start;&quot;&gt;%3CmxGraphModel%3E%3Croot%3E%3CmxCell%20id%3D%220%22%2F%3E%3CmxCell%20id%3D%221%22%20parent%3D%220%22%2F%3E%3CmxCell%20id%3D%222%22%20value%3D%22%22%20style%3D%22endArrow%3Dclassic%3Bhtml%3D1%3BfontFamily%3DTimes%20New%20Roman%3BfontSize%3D14%3BfontColor%3D%23B5739D%3BstrokeWidth%3D1%3BstrokeColor%3D%23808080%3Bcurved%3D1%3B%22%20edge%3D%221%22%20parent%3D%221%22%3E%3CmxGeometry%20width%3D%2250%22%20height%3D%2250%22%20relative%3D%221%22%20as%3D%22geometry%22%3E%3CmxPoint%20x%3D%22168%22%20y%3D%22104.75%22%20as%3D%22sourcePoint%22%2F%3E%3CmxPoint%20x%3D%22218%22%20y%3D%22104.75%22%20as%3D%22targetPoint%22%2F%3E%3C%2FmxGeometry%3E%3C%2FmxCell%3E%3CmxCell%20id%3D%223%22%20value%3D%22%22%20style%3D%22endArrow%3Dclassic%3Bhtml%3D1%3BfontFamily%3DTimes%20New%20Roman%3BfontSize%3D14%3BfontColor%3D%23B5739D%3BstrokeWidth%3D1%3BstrokeColor%3D%23808080%3Bcurved%3D1%3B%22%20edge%3D%221%22%20parent%3D%221%22%3E%3CmxGeometry%20width%3D%2250%22%20height%3D%2250%22%20relative%3D%221%22%20as%3D%22geometry%22%3E%3CmxPoint%20x%3D%22168%22%20y%3D%22114.75%22%20as%3D%22sourcePoint%22%2F%3E%3CmxPoint%20x%3D%22218%22%20y%3D%22114.75%22%20as%3D%22targetPoint%22%2F%3E%3C%2FmxGeometry%3E%3C%2FmxCell%3E%3CmxCell%20id%3D%224%22%20value%3D%22%22%20style%3D%22endArrow%3Dclassic%3Bhtml%3D1%3BfontFamily%3DTimes%20New%20Roman%3BfontSize%3D14%3BfontColor%3D%23B5739D%3BstrokeWidth%3D1%3BstrokeColor%3D%23808080%3Bcurved%3D1%3B%22%20edge%3D%221%22%20parent%3D%221%22%3E%3CmxGeometry%20width%3D%2250%22%20height%3D%2250%22%20relative%3D%221%22%20as%3D%22geometry%22%3E%3CmxPoint%20x%3D%22168%22%20y%3D%22124.75%22%20as%3D%22sourcePoint%22%2F%3E%3CmxPoint%20x%3D%22218%22%20y%3D%22124.75%22%20as%3D%22targetPoint%22%2F%3E%3C%2FmxGeometry%3E%3C%2FmxCell%3E%3CmxCell%20id%3D%225%22%20value%3D%22%22%20style%3D%22endArrow%3Dclassic%3Bhtml%3D1%3BfontFamily%3DTimes%20New%20Roman%3BfontSize%3D14%3BfontColor%3D%23B5739D%3BstrokeWidth%3D1%3BstrokeColor%3D%23808080%3Bcurved%3D1%3B%22%20edge%3D%221%22%20parent%3D%221%22%3E%3CmxGeometry%20width%3D%2250%22%20height%3D%2250%22%20relative%3D%221%22%20as%3D%22geometry%22%3E%3CmxPoint%20x%3D%22168%22%20y%3D%22134.25%22%20as%3D%22sourcePoint%22%2F%3E%3CmxPoint%20x%3D%22218%22%20y%3D%22134.25%22%20as%3D%22targetPoint%22%2F%3E%3CArray%20as%3D%22points%22%3E%3CmxPoint%20x%3D%22198%22%20y%3D%22134.25%22%2F%3E%3C%2FArray%3E%3C%2FmxGeometry%3E%3C%2FmxCell%3E%3CmxCell%20id%3D%226%22%20value%3D%22%22%20style%3D%22endArrow%3Dclassic%3Bhtml%3D1%3BfontFamily%3DTimes%20New%20Roman%3BfontSize%3D14%3BfontColor%3D%23B5739D%3BstrokeWidth%3D1%3BstrokeColor%3D%23808080%3Bcurved%3D1%3B%22%20edge%3D%221%22%20parent%3D%221%22%3E%3CmxGeometry%20width%3D%2250%22%20height%3D%2250%22%20relative%3D%221%22%20as%3D%22geometry%22%3E%3CmxPoint%20x%3D%22168%22%20y%3D%22144.25%22%20as%3D%22sourcePoint%22%2F%3E%3CmxPoint%20x%3D%22218%22%20y%3D%22144.25%22%20as%3D%22targetPoint%22%2F%3E%3CArray%20as%3D%22points%22%3E%3CmxPoint%20x%3D%22198%22%20y%3D%22144.25%22%2F%3E%3C%2FArray%3E%3C%2FmxGeometry%3E%3C%2FmxCell%3E%3C%2Froot%3E%3C%2FmxGraphModel%3E&lt;/span&gt;" style="text;html=1;align=center;verticalAlign=middle;resizable=0;points=[];autosize=1;strokeColor=none;fillColor=none;fontSize=14;fontFamily=Times New Roman;fontColor=#FF8000;" vertex="1" parent="1">
          <mxGeometry x="590" y="95" width="20" height="30" as="geometry" />
        </mxCell>
        <mxCell id="n99DYxy3qWON-Op06M_Q-16" value="" style="endArrow=classic;html=1;fontFamily=Times New Roman;fontSize=14;fontColor=#B5739D;strokeWidth=1;strokeColor=#808080;curved=1;" edge="1" parent="1">
          <mxGeometry width="50" height="50" relative="1" as="geometry">
            <mxPoint x="600" y="104.75" as="sourcePoint" />
            <mxPoint x="650" y="104.75" as="targetPoint" />
          </mxGeometry>
        </mxCell>
        <mxCell id="n99DYxy3qWON-Op06M_Q-17" value="" style="endArrow=classic;html=1;fontFamily=Times New Roman;fontSize=14;fontColor=#B5739D;strokeWidth=1;strokeColor=#808080;curved=1;" edge="1" parent="1">
          <mxGeometry width="50" height="50" relative="1" as="geometry">
            <mxPoint x="600" y="114.75" as="sourcePoint" />
            <mxPoint x="650" y="114.75" as="targetPoint" />
          </mxGeometry>
        </mxCell>
        <mxCell id="n99DYxy3qWON-Op06M_Q-18" value="" style="endArrow=classic;html=1;fontFamily=Times New Roman;fontSize=14;fontColor=#B5739D;strokeWidth=1;strokeColor=#808080;curved=1;" edge="1" parent="1">
          <mxGeometry width="50" height="50" relative="1" as="geometry">
            <mxPoint x="600" y="124.75" as="sourcePoint" />
            <mxPoint x="650" y="124.75" as="targetPoint" />
          </mxGeometry>
        </mxCell>
        <mxCell id="n99DYxy3qWON-Op06M_Q-19" value="" style="endArrow=classic;html=1;fontFamily=Times New Roman;fontSize=14;fontColor=#B5739D;strokeWidth=1;strokeColor=#808080;curved=1;" edge="1" parent="1">
          <mxGeometry width="50" height="50" relative="1" as="geometry">
            <mxPoint x="600" y="134.25" as="sourcePoint" />
            <mxPoint x="650" y="134.25" as="targetPoint" />
            <Array as="points">
              <mxPoint x="630" y="134.25" />
            </Array>
          </mxGeometry>
        </mxCell>
        <mxCell id="n99DYxy3qWON-Op06M_Q-20" value="" style="endArrow=classic;html=1;fontFamily=Times New Roman;fontSize=14;fontColor=#B5739D;strokeWidth=1;strokeColor=#808080;curved=1;" edge="1" parent="1">
          <mxGeometry width="50" height="50" relative="1" as="geometry">
            <mxPoint x="600" y="144.25" as="sourcePoint" />
            <mxPoint x="650" y="144.25" as="targetPoint" />
            <Array as="points">
              <mxPoint x="630" y="144.25" />
            </Array>
          </mxGeometry>
        </mxCell>
        <mxCell id="n99DYxy3qWON-Op06M_Q-21" value="&lt;b&gt;&lt;font color=&quot;#b5739d&quot;&gt;Data&lt;/font&gt;&lt;/b&gt;" style="text;html=1;align=center;verticalAlign=middle;resizable=0;points=[];autosize=1;strokeColor=none;fillColor=none;fontSize=14;fontFamily=Times New Roman;fontColor=#FF8000;" vertex="1" parent="1">
          <mxGeometry x="660" y="105" width="50" height="30" as="geometry" />
        </mxCell>
      </root>
    </mxGraphModel>
  </diagram>
</mxfile>
